<?xml version="1.0" standalone="no"?>
<!DOCTYPE svg PUBLIC "-//W3C//DTD SVG 1.1//EN" "http://www.w3.org/Graphics/SVG/1.1/DTD/svg11.dtd" >
<svg>
<metadata>
Created by FontForge 20120731 at Tue Mar 18 17:44:10 2025
 By www
Copyright (c) 2019 Commercial Type, Inc.. All rights reserved.
</metadata>
<defs>
<font id="HardingTextWeb-Regular" horiz-adv-x="524" >
  <font-face 
    font-family="Harding Text Web Regular"
    font-weight="400"
    font-stretch="normal"
    units-per-em="1000"
    panose-1="0 0 0 0 0 0 0 0 0 0"
    ascent="800"
    descent="-200"
    x-height="535"
    cap-height="722"
    bbox="-200 -274 1330 960"
    underline-thickness="63"
    underline-position="-86"
    unicode-range="U+0020-FB04"
  />
<missing-glyph horiz-adv-x="500" 
 />
    <glyph glyph-name="f_f" unicode="ff" horiz-adv-x="658" 
d="M201 181q0 -49 5 -97t16 -84h-147q12 38 15.5 88t3.5 93v286h-63v8l63 52v36q0 52 18 90t47 62.5t66.5 36.5t76.5 12q54 0 88 -12.5t51 -33.5q28 31 67 46.5t84 15.5q58 0 92 -21t34 -56q0 -23 -14 -36.5t-35 -13.5q-19 0 -32 11t-20 36q-5 19 -12 25t-24 6
q-33 0 -57.5 -24.5t-24.5 -84.5v-87h128l-12 -68h-116v-286q0 -49 4.5 -97t15.5 -84h-147q12 38 15.5 88t3.5 93v286h-190v-286zM201 535h190v35q0 13 1 25t3 23q-15 3 -23.5 14t-12.5 33t-14.5 36t-42.5 14q-42 0 -71.5 -21t-29.5 -80v-79z" />
    <glyph glyph-name="f_i" unicode="fi" horiz-adv-x="588" 
d="M201 181q0 -49 5 -97t16 -84h-147q12 38 15.5 88t3.5 93v286h-63v8l63 52v43q0 52 19.5 91.5t50 65.5t69.5 39.5t78 13.5q93 0 134 -31t41 -71q0 -27 -16 -43.5t-44 -16.5q-25 0 -42.5 14.5t-22.5 40.5q-5 25 -16 41.5t-46 16.5q-44 0 -71 -25t-27 -83v-88h163l132 9
l8 -6q0 -5 -1 -25t-1.5 -43t-1 -43t-0.5 -26v-220q0 -43 3 -93t15 -88h-145q12 38 15.5 88t3.5 93v188q0 28 -4.5 53.5t-12.5 44.5h-174v-286z" />
    <glyph glyph-name="f_l" unicode="fl" horiz-adv-x="591" 
d="M201 181q0 -49 5 -97t16 -84h-147q12 38 15.5 88t3.5 93v286h-63v8l63 52v43q0 52 18 91.5t46.5 65.5t66 39.5t76.5 13.5q42 0 73.5 -7t53.5 -19l68 28l8 -6q0 -5 -1 -24.5t-2 -42t-1.5 -42.5t-0.5 -26v-460q0 -43 3.5 -93t15.5 -88h-145q12 38 15.5 88t3.5 93v421
q0 10 -1 19l-2 18q-11 5 -18.5 16.5t-11.5 29.5q-4 22 -14 34t-42 12q-42 0 -72 -24.5t-30 -84.5v-87h125l-12 -68h-113v-286z" />
    <glyph glyph-name="f_f_i" unicode="ffi" horiz-adv-x="885" 
d="M201 181q0 -49 5 -97t16 -84h-147q12 38 15.5 88t3.5 93v286h-63v8l63 52v36q0 52 18 90t47 62.5t66.5 36.5t76.5 12q57 0 92.5 -14.5t51.5 -36.5q31 34 75 50.5t87 16.5q93 0 134 -29t41 -69q0 -27 -16 -43.5t-44 -16.5q-25 0 -42.5 12.5t-22.5 38.5q-4 25 -15.5 41.5
t-46.5 16.5q-43 0 -70 -25t-27 -83v-88h163l132 9l8 -6q-1 -5 -2 -25t-1.5 -43t-1 -43t-0.5 -26v-220q0 -43 3.5 -93t15.5 -88h-146q12 38 15.5 88t3.5 93v188q0 28 -4.5 53.5t-11.5 44.5h-174v-286q0 -49 4.5 -97t15.5 -84h-147q12 38 15.5 88t3.5 93v286h-190v-286z
M201 535h190v35q0 13 1.5 25t3.5 22q-15 4 -24 15t-13 33t-14.5 36t-42.5 14q-42 0 -71.5 -21t-29.5 -80v-79z" />
    <glyph glyph-name="f_f_l" unicode="ffl" horiz-adv-x="888" 
d="M201 181q0 -49 5 -97t16 -84h-147q12 38 15.5 88t3.5 93v286h-63v8l63 52v36q0 52 18 90t47 62.5t66.5 36.5t76.5 12q55 0 90 -13.5t52 -34.5q29 31 70 47.5t84 16.5q40 0 71.5 -7t53.5 -20l70 29l8 -6q0 -5 -1 -24.5t-1.5 -42t-1 -42.5t-0.5 -26v-460q0 -43 3 -93
t15 -88h-145q12 38 15.5 88t3.5 93v421q0 9 -0.5 17t-1.5 15q-12 6 -19.5 17.5t-11.5 29.5q-4 22 -14 36t-42 14q-42 0 -72 -24.5t-30 -84.5v-87h125l-12 -68h-113v-286q0 -49 5 -97t16 -84h-147q12 38 15.5 88t3.5 93v286h-190v-286zM201 535h190v35q0 13 1.5 25t2.5 23
q-14 3 -23 14t-13 33t-14.5 36t-42.5 14q-42 0 -71.5 -24t-29.5 -85v-71z" />
    <glyph glyph-name="f_b" unicode="fb" horiz-adv-x="927" 
d="M201 181q0 -49 5 -97t16 -84h-147q12 38 15.5 88t3.5 93v286h-63v8l63 52v43q0 52 18 91.5t46.5 65.5t66 39.5t76.5 13.5q42 0 74 -7t54 -20l68 29l8 -6l-6 -153v-163h3q14 31 65.5 59t117.5 28q88 0 141.5 -67t53.5 -195q0 -61 -16 -115.5t-49 -94.5t-84.5 -63.5
t-121.5 -23.5q-64 0 -118 13t-99 38v561q0 10 -1 20t-2 19q-11 5 -18.5 16.5t-11.5 29.5q-4 22 -14 34t-42 12q-42 0 -72 -24.5t-30 -84.5v-87h125l-12 -68h-113v-286zM500 76q16 -13 49.5 -24t60.5 -11q78 0 115 59.5t37 167.5q0 99 -32 148.5t-104 49.5q-34 0 -73 -16.5
t-53 -36.5v-337z" />
    <glyph glyph-name="f_f_b" unicode="ffb" horiz-adv-x="1224" 
d="M201 181q0 -49 5 -97t16 -84h-147q12 38 15.5 88t3.5 93v286h-63v8l63 52v36q0 52 18 90t47 62.5t66.5 36.5t76.5 12q55 0 90 -13.5t52 -34.5q29 31 70 47.5t84 16.5q41 0 72.5 -7t53.5 -20l70 29l8 -6l-6 -153v-163h3q14 31 65.5 59t117.5 28q89 0 142 -67t53 -195
q0 -61 -16 -115.5t-49 -94.5t-84.5 -63.5t-121.5 -23.5q-63 0 -117.5 13t-99.5 38v561q0 9 -0.5 18t-1.5 16q-12 6 -19.5 17.5t-11.5 29.5q-4 22 -14 36t-42 14q-42 0 -72 -24.5t-30 -84.5v-87h125l-12 -68h-113v-286q0 -49 5 -97t16 -84h-147q12 38 15.5 88t3.5 93v286
h-190v-286zM201 535h190v35q0 13 1.5 25t2.5 23q-14 3 -23 14t-13 33t-14.5 36t-42.5 14q-42 0 -71.5 -24t-29.5 -85v-71zM797 76q16 -13 49.5 -24t60.5 -11q78 0 115 59.5t37 167.5q0 99 -32 148.5t-104 49.5q-34 0 -73 -16.5t-53 -36.5v-337z" />
    <glyph glyph-name="f_f_h" unicode="ffh" horiz-adv-x="1201" 
d="M201 181q0 -49 5 -97t16 -84h-147q12 38 15.5 88t3.5 93v286h-63v8l63 52v36q0 52 18 90t47 62.5t66.5 36.5t76.5 12q55 0 90 -13.5t52 -34.5q29 31 70 47.5t84 16.5q41 0 72.5 -7t53.5 -20l70 29l8 -6l-6 -158v-160h4q19 37 66 63t108 26q81 0 114.5 -37t33.5 -116v-213
q0 -43 3 -93t15 -88h-143q11 36 14 80t3 93v206q0 43 -23 62.5t-70 19.5q-37 0 -69 -10t-56 -34v-244q0 -49 3 -93t14 -80h-143q12 38 15.5 88t3.5 93v420q0 9 -0.5 17.5t-1.5 15.5q-12 6 -19.5 17.5t-11.5 29.5q-4 22 -14 36t-42 14q-42 0 -72 -24.5t-30 -84.5v-87h125
l-12 -68h-113v-286q0 -49 5 -97t16 -84h-147q12 38 15.5 88t3.5 93v286h-190v-286zM201 535h190v35q0 13 1.5 25t2.5 23q-14 3 -23 14t-13 33t-14.5 36t-42.5 14q-42 0 -71.5 -24t-29.5 -85v-71z" />
    <glyph glyph-name="f_f_j" unicode="ffj" horiz-adv-x="873" 
d="M201 181q0 -49 5 -97t16 -84h-147q12 38 15.5 88t3.5 93v286h-63v8l63 52v36q0 52 18 90t47 62.5t66.5 36.5t76.5 12q57 0 92.5 -14.5t51.5 -36.5q31 34 75 50.5t87 16.5q93 0 134 -31t41 -71q0 -27 -16 -43.5t-44 -16.5q-25 0 -42.5 14.5t-22.5 40.5q-4 25 -15.5 41.5
t-46.5 16.5q-43 0 -70 -25t-27 -83v-88h163l132 9l8 -6q-1 -5 -2 -25t-1.5 -43t-1 -43t-0.5 -26v-367q0 -53 -12.5 -98t-37.5 -77.5t-62 -51t-86 -18.5q-43 0 -72.5 17.5t-29.5 50.5q0 21 12.5 36.5t36.5 15.5q29 0 39 -16t12 -37q1 -10 4 -13.5t12 -3.5q34 0 55 32t21 87
v411q0 28 -4.5 53.5t-11.5 44.5h-174v-286q0 -49 4.5 -97t15.5 -84h-147q12 38 15.5 88t3.5 93v286h-190v-286zM201 535h190v35q0 13 1.5 25t3.5 22q-15 4 -24 15t-13 33t-14.5 36t-42.5 14q-42 0 -71.5 -21t-29.5 -80v-79z" />
    <glyph glyph-name="f_f_k" unicode="ffk" horiz-adv-x="1148" 
d="M201 181q0 -49 5 -97t16 -84h-147q12 38 15.5 88t3.5 93v286h-63v8l63 52v36q0 52 18 90t47 62.5t66.5 36.5t76.5 12q55 0 90 -13.5t52 -34.5q29 31 70 47.5t84 16.5q40 0 71.5 -7t53.5 -20l70 29l8 -6q0 -5 -1 -25t-2 -43t-1.5 -43t-0.5 -26v-355l131 143q31 34 44.5 60
t19.5 48h116q-31 -28 -59 -58t-61 -65l-95 -101l131 -174q28 -37 58 -70.5t65 -66.5h-147l-203 267v-86q0 -43 3.5 -93t15.5 -88h-145q12 38 15.5 88t3.5 93v423q0 8 -0.5 15.5t-1.5 14.5q-12 6 -19.5 17.5t-11.5 29.5q-4 22 -14 36t-42 14q-42 0 -72 -24.5t-30 -84.5v-87
h125l-12 -68h-113v-286q0 -49 5 -97t16 -84h-147q12 38 15.5 88t3.5 93v286h-190v-286zM201 535h190v35q0 13 1.5 25t2.5 23q-14 3 -23 14t-13 33t-14.5 36t-42.5 14q-42 0 -71.5 -24t-29.5 -85v-71z" />
    <glyph glyph-name="f_h" unicode="fh" horiz-adv-x="904" 
d="M201 181q0 -49 5 -97t16 -84h-147q12 38 15.5 88t3.5 93v286h-63v8l63 52v43q0 52 18 91.5t46.5 65.5t66 39.5t76.5 13.5q42 0 74 -7t54 -20l68 29l8 -6l-6 -158v-160h4q19 37 66 63t108 26q81 0 114.5 -37t33.5 -116v-213q0 -43 3 -93t15 -88h-143q11 36 14 80t3 93v206
q0 43 -23 62.5t-70 19.5q-37 0 -69 -10t-56 -34v-244q0 -49 3 -93t14 -80h-143q12 38 15.5 88t3.5 93v420q0 10 -0.5 19.5t-1.5 18.5q-12 5 -19.5 16.5t-11.5 29.5q-4 22 -14 34t-42 12q-42 0 -72 -24.5t-30 -84.5v-87h125l-12 -68h-113v-286z" />
    <glyph glyph-name="f_j" unicode="fj" horiz-adv-x="576" 
d="M201 181q0 -49 5 -97t16 -84h-147q12 38 15.5 88t3.5 93v286h-63v8l63 52v43q0 52 19.5 91.5t50 65.5t69.5 39.5t78 13.5q93 0 134 -31t41 -71q0 -27 -16 -43.5t-44 -16.5q-25 0 -42.5 14.5t-22.5 40.5q-5 25 -16 41.5t-46 16.5q-44 0 -71 -25t-27 -83v-88h163l132 9
l8 -6q0 -5 -1 -25t-1.5 -43t-1 -43t-0.5 -26v-367q0 -53 -12.5 -98t-37.5 -77.5t-62 -51t-86 -18.5q-43 0 -72.5 17.5t-29.5 50.5q0 21 12 36.5t37 15.5q29 0 38.5 -16t12.5 -37q1 -10 4 -13.5t12 -3.5q34 0 55 32t21 87v411q0 28 -4.5 53.5t-12.5 44.5h-174v-286z" />
    <glyph glyph-name="f_k" unicode="fk" horiz-adv-x="851" 
d="M201 181q0 -49 5 -97t16 -84h-147q12 38 15.5 88t3.5 93v286h-63v8l63 52v43q0 52 18 91.5t46.5 65.5t66 39.5t76.5 13.5q42 0 73.5 -7t53.5 -19l68 28l8 -6q0 -5 -1 -25t-2 -43t-1.5 -43t-0.5 -26v-355l131 143q31 34 44.5 60t19.5 48h116q-31 -28 -59 -58t-61 -65
l-95 -101l131 -174q28 -37 58.5 -70.5t64.5 -66.5h-146l-204 267v-86q0 -43 3.5 -93t15.5 -88h-145q12 38 15.5 88t3.5 93v423q0 9 -0.5 18t-1.5 17q-12 5 -19.5 16.5t-11.5 29.5q-4 22 -14 34t-42 12q-42 0 -72 -24.5t-30 -84.5v-87h125l-12 -68h-113v-286z" />
    <glyph glyph-name=".notdef" horiz-adv-x="500" 
 />
    <glyph glyph-name=".null" horiz-adv-x="0" 
 />
    <glyph glyph-name="nonmarkingreturn" horiz-adv-x="333" 
 />
    <glyph glyph-name="space" unicode=" " horiz-adv-x="176" 
 />
    <glyph glyph-name="exclam" unicode="!" horiz-adv-x="318" 
d="M77 722h164q-9 -40 -14 -92.5t-9 -95.5l-27 -334h-64l-27 334q-4 43 -9 95.5t-14 92.5zM159 -12q-34 0 -55 22t-21 51t21 50.5t55 21.5t55 -21.5t21 -50.5t-21 -51t-55 -22z" />
    <glyph glyph-name="quotedbl" unicode="&#x22;" horiz-adv-x="391" 
d="M58 722h110q0 -38 -9.5 -102t-26.5 -131h-38q-17 67 -26.5 130.5t-9.5 102.5zM222 722h110q0 -38 -9.5 -102t-26.5 -131h-38q-17 67 -26.5 130.5t-9.5 102.5z" />
    <glyph glyph-name="numbersign" unicode="#" horiz-adv-x="633" 
d="M157 228l3 14h-66.5t-69.5 -4l9 53q33 -3 69 -3.5t67 0.5l37 182q-31 0 -70.5 -0.5t-76.5 -4.5l8 53q36 -3 76 -3t73 1l5 25q12 60 20.5 111.5t12.5 97.5h69q-15 -63 -29.5 -126.5t-22.5 -101.5l-1 -6h151l5 25q13 60 21.5 111.5t11.5 97.5h70q-15 -63 -29.5 -126.5
t-22.5 -101.5l-1 -6q30 -1 64.5 -1t68.5 3l-8 -53q-35 4 -69.5 4.5t-64.5 0.5l-37 -182h69.5t75.5 3l-9 -53q-38 4 -76 4h-69l-8 -39q-13 -61 -21.5 -110t-11.5 -93h-70q8 26 16 58t15 63.5t12.5 59.5t9.5 47l3 14h-151l-8 -39q-13 -61 -21.5 -110t-11.5 -93h-70q8 26 16 58
t15 63.5t12.5 59.5t9.5 47zM224 288h151l37 182h-151z" />
    <glyph glyph-name="dollar" unicode="$" horiz-adv-x="551" 
d="M503 202q0 -41 -11 -77.5t-35 -65t-62.5 -47.5t-92.5 -23q1 -22 3 -46.5t5 -54.5h-76q3 30 5 54.5t3 46.5q-39 3 -74.5 16.5t-62 33.5t-42.5 46t-16 55q0 26 15 39.5t39 13.5q25 0 38.5 -17.5t20.5 -54.5q5 -28 26.5 -50t56.5 -29v290q-84 40 -132 84.5t-48 128.5
q0 69 49 122.5t130 63.5q-1 22 -3 46.5t-5 55.5h76q-3 -30 -5 -54.5t-3 -46.5q37 -2 70.5 -11t57.5 -24.5t38.5 -37.5t14.5 -51q0 -25 -15 -38t-36 -13q-25 0 -38 17t-20 49q-5 26 -25.5 38.5t-47.5 15.5v-246q3 -1 5.5 -2.5t5.5 -2.5q85 -39 138 -86.5t53 -137.5zM149 573
q0 -33 21 -59t73 -54v217q-46 -7 -70 -34.5t-24 -69.5zM417 158q0 51 -28 83.5t-88 63.5v-263q60 7 88 39t28 77z" />
    <glyph glyph-name="percent" unicode="%" horiz-adv-x="694" 
d="M186 733q60 0 102 -46.5t42 -130.5q0 -43 -12.5 -77.5t-32.5 -58t-46 -36t-52 -12.5q-59 0 -101.5 47t-42.5 131q0 44 12.5 78t32.5 57.5t46 35.5t52 12zM63 0l507 722h62l-508 -722h-61zM187 405q36 0 51 39t15 111q0 73 -15.5 109t-51.5 36t-53 -38.5t-17 -110.5
q0 -73 17 -109.5t54 -36.5zM508 -11q-59 0 -101.5 47t-42.5 131q0 44 12.5 78t32.5 57.5t46 35.5t52 12q60 0 102 -46.5t42 -130.5q0 -44 -12.5 -78t-32.5 -57.5t-46 -36t-52 -12.5zM507 317q-36 0 -53 -38.5t-17 -110.5q0 -73 17.5 -109.5t53.5 -36.5t51 39t15 111
q0 73 -15.5 109t-51.5 36z" />
    <glyph glyph-name="ampersand" unicode="&#x26;" horiz-adv-x="707" 
d="M526 0q-14 14 -28.5 31t-30.5 35q-34 -32 -80.5 -55.5t-100.5 -23.5q-68 0 -114.5 18t-74.5 46.5t-40.5 64.5t-12.5 72q0 39 15 71.5t38.5 59t54.5 48t62 39.5q-22 37 -36.5 75.5t-14.5 69.5q0 37 12.5 70t36.5 58t58.5 39.5t78.5 14.5q87 0 122.5 -38.5t35.5 -95.5
q0 -27 -13.5 -52t-36 -47t-53 -42t-63.5 -36q32 -47 78 -110.5t93 -120.5q16 37 26.5 82.5t16.5 101.5h86q-24 -82 -48.5 -133t-49.5 -91q23 -28 54.5 -62t82.5 -89h-154zM268 591q0 -32 14.5 -67t34.5 -67q52 27 80.5 59.5t28.5 73.5q0 53 -20.5 72.5t-55.5 19.5
q-38 0 -60 -22t-22 -69zM157 211q0 -32 10.5 -61.5t30.5 -52t48 -36t63 -13.5q44 0 75.5 18t51.5 37q-53 66 -105.5 138t-92.5 128q-35 -24 -58 -57.5t-23 -100.5z" />
    <glyph glyph-name="quotesingle" unicode="'" horiz-adv-x="226" 
d="M58 722h110q0 -38 -9.5 -102t-26.5 -131h-38q-17 67 -26.5 130.5t-9.5 102.5z" />
    <glyph glyph-name="parenleft" unicode="(" horiz-adv-x="368" 
d="M298 -141q-42 32 -83 77.5t-73 103t-52 128t-20 153.5q0 76 20 145.5t52 129t73 108t83 81.5l28 -21q-68 -73 -109.5 -184t-41.5 -242q0 -169 45.5 -275t108.5 -179z" />
    <glyph glyph-name="parenright" unicode=")" horiz-adv-x="368" 
d="M69 -141l-31 25q63 73 109 179t46 275q0 131 -41.5 242t-109.5 184l27 21q43 -33 84 -81.5t73 -108t51.5 -129t19.5 -145.5q0 -83 -19.5 -153.5t-51.5 -128t-73 -103t-84 -77.5z" />
    <glyph glyph-name="asterisk" unicode="*" horiz-adv-x="372" 
d="M222 404l-72 -2q5 34 9.5 66t6.5 59q-22 -15 -47 -34.5t-52 -41.5l-37 61q31 13 62 25t56 24q-24 11 -54 23t-64 25l35 63q27 -22 53 -42t48 -36q-2 27 -7 59t-11 67l72 2q-5 -35 -10.5 -69t-7.5 -62q22 16 47 36.5t55 45.5l37 -62q-32 -12 -62.5 -25t-55.5 -25
q24 -10 54 -21.5t64 -24.5l-35 -63q-27 22 -54 42.5t-49 35.5q2 -26 7.5 -58t11.5 -68z" />
    <glyph glyph-name="plus" unicode="+" horiz-adv-x="576" 
d="M531 327h-209v-223h-68v223h-209v62h209v222h68v-222h209v-62z" />
    <glyph glyph-name="comma" unicode="," horiz-adv-x="275" 
d="M43 -110q17 15 28.5 40.5t19 56.5t11 67t3.5 73l119 -14q-1 -37 -15.5 -73.5t-37 -68t-52 -57.5t-61.5 -43z" />
    <glyph glyph-name="hyphen" unicode="-" horiz-adv-x="308" 
d="M58 280v82h192v-82h-192z" />
    <glyph glyph-name="period" unicode="." horiz-adv-x="270" 
d="M135 -12q-34 0 -54.5 22t-20.5 53q0 30 20.5 52t54.5 22t54.5 -22t20.5 -52q0 -31 -20.5 -53t-54.5 -22z" />
    <glyph glyph-name="slash" unicode="/" horiz-adv-x="374" 
d="M-24 -130l326 901h72l-326 -901h-72z" />
    <glyph glyph-name="zero" unicode="0" horiz-adv-x="663" 
d="M330 733q62 0 113.5 -24t88.5 -70t58 -114.5t21 -156.5q0 -92 -23.5 -163.5t-62 -119t-89 -72.5t-104.5 -25q-61 0 -112.5 24t-88.5 70t-58 115t-21 157q0 92 23.5 163t61.5 119t88.5 72.5t104.5 24.5zM332 42q75 0 113.5 76t38.5 248t-39.5 242.5t-114.5 70.5
q-74 0 -113 -75.5t-39 -247.5t40 -243t114 -71z" />
    <glyph glyph-name="one" unicode="1" horiz-adv-x="418" 
d="M46 0v53h104q6 31 9 68.5t3 83.5v407l-122 5v40q74 10 135 32.5t111 41.5q-7 -46 -8.5 -93.5t-1.5 -91.5v-341q0 -46 3.5 -83.5t8.5 -68.5h100v-53h-342z" />
    <glyph glyph-name="two" unicode="2" horiz-adv-x="542" 
d="M475 534q0 -65 -33.5 -128t-82.5 -119t-106 -104.5t-104 -85.5h152q31 0 63 3t60 8t51 11t36 12l-28 -131h-445l-16 35q68 67 128.5 128.5t105.5 119.5t71.5 115t26.5 115q0 57 -32 92t-98 35q-57 0 -92 -22.5t-69 -71.5l-22 14q26 73 82.5 123t146.5 50
q106 0 155.5 -56.5t49.5 -142.5z" />
    <glyph glyph-name="three" unicode="3" horiz-adv-x="547" 
d="M383 226q0 63 -32 93t-89 30q-25 0 -45 -4.5t-39 -14.5l-16 31q35 18 66 36t54 38.5t36.5 46.5t13.5 60q0 49 -31.5 78t-82.5 29q-57 0 -91.5 -24t-59.5 -65l-23 13q21 69 75 114.5t135 45.5q94 0 143.5 -42t49.5 -120q0 -60 -35.5 -97.5t-83.5 -64.5v-3q83 -4 129 -50
t46 -113t-23.5 -115.5t-62 -79.5t-89.5 -45.5t-105 -14.5q-53 0 -98.5 10.5t-79.5 27.5l-8 99q37 -32 81.5 -58t87.5 -26q87 0 132 43t45 142z" />
    <glyph glyph-name="four" unicode="4" horiz-adv-x="590" 
d="M16 246l322 475h75v-434h144l-10 -77h-133q1 -76 7 -124.5t16 -85.5h-161q12 37 18 85.5t7 124.5h-273zM106 287h196v290z" />
    <glyph glyph-name="five" unicode="5" horiz-adv-x="512" 
d="M207 40q73 0 111 37.5t38 118.5q0 35 -12.5 65.5t-43 57t-84.5 49t-136 42.5l82 312h306l-33 -111q-23 5 -65 9t-79 4h-104l-31 -122q66 -16 123 -38.5t98 -54t64 -73t23 -94.5q0 -60 -20.5 -107.5t-55 -80t-81.5 -49.5t-100 -17q-61 0 -98 10.5t-74 27.5l-10 103
q39 -35 87.5 -62t94.5 -27z" />
    <glyph glyph-name="six" unicode="6" horiz-adv-x="597" 
d="M442 732l15 -36q-100 -50 -171.5 -127t-96.5 -188q31 29 70.5 45.5t91.5 16.5q38 0 74 -11.5t64 -37t45 -66t17 -98.5q0 -54 -19 -98.5t-52 -76.5t-78 -49.5t-96 -17.5t-97.5 17.5t-81 53t-55 88.5t-20.5 124q0 85 36 159t92 132.5t126 102t136 67.5zM176 261
q0 -34 5.5 -72.5t20 -71t40 -54t64.5 -21.5q35 0 59 14t39 37.5t22 55.5t7 67q0 84 -36 121t-91 37q-37 0 -69.5 -13.5t-57.5 -38.5q-1 -14 -2 -29.5t-1 -31.5z" />
    <glyph glyph-name="seven" unicode="7" horiz-adv-x="534" 
d="M86 1q116 210 195.5 358t140.5 261h-196q-62 0 -113 -4.5t-72 -13.5l27 120h429l16 -21q-36 -74 -74 -157.5t-77 -172t-79.5 -182.5t-82.5 -188h-114z" />
    <glyph glyph-name="eight" unicode="8" horiz-adv-x="589" 
d="M543 195q0 -43 -18 -80.5t-50 -65.5t-78 -44.5t-102 -16.5q-47 0 -92.5 11.5t-80 34.5t-55.5 58t-21 81q0 28 11.5 57t32 54.5t49 46t62.5 31.5q-25 14 -49 31t-42.5 38.5t-29.5 49.5t-11 65q0 45 19.5 80t51.5 59t73 36.5t84 12.5q47 0 87.5 -10t70 -30.5t46.5 -51.5
t17 -74q0 -54 -41.5 -97t-101.5 -65q75 -35 121.5 -82.5t46.5 -128.5zM168 574q0 -27 13.5 -48.5t36 -39t52 -32t61.5 -28.5q40 19 73 49.5t33 76.5q0 68 -38 98.5t-104 30.5q-60 0 -93.5 -32.5t-33.5 -74.5zM129 191q0 -64 45.5 -107t123.5 -43q75 0 109.5 37.5t34.5 90.5
q0 58 -56.5 92t-143.5 79q-52 -20 -82.5 -59.5t-30.5 -89.5z" />
    <glyph glyph-name="nine" unicode="9" horiz-adv-x="597" 
d="M155 -10l-16 36q100 49 171.5 125.5t96.5 189.5q-29 -27 -68 -44t-90 -17q-38 0 -74.5 13t-65 40t-46 68t-17.5 96q0 54 19 98t52 74.5t78 47.5t96 17t97.5 -16.5t81 -50.5t55 -86t20.5 -123q0 -88 -36 -163.5t-92 -135t-126 -102.5t-136 -67zM164 509q0 -84 40 -122.5
t95 -38.5q37 0 66 14.5t52 36.5q2 16 3 33t1 36q0 34 -5.5 72t-20.5 68.5t-40.5 51t-64.5 20.5q-69 0 -97.5 -50t-28.5 -121z" />
    <glyph glyph-name="colon" unicode=":" horiz-adv-x="270" 
d="M135 401q-34 0 -54.5 22t-20.5 53q0 30 20.5 52t54.5 22t54.5 -22t20.5 -52q0 -31 -20.5 -53t-54.5 -22zM135 -12q-34 0 -54.5 22t-20.5 53q0 30 20.5 52t54.5 22t54.5 -22t20.5 -52q0 -31 -20.5 -53t-54.5 -22z" />
    <glyph glyph-name="semicolon" unicode=";" horiz-adv-x="286" 
d="M164 401q-33 0 -54 22t-21 53q0 30 21 52t54 22q34 0 54.5 -22t20.5 -52q0 -31 -20.5 -53t-54.5 -22zM43 -110q17 15 28.5 40.5t19 56.5t11 67t3.5 73l119 -14q-1 -37 -15.5 -73.5t-37 -68t-52 -57.5t-61.5 -43z" />
    <glyph glyph-name="less" unicode="&#x3c;" horiz-adv-x="576" 
d="M519 96l-472 216v54l472 215v-66l-392 -176l392 -176v-67z" />
    <glyph glyph-name="equal" unicode="=" horiz-adv-x="578" 
d="M45 396v60h488v-60h-488zM45 207v59h488v-59h-488z" />
    <glyph glyph-name="greater" unicode="&#x3e;" horiz-adv-x="576" 
d="M57 96v67l392 176l-392 176v66l472 -215v-54z" />
    <glyph glyph-name="question" unicode="?" horiz-adv-x="474" 
d="M220 734q110 0 163.5 -48t53.5 -119q0 -57 -38 -95.5t-82.5 -69.5t-82.5 -60.5t-38 -67.5q0 -19 10 -34.5t20 -30.5l-47 -13q-16 16 -30.5 38.5t-14.5 59.5q0 48 28 83t61.5 66t61.5 64t28 77q0 51 -26.5 75t-76.5 24q-35 0 -50.5 -11t-22.5 -42q-5 -28 -18 -43t-36 -15
q-24 0 -38 15t-14 41q0 47 52.5 76.5t136.5 29.5zM198 -12q-34 0 -54 22t-20 51t20 50.5t54 21.5q33 0 53.5 -21.5t20.5 -50.5t-20.5 -51t-53.5 -22z" />
    <glyph glyph-name="at" unicode="@" horiz-adv-x="1004" 
d="M689 75q42 0 83.5 18t75 54t54 91t20.5 127q0 73 -18 133t-58.5 102.5t-105.5 66t-158 23.5q-94 0 -178.5 -31t-147.5 -90.5t-100 -148.5t-37 -204q0 -87 24.5 -158.5t70 -122.5t112 -79.5t150.5 -29.5q134 0 227 29t172 84l25 -43q-85 -57 -186 -87t-238 -30
q-98 0 -179.5 31.5t-139.5 87.5t-90.5 135t-32.5 172q0 116 41 213.5t114 167.5t174 109t220 39q189 0 290.5 -92t101.5 -276q0 -78 -24.5 -142.5t-68 -109.5t-104 -70t-131.5 -25q-42 0 -67 21t-26 54q-1 15 0.5 25t5.5 25h-4q-28 -51 -67.5 -88t-94.5 -37q-49 0 -83 35.5
t-34 113.5q0 65 23.5 127t64 109t96 76t118.5 29q26 0 50 -6.5t41 -22.5l52 44l33 -7l-72 -264q-15 -55 -23.5 -88.5t-8.5 -52.5q0 -17 11 -27t27 -10zM580 250l48 174q-14 13 -30.5 23t-41.5 10q-37 0 -69 -25.5t-55 -64t-36 -85.5t-13 -90q0 -55 19 -74.5t47 -19.5
q24 0 45 16t38 39t29.5 49.5t18.5 47.5z" />
    <glyph glyph-name="A" unicode="A" horiz-adv-x="663" 
d="M448 153q-7 17 -14.5 39t-16.5 46h-229q-11 -32 -19 -55.5t-11 -32.5q-18 -55 -9.5 -97.5t15.5 -52.5h-156q22 30 39.5 63t39.5 97q21 56 47 125.5t53 143t54.5 147t51.5 136.5l71 22q24 -69 51.5 -145t55 -151.5t54.5 -150t50 -139.5q15 -42 35.5 -84t40.5 -64h-202
q7 12 10 30.5t2.5 40t-4 43t-9.5 39.5zM297 555q-8 -24 -19 -55t-22.5 -65.5t-24 -70.5t-24.5 -69h190q-25 70 -51 142t-43 118h-6z" />
    <glyph glyph-name="B" unicode="B" horiz-adv-x="631" 
d="M582 202q0 -97 -70.5 -149.5t-192.5 -52.5h-253q13 40 19 92.5t6 95.5v346q0 43 -6 95.5t-19 92.5h220q123 0 190.5 -40.5t67.5 -135.5q0 -60 -34.5 -99t-95.5 -57v-3q76 -19 122 -65t46 -120zM280 669h-69v-265h69q77 0 111.5 33t34.5 106q0 75 -34.5 100.5t-111.5 25.5
zM313 356h-102v-305h102q78 0 112.5 39t34.5 113t-34.5 113.5t-112.5 39.5z" />
    <glyph glyph-name="C" unicode="C" horiz-adv-x="682" 
d="M398 46q43 0 76.5 12.5t59.5 31.5t46.5 42.5t37.5 44.5h9l-10 -124q-32 -25 -90 -45t-137 -20q-76 0 -139.5 25.5t-108.5 73.5t-70 117.5t-25 156.5q0 88 29.5 158t77.5 117.5t111 72.5t130 25q60 0 117.5 -11.5t93.5 -33.5l13 -132h-10q-44 57 -94.5 88t-119.5 31
q-100 0 -157 -80.5t-57 -225.5q0 -155 59.5 -239.5t157.5 -84.5z" />
    <glyph glyph-name="D" unicode="D" horiz-adv-x="721" 
d="M91 534q0 43 -6 95.5t-19 92.5h207q78 0 150.5 -19t128 -61t89 -111.5t33.5 -169.5t-34 -169.5t-89.5 -111.5t-128 -61t-149.5 -19h-207q13 40 19 92.5t6 95.5v346zM550 361q0 91 -23 150t-61.5 92.5t-89.5 47t-107 13.5h-58v-607h58q55 0 106 13.5t90 47.5t62 93t23 150
z" />
    <glyph glyph-name="E" unicode="E" horiz-adv-x="552" 
d="M494 0h-428q13 40 19 92.5t6 95.5v346q0 43 -6 95.5t-19 92.5h422l-4 -89q-42 18 -94.5 25.5t-96.5 7.5h-82v-259h82q32 0 74.5 4t74.5 10l-10 -87q-30 9 -70 13t-75 4h-76v-295h70q27 0 59 2.5t63 7t59.5 11.5t48.5 16z" />
    <glyph glyph-name="F" unicode="F" horiz-adv-x="547" 
d="M211 188q0 -43 6 -95.5t16 -92.5h-167q13 40 19 92.5t6 95.5v346q0 43 -6 95.5t-19 92.5h435l-4 -94q-43 18 -92 28t-108 10h-86v-261h90q31 0 74 4.5t74 10.5l-9 -87q-31 9 -71 13t-75 4h-83v-162z" />
    <glyph glyph-name="G" unicode="G" horiz-adv-x="712" 
d="M641 165v-99q-36 -34 -105.5 -56t-155.5 -22q-75 0 -136.5 25.5t-105 73.5t-67.5 117.5t-24 156.5q0 88 30 158t79.5 117.5t113 72.5t130.5 25q60 0 118 -12t94 -33l7 -134h-5q-47 53 -96 86.5t-118 33.5q-100 0 -159.5 -80t-59.5 -225q0 -155 56 -239.5t150 -84.5
q45 0 79.5 5.5t61.5 21.5v92q0 41 -5.5 88.5t-18.5 85.5h158q-10 -38 -15.5 -85.5t-5.5 -88.5z" />
    <glyph glyph-name="H" unicode="H" horiz-adv-x="741" 
d="M211 188q0 -43 6 -95.5t16 -92.5h-167q13 40 19 92.5t6 95.5v346q0 43 -6 95.5t-19 92.5h167q-10 -40 -16 -92.5t-6 -95.5v-141h319v141q0 43 -5.5 95.5t-18.5 92.5h166q-10 -40 -16 -92.5t-6 -95.5v-346q0 -43 6 -95.5t16 -92.5h-166q13 40 18.5 92.5t5.5 95.5v151h-319
v-151z" />
    <glyph glyph-name="I" unicode="I" horiz-adv-x="305" 
d="M214 188q0 -43 8.5 -95.5t22.5 -92.5h-184q16 40 24.5 92.5t8.5 95.5v346q0 43 -8.5 95.5t-24.5 92.5h184q-14 -40 -22.5 -92.5t-8.5 -95.5v-346z" />
    <glyph glyph-name="J" unicode="J" horiz-adv-x="306" 
d="M99 8v526q0 43 -5.5 95.5t-18.5 92.5h166q-10 -40 -16 -92.5t-6 -95.5v-439q0 -54 -21.5 -104t-56.5 -87.5t-80 -59.5t-91 -22q-6 0 -16 0.5t-14 1.5l-32 110q29 -14 55.5 -24t60.5 -10q37 0 56 29t19 79z" />
    <glyph glyph-name="K" unicode="K" horiz-adv-x="663" 
d="M211 188q0 -43 6 -95.5t16 -92.5h-167q13 40 19 92.5t6 95.5v346q0 43 -6 95.5t-19 92.5h167q-10 -40 -16 -92.5t-6 -95.5v-157l182 208q37 42 60.5 80t29.5 57h136q-43 -37 -84 -77t-86 -89l-133 -147l188 -241q38 -50 73 -88.5t75 -79.5h-168l-273 350v-162z" />
    <glyph glyph-name="L" unicode="L" horiz-adv-x="547" 
d="M496 0h-430q13 40 19 92.5t6 95.5v346q0 43 -6 95.5t-19 92.5h167q-10 -40 -16 -92.5t-6 -95.5v-346q0 -31 1 -63t3 -69h68q27 0 59 3t63 9t59.5 13.5t48.5 16.5z" />
    <glyph glyph-name="M" unicode="M" horiz-adv-x="900" 
d="M458 0h-43l-249 584h-5v-352q0 -67 7.5 -117.5t20.5 -114.5h-123q13 63 20 114t7 118v296q0 45 -6 99t-19 95h163l229 -545h5l210 545h159q-10 -41 -16.5 -95t-6.5 -99v-334q0 -45 6.5 -99t16.5 -95h-167q12 41 18 95t7 99v389h-4z" />
    <glyph glyph-name="N" unicode="N" horiz-adv-x="725" 
d="M637 498v-498h-79l-382 586h-5v-354q0 -67 7.5 -117.5t20.5 -114.5h-124q13 63 20.5 114t7.5 118v277q0 43 -3 72.5t-9.5 52.5t-17.5 43t-28 45h176l344 -522h4v298q0 22 -2 52t-5.5 61.5t-9 61t-11.5 49.5h123q-6 -20 -11 -49.5t-8.5 -61t-5.5 -61.5t-2 -52z" />
    <glyph glyph-name="O" unicode="O" horiz-adv-x="766" 
d="M382 733q66 0 127 -23t107.5 -68.5t74.5 -113.5t28 -157q0 -93 -30.5 -165t-78 -120t-107.5 -73t-119 -25q-66 0 -127.5 23t-107.5 68.5t-74 114t-28 157.5q0 93 30.5 164.5t78 119.5t107.5 73t119 25zM384 44q88 0 146 74t58 243q0 84 -15.5 144.5t-43 98.5t-65.5 55.5
t-82 17.5q-87 0 -145.5 -74.5t-58.5 -243.5q0 -84 16 -144t43.5 -98t65 -55.5t81.5 -17.5z" />
    <glyph glyph-name="P" unicode="P" horiz-adv-x="581" 
d="M211 188q0 -43 6 -95.5t16 -92.5h-167q13 40 19 92.5t6 95.5v346q0 43 -6 95.5t-19 92.5h227q122 0 188 -53t66 -150t-66 -150t-188 -53h-82v-128zM286 667h-75v-298h75q77 0 108 38t31 112t-31 111t-108 37z" />
    <glyph glyph-name="Q" unicode="Q" horiz-adv-x="766" 
d="M382 734q66 0 127 -23t107.5 -68.5t74.5 -114t28 -157.5q0 -73 -20 -133t-52.5 -105.5t-75.5 -77t-88 -47.5l76 -19q46 -12 99.5 -23t107.5 -10l-86 -102q-64 19 -131.5 43t-128 47t-110.5 44t-78 35q-80 39 -132.5 121.5t-52.5 206.5q0 93 30.5 165t78 120t107.5 73
t119 25zM384 44q88 0 146.5 74t58.5 243q0 84 -16 144.5t-43.5 98.5t-65.5 56t-82 18t-81.5 -18t-65 -56.5t-43 -99.5t-15.5 -145t16 -144t43.5 -98t65.5 -55.5t82 -17.5z" />
    <glyph glyph-name="R" unicode="R" horiz-adv-x="647" 
d="M211 188q0 -43 6 -95.5t16 -92.5h-167q13 40 19 92.5t6 95.5v346q0 43 -6 95.5t-19 92.5h235q122 0 190.5 -51.5t68.5 -147.5q0 -69 -37 -117.5t-104 -70.5q39 -74 69.5 -124t72.5 -112q16 -22 41 -52.5t44 -46.5h-167q-43 70 -92 155.5t-92 163.5h-84v-131zM292 667h-81
v-295h81q78 0 111.5 38.5t33.5 112.5t-33.5 109t-111.5 35z" />
    <glyph glyph-name="S" unicode="S" horiz-adv-x="555" 
d="M283 734q67 0 104.5 -12t67.5 -26l7 -119h-5q-29 45 -78 72.5t-106 27.5q-56 0 -85 -26t-29 -73t32.5 -78t122.5 -73q86 -40 142.5 -86.5t56.5 -136.5q0 -42 -14.5 -81.5t-45 -69t-78.5 -47.5t-115 -18q-60 0 -113 12.5t-97 36.5l-8 137h5q37 -52 95 -91t120 -39
q69 0 104.5 29t35.5 82q0 57 -33.5 92t-105.5 71q-47 22 -86.5 42.5t-67.5 45.5t-44 58.5t-16 81.5q0 82 63 135t171 53z" />
    <glyph glyph-name="T" unicode="T" horiz-adv-x="625" 
d="M370 188q0 -43 6 -95.5t16 -92.5h-167q13 40 19 92.5t6 95.5v478h-34q-40 0 -93.5 -10.5t-96.5 -28.5l9 98q35 -1 83 -2t86 -1h219q38 0 89.5 1t86.5 2l-13 -98q-43 18 -88 28.5t-94 10.5h-34v-478z" />
    <glyph glyph-name="U" unicode="U" horiz-adv-x="721" 
d="M569 240v258q0 22 -2 52t-5.5 61.5t-9 61t-11.5 49.5h124q-6 -20 -11 -49.5t-8.5 -61t-5.5 -61.5t-2 -52v-258q0 -62 -20.5 -109.5t-56.5 -79t-85.5 -47.5t-106.5 -16t-109.5 14t-91.5 44.5t-62.5 78.5t-23.5 116v293q0 43 -5.5 95.5t-18.5 92.5h166q-10 -40 -16 -92.5
t-6 -95.5v-291q0 -108 51 -148t137 -40q80 0 129.5 44t49.5 141z" />
    <glyph glyph-name="V" unicode="V" horiz-adv-x="634" 
d="M222 560l122 -397h8l123 376q18 54 27 98t0 85h118q-20 -44 -40.5 -94t-40.5 -109q-15 -42 -38.5 -109.5t-49 -141.5t-51 -146.5t-43.5 -123.5h-78q-17 52 -41.5 125t-49.5 147t-48 142t-37 111q-22 66 -40.5 110.5t-44.5 88.5h186q-3 -24 -3.5 -42t1.5 -35.5t7 -37.5
t13 -47z" />
    <glyph glyph-name="W" unicode="W" horiz-adv-x="936" 
d="M214 548l81 -360h3l165 534h64l157 -534h3l89 337q13 53 20.5 104.5t-2.5 92.5h117q-19 -46 -35.5 -95t-32.5 -108l-140 -521h-73l-161 520h-5l-165 -520h-74l-131 525q-16 66 -30.5 108.5t-36.5 90.5h178q-4 -43 -3.5 -81.5t12.5 -92.5z" />
    <glyph glyph-name="X" unicode="X" horiz-adv-x="667" 
d="M216 154q-20 -31 -39 -69t-39 -85h-115q21 29 36.5 50.5t29 40.5t27.5 39.5t33 47.5l123 176l-121 190q-37 58 -63.5 96t-60.5 82h166q14 -37 30 -70t40 -70l82 -125l76 116q26 39 46.5 74.5t34.5 74.5h114q-40 -50 -69 -88.5t-66 -92.5l-98 -143l94 -147
q19 -29 40.5 -63t43.5 -67.5t44 -65t40 -55.5h-161q-19 43 -44 87.5t-59 97.5l-71 112z" />
    <glyph glyph-name="Y" unicode="Y" horiz-adv-x="624" 
d="M374 188q0 -43 6 -95.5t16 -92.5h-167q13 40 19 92.5t6 95.5v120l-144 262q-28 50 -47.5 80.5t-50.5 71.5h174q4 -31 14 -56.5t34 -71.5l106 -205h5l91 177q25 49 38 82.5t22 73.5h118q-35 -49 -65 -95t-57 -95l-118 -221v-123z" />
    <glyph glyph-name="Z" unicode="Z" horiz-adv-x="620" 
d="M563 0h-524l-9 26l408 640h-172q-19 0 -45.5 -3t-54 -8.5t-54.5 -13.5t-48 -17l9 101q35 -1 82.5 -2t84.5 -1h339l11 -19l-408 -647h186q22 0 48.5 2.5t54 7t53.5 11.5t47 15z" />
    <glyph glyph-name="bracketleft" unicode="[" horiz-adv-x="360" 
d="M85 -130v901h244l-3 -53l-142 7v-809l145 7l-4 -53h-240z" />
    <glyph glyph-name="backslash" unicode="\" horiz-adv-x="374" 
d="M403 -130h-72l-325 901h72z" />
    <glyph glyph-name="bracketright" unicode="]" horiz-adv-x="360" 
d="M274 -130h-240l-4 53l146 -7v809l-143 -7l-3 53h244v-901z" />
    <glyph glyph-name="asciicircum" unicode="^" horiz-adv-x="428" 
d="M216 579h-3l-124 -122l-32 25l131 193h53l131 -193l-32 -25z" />
    <glyph glyph-name="underscore" unicode="_" horiz-adv-x="347" 
d="M-6 -180v63h359v-63h-359z" />
    <glyph glyph-name="grave" unicode="`" horiz-adv-x="508" 
d="M179 757q52 -33 101 -66t94 -61l-15 -34q-54 18 -109 36.5t-110 35.5z" />
    <glyph glyph-name="a" unicode="a" horiz-adv-x="518" 
d="M115 376q-19 0 -35 12.5t-16 37.5q0 27 17.5 49.5t45.5 38.5t64 24.5t73 8.5q95 0 135 -40.5t40 -120.5v-205q0 -43 3 -93t15 -88h-114q-2 16 -3.5 38.5t-1.5 36.5h-4q-19 -35 -52.5 -61t-94.5 -26q-66 0 -104.5 38t-39.5 95q-1 49 33 86t104 62l151 52v72q0 54 -24.5 77
t-70.5 23q-30 0 -44.5 -11.5t-20.5 -41.5q-7 -34 -20 -49t-36 -15zM154 138q0 -38 21.5 -60t58.5 -22t62 19t35 43v164l-94 -37q-44 -18 -63.5 -41t-19.5 -66z" />
    <glyph glyph-name="b" unicode="b" horiz-adv-x="607" 
d="M179 623v-163h3q14 31 65.5 59t117.5 28q89 0 142 -67t53 -195q0 -61 -16 -115.5t-49 -94.5t-84 -63.5t-122 -23.5q-63 0 -117.5 13t-99.5 38v566q0 43 -11 78t-27 51l143 48l8 -6zM180 76q16 -13 49.5 -24t60.5 -11q78 0 115 59.5t37 167.5q0 99 -32 148.5t-104 49.5
q-34 0 -72.5 -16.5t-53.5 -36.5v-337z" />
    <glyph glyph-name="c" unicode="c" horiz-adv-x="512" 
d="M476 117q-7 -24 -22.5 -47t-39 -41t-56.5 -29.5t-75 -11.5q-50 0 -94.5 18t-76.5 52t-51 83.5t-19 112.5q0 72 23 126.5t60 91.5t84.5 55.5t97.5 18.5q88 0 125.5 -33t37.5 -71q0 -28 -14 -44t-42 -16q-25 0 -37.5 16.5t-16.5 47.5q-2 31 -13 39.5t-45 8.5
q-61 0 -106 -55.5t-45 -152.5q0 -108 46.5 -160.5t121.5 -52.5q51 0 90.5 16.5t64.5 44.5z" />
    <glyph glyph-name="d" unicode="d" horiz-adv-x="615" 
d="M307 547q37 0 68 -7t47 -17v80q0 44 -13 79t-29 52l148 47l8 -6q-4 -33 -5.5 -64t-1.5 -78v-474q0 -60 6 -95.5t15 -63.5h-123l-2 80h-4q-16 -37 -54 -64.5t-101 -27.5q-42 0 -81.5 16.5t-70.5 49.5t-49.5 83t-18.5 115q0 75 24.5 131t62 92t84 54t90.5 18zM422 123v280
q-1 43 -34.5 67t-88.5 24q-60 0 -100 -53t-40 -154q0 -110 44 -167t105 -57q40 0 71 18.5t43 41.5z" />
    <glyph glyph-name="e" unicode="e" horiz-adv-x="532" 
d="M494 122q-19 -52 -71 -93t-140 -41q-47 0 -91 16.5t-77 49.5t-53 83.5t-20 116.5q0 65 18 119t50 92.5t76.5 60t96.5 21.5q107 0 157.5 -65t50.5 -190h-340v-12q0 -111 49.5 -158t125.5 -47q69 0 108 22.5t58 43.5zM281 495q-53 0 -85.5 -40.5t-41.5 -116.5l225 6
q-2 72 -21.5 111.5t-76.5 39.5z" />
    <glyph glyph-name="f" unicode="f" horiz-adv-x="361" 
d="M201 181q0 -49 5 -97t16 -84h-147q12 38 15.5 88t3.5 93v286h-63v8l63 52v43q0 52 16 91.5t43 65.5t63.5 39.5t77.5 13.5q59 0 92.5 -23t33.5 -58q0 -24 -13.5 -37.5t-34.5 -13.5q-20 0 -32.5 11.5t-19.5 36.5q-6 18 -12.5 26.5t-23.5 8.5q-33 0 -58 -24.5t-25 -84.5v-87
h129l-12 -68h-117v-286z" />
    <glyph glyph-name="g" unicode="g" horiz-adv-x="582" 
d="M260 175q-22 0 -44 3.5t-42 10.5q-16 -10 -23 -21.5t-7 -27.5q0 -19 13.5 -30t39.5 -11q24 0 52 1t57 1.5t57.5 1.5t52.5 1q66 0 103 -31t37 -91q0 -44 -22 -80.5t-62 -62t-97 -39.5t-126 -14q-122 0 -177.5 35t-55.5 77q0 43 36 71t84 41v4q-25 4 -49.5 26t-24.5 61
q0 38 22 63t54 35v4q-42 22 -68 60.5t-26 91.5q0 44 17.5 79.5t47 60.5t69 38.5t82.5 13.5q35 0 68.5 -8t60.5 -24l161 48v-103q-22 3 -55.5 9.5t-61.5 7.5q20 -20 32 -47t12 -61q0 -44 -18 -80t-47.5 -61t-69 -39t-82.5 -14zM258 497q-47 0 -76 -33t-29 -107
q0 -65 31.5 -98.5t77.5 -33.5t77 34t31 108q0 65 -33 97.5t-79 32.5zM114 -87q0 -37 33 -58.5t102 -21.5q110 0 167 33t57 74q0 37 -19.5 50t-53.5 13q-22 0 -56 -1t-68.5 -2.5t-62.5 -2.5t-38 -2q-25 -4 -43 -27t-18 -55z" />
    <glyph glyph-name="h" unicode="h" horiz-adv-x="598" 
d="M519 181q0 -43 3.5 -93t15.5 -88h-144q11 36 14 80t3 93v206q0 43 -23 62.5t-70 19.5q-37 0 -69 -10t-55 -34v-244q0 -49 3 -93t14 -80h-143q12 38 15 88t3 93v424q0 44 -11 78.5t-27 51.5l143 47l8 -6l-5 -158v-160h3q19 37 66 63t108 26q81 0 114.5 -37t33.5 -116v-213
z" />
    <glyph glyph-name="i" unicode="i" horiz-adv-x="286" 
d="M143 616q-30 0 -49 19t-19 47t19 47t49 19q31 0 50 -19t19 -47t-19 -47t-50 -19zM217 0h-146q12 38 15.5 88t3.5 93v188q0 43 -12 79.5t-29 52.5l146 43l8 -6q-1 -5 -2 -25t-1.5 -43t-1 -43t-0.5 -26v-220q0 -43 3.5 -93t15.5 -88z" />
    <glyph glyph-name="j" unicode="j" horiz-adv-x="286" 
d="M148 616q-31 0 -50 19t-19 47t19 47t50 19q30 0 49 -19t19 -47t-19 -47t-49 -19zM95 -42v411q0 43 -12 79.5t-29 52.5l145 43l8 -6q0 -5 -1 -25t-1.5 -43t-1 -43t-0.5 -26v-367q0 -53 -12.5 -98t-37.5 -77.5t-62 -51t-86 -18.5q-43 0 -72.5 17.5t-29.5 50.5q0 21 12 36.5
t37 15.5q28 0 38 -16t13 -37q1 -10 4 -13.5t12 -3.5q34 0 55 32t21 87z" />
    <glyph glyph-name="k" unicode="k" horiz-adv-x="545" 
d="M212 0h-144q12 38 15 88t3 93v428q0 43 -11.5 76t-29.5 50l145 47l8 -6q0 -5 -1 -25t-1.5 -43t-1 -43t-0.5 -26v-355l130 143q31 34 44.5 60t19.5 48h116q-31 -28 -59 -58t-61 -65l-95 -101l131 -174q28 -37 58.5 -70.5t64.5 -66.5h-146l-203 267v-86q0 -43 3 -93t15 -88
z" />
    <glyph glyph-name="l" unicode="l" horiz-adv-x="285" 
d="M215 0h-145q12 38 15.5 88t3.5 93v421q0 43 -12 79.5t-29 53.5l145 47l8 -6q0 -5 -1 -24.5t-2 -42t-1.5 -42.5t-0.5 -26v-460q0 -43 3.5 -93t15.5 -88z" />
    <glyph glyph-name="m" unicode="m" horiz-adv-x="905" 
d="M194 173q0 -49 3 -93t14 -80h-144q12 38 15.5 88t3.5 93v188q0 43 -12 79.5t-29 52.5l137 43l8 -6l-3 -86h4q19 38 66.5 66.5t108.5 28.5q66 0 96.5 -22.5t40.5 -72.5h4q19 37 68 66t107 29q81 0 112.5 -37t31.5 -116v-213q0 -43 3.5 -93t15.5 -88h-144q11 36 14 80t3 93
v206q0 43 -20.5 62.5t-67.5 19.5q-37 0 -68 -13t-53 -36q1 -4 1 -9v-9v-221q0 -49 3 -93t14 -80h-139q10 36 12 80t2 93q1 0 1 32.5v71t-0.5 70.5l-0.5 32q0 43 -20.5 62.5t-67.5 19.5q-37 0 -66.5 -12.5t-53.5 -36.5v-239z" />
    <glyph glyph-name="n" unicode="n" horiz-adv-x="597" 
d="M45 501l141 43l4 -3l-3 -90h4q19 38 69 67t111 29q81 0 114 -37.5t33 -116.5v-212q0 -43 3.5 -93t15.5 -88h-144q11 36 14 80t3 93v206q0 43 -22.5 62.5t-69.5 19.5q-37 0 -68.5 -12.5t-55.5 -36.5v-239q0 -49 3 -93t14 -80h-144q12 38 15.5 88t3.5 93v188q0 43 -12 79.5
t-29 52.5z" />
    <glyph glyph-name="o" unicode="o" horiz-adv-x="605" 
d="M307 -12q-55 0 -103.5 19.5t-84 55t-56.5 86.5t-21 113q0 65 21 118t56.5 89.5t82 56.5t96.5 20q55 0 103.5 -19.5t84 -55t56.5 -86t21 -112.5q0 -65 -21 -118t-56.5 -90t-82 -57t-96.5 -20zM298 494q-61 0 -99 -55t-38 -165q0 -114 41.5 -173.5t104.5 -59.5q61 0 99 55
t38 165q0 114 -41.5 173.5t-104.5 59.5z" />
    <glyph glyph-name="p" unicode="p" horiz-adv-x="618" 
d="M194 -27q0 -49 5 -97t16 -84h-148q12 38 15.5 88t3.5 93v396q0 43 -12 79.5t-29 52.5l145 43l4 -3l-2 -83h3q13 31 57 60t110 29q44 0 82.5 -16.5t66.5 -48.5t44 -81.5t16 -114.5q0 -55 -15.5 -109t-48 -95.5t-83 -67.5t-120.5 -26q-29 0 -57 4t-53 12v-31zM194 85
q16 -16 44 -29.5t66 -13.5q80 0 116 60.5t36 168.5q0 99 -36.5 149t-108.5 50q-33 0 -68 -19t-49 -38v-328z" />
    <glyph glyph-name="q" unicode="q" horiz-adv-x="611" 
d="M421 -27v103h-3q-16 -35 -53.5 -61.5t-100.5 -26.5q-42 0 -81.5 16.5t-69.5 49.5t-48.5 82.5t-18.5 114.5q0 75 24.5 131t63 92.5t86 54.5t93.5 18q42 0 81.5 -15.5t56.5 -39.5h6l56 56l16 -3v-572q0 -49 5 -97t16 -84h-147q12 38 15 88t3 93zM421 121v265
q-1 43 -32 75.5t-86 32.5q-60 0 -101.5 -53t-41.5 -154q0 -110 43 -165t103 -55q40 0 72.5 17.5t42.5 36.5z" />
    <glyph glyph-name="r" unicode="r" horiz-adv-x="415" 
d="M197 541l-3 -116h5q7 22 19 44t29 39t40 28t52 11q9 0 24.5 -2.5t20.5 -4.5l-10 -108h-5q-9 6 -27 11.5t-37 5.5q-51 0 -77 -35t-26 -81v-156q0 -50 3.5 -95.5t14.5 -81.5h-145q12 38 15.5 88t3.5 93v188q0 43 -12 79.5t-29 52.5l140 43z" />
    <glyph glyph-name="s" unicode="s" horiz-adv-x="453" 
d="M230 546q52 0 86 -7.5t54 -17.5l5 -104h-6q-31 34 -63 55.5t-76 21.5q-34 0 -61 -15.5t-27 -50.5q0 -34 24.5 -54.5t90.5 -48.5q65 -28 110.5 -63t45.5 -99q0 -32 -10.5 -63.5t-34 -56t-61.5 -40t-92 -15.5q-44 0 -86.5 9t-76.5 28l-6 122h9q28 -39 70.5 -72.5
t88.5 -33.5q56 0 80 20.5t24 59.5q0 43 -27 62t-88 46q-67 29 -110.5 63t-43.5 101q0 65 50 109t131 44z" />
    <glyph glyph-name="t" unicode="t" horiz-adv-x="383" 
d="M360 84q-1 -12 -3 -18.5t-6 -16.5q-11 -27 -40.5 -44t-76.5 -17q-73 0 -110 37.5t-37 113.5v328h-71v9l171 171l8 -6v-106h146l-12 -68h-134v-321q0 -43 23.5 -61t58.5 -18q25 0 46 4.5t37 12.5z" />
    <glyph glyph-name="u" unicode="u" horiz-adv-x="599" 
d="M79 378q0 34 -4.5 73.5t-15.5 72.5l128 17v-372q0 -49 21 -77.5t72 -28.5q44 0 77 21t48 46v248q0 34 -4.5 73.5t-16.5 72.5l129 17v-390q0 -61 6 -92t15 -59h-123l-1 82h-3q-7 -15 -20.5 -32t-34 -30.5t-49 -22.5t-65.5 -9q-88 0 -123.5 48.5t-35.5 127.5v214z" />
    <glyph glyph-name="v" unicode="v" horiz-adv-x="531" 
d="M171 535q0 -31 8.5 -68t23.5 -78l87 -230h4l86 233q13 37 21 77t-2 66h114q-14 -26 -36 -71t-38 -87l-151 -383h-45l-156 390q-18 46 -33.5 81t-34.5 70h152z" />
    <glyph glyph-name="w" unicode="w" horiz-adv-x="752" 
d="M166 535q-3 -29 3 -66.5t18 -78.5l62 -218h4l122 363h48l123 -363h4l61 208q11 39 16 83.5t-1 71.5h108q-13 -31 -30.5 -76t-33.5 -94l-114 -371h-49l-129 361h-4l-127 -361h-49l-120 382q-15 48 -30 86.5t-30 72.5h148z" />
    <glyph glyph-name="x" unicode="x" horiz-adv-x="551" 
d="M186 121q-15 -23 -33 -54.5t-31 -66.5h-98q33 44 52.5 71.5t47.5 67.5l90 129l-90 133q-29 43 -51 72.5t-48 61.5h146q11 -25 26 -51.5t33 -52.5l60 -88l61 90q19 28 33 52.5t22 49.5h104q-31 -34 -55.5 -65t-52.5 -70l-77 -110l69 -102q30 -43 64.5 -92.5t68.5 -95.5
h-145q-15 33 -35.5 66.5t-46.5 72.5l-51 77z" />
    <glyph glyph-name="y" unicode="y" horiz-adv-x="526" 
d="M232 15l-149 382q-18 46 -33 77t-31 61h154q-2 -31 5 -61.5t24 -78.5l85 -243h4l87 249q14 40 18 73t-1 61h113q-15 -30 -32.5 -66.5t-37.5 -88.5l-119 -317q-53 -139 -104.5 -207.5t-121.5 -68.5q-33 0 -50 15.5t-17 39.5q0 22 13.5 35t34.5 13q23 0 34 -8.5t26 -8.5
q22 0 49 38.5t49 103.5z" />
    <glyph glyph-name="z" unicode="z" horiz-adv-x="505" 
d="M458 0h-420l-8 32l301 447h-96q-46 0 -97 -11t-87 -24l12 91h400l10 -28l-305 -452h121q49 0 97 11t85 27z" />
    <glyph glyph-name="braceleft" unicode="{" horiz-adv-x="347" 
d="M127 323v-4q61 -11 83.5 -46.5t22.5 -80.5q0 -23 -3.5 -42t-8 -39t-8 -43.5t-3.5 -55.5q0 -36 16.5 -70t81.5 -40v-32q-54 2 -92.5 16.5t-62 37.5t-34.5 51.5t-11 58.5q0 22 8 49.5t17 54.5l17 51t8 39q0 31 -24.5 53.5t-81.5 25.5v29q55 3 80.5 26.5t25.5 54.5
q0 15 -8 39.5t-17 52.5t-17 57t-8 51q0 60 45.5 105t154.5 49v-32q-65 -7 -81.5 -35.5t-16.5 -64.5q0 -63 11.5 -102t11.5 -85q0 -45 -24.5 -80.5t-81.5 -48.5z" />
    <glyph glyph-name="bar" unicode="|" horiz-adv-x="258" 
d="M95 -130v880h68v-880h-68z" />
    <glyph glyph-name="braceright" unicode="}" horiz-adv-x="344" 
d="M217 323q-57 13 -81 48.5t-24 80.5q0 46 11 85t11 102q0 36 -16.5 64.5t-81.5 35.5v32q109 -4 154.5 -49t45.5 -105q0 -22 -8 -51t-17 -57t-17 -52.5t-8 -39.5q0 -31 25.5 -54.5t81.5 -26.5v-29q-57 -3 -82 -25.5t-25 -53.5q0 -15 8 -39l17 -51t17 -54.5t8 -49.5
q0 -30 -11 -58.5t-34.5 -51.5t-62 -37.5t-92.5 -16.5v32q65 6 81.5 40t16.5 70q0 32 -3.5 55.5t-7.5 43.5t-7.5 39t-3.5 42q0 45 22 80.5t83 46.5v4z" />
    <glyph glyph-name="asciitilde" unicode="~" horiz-adv-x="422" 
d="M290 341q17 0 33.5 10t26.5 38l29 -9q-13 -53 -39 -85.5t-66 -32.5q-18 0 -36.5 5t-37 11t-36 11t-31.5 5q-19 0 -35 -11t-25 -38l-30 8q12 52 38 85.5t67 33.5q35 0 74.5 -15.5t67.5 -15.5z" />
    <glyph glyph-name="uni00A0" unicode="&#xa0;" horiz-adv-x="176" 
 />
    <glyph glyph-name="exclamdown" unicode="&#xa1;" horiz-adv-x="318" 
d="M159 559q34 0 55 -22t21 -51t-21 -50.5t-55 -21.5t-55 21.5t-21 50.5t21 51t55 22zM77 -175q9 40 14 92.5t9 95.5l27 334h64l27 -334q4 -43 9 -95.5t14 -92.5h-164z" />
    <glyph glyph-name="cent" unicode="&#xa2;" horiz-adv-x="500" 
d="M477 117q-7 -22 -21 -44t-35.5 -40t-50.5 -30t-67 -14q-1 -25 0.5 -51.5t2.5 -57.5h-70q4 27 6.5 56t3.5 55q-90 12 -149 81t-59 182q0 63 18.5 113t49 86.5t71 58.5t83.5 30q1 26 -0.5 53.5t-3.5 58.5h67q-3 -31 -5 -57.5t-3 -50.5q84 -1 121 -34t37 -70q0 -28 -14 -44
t-42 -16q-25 0 -37.5 17.5t-15.5 48.5q-3 28 -14.5 37.5t-36.5 10.5l-9 -424h8q51 0 94 17t68 45zM144 286q0 -84 27.5 -135t77.5 -69l10 408q-48 -16 -81.5 -69t-33.5 -135z" />
    <glyph glyph-name="sterling" unicode="&#xa3;" horiz-adv-x="564" 
d="M238 317q-4 -57 -26 -120t-77 -106h193q51 0 96 5.5t88 12.5l-13 -109h-465l-5 23q58 69 73.5 134t21.5 142l3 38q-23 0 -43.5 -1t-57.5 -2l5 67q37 -1 58 -1.5t43 -0.5l2 25q12 151 78.5 230t166.5 79q53 0 87.5 -7.5t54.5 -17.5l-22 -85h-5q-17 19 -47.5 38t-66.5 19
q-71 0 -98 -52t-32 -133l-6 -96h45q34 0 56 1t67 3l-5 -70q-29 1 -60.5 2.5t-65.5 1.5h-42z" />
    <glyph glyph-name="currency" unicode="&#xa4;" horiz-adv-x="532" 
d="M93 357q0 31 8 57t23 47l-77 79l41 41l78 -79q22 14 47.5 21.5t53.5 7.5t53.5 -7.5t46.5 -21.5l78 79l41 -41l-77 -79q14 -21 23 -47t9 -57q0 -30 -8.5 -55.5t-23.5 -46.5l77 -79l-41 -41l-78 80q-21 -15 -46.5 -22.5t-53.5 -7.5t-54 7.5t-47 21.5l-78 -79l-41 41l77 79
q-15 20 -23 46t-8 56zM375 358q0 52 -31 84t-77 32t-77 -32t-31 -84q0 -51 31 -83t77 -32t77 32t31 83z" />
    <glyph glyph-name="yen" unicode="&#xa5;" horiz-adv-x="624" 
d="M431 231q34 0 58.5 1t69.5 3l-5 -61q-29 1 -60.5 2.5t-65.5 1.5h-53q1 -43 6 -92t15 -86h-157q12 37 17.5 86t6.5 92h-62q-34 0 -56 -0.5t-67 -2.5l5 58l69 -1.5t57 -0.5h54v78h-62q-34 0 -56 -0.5t-67 -2.5l5 59l69 -1.5t57 -0.5h30l-106 207q-26 51 -42.5 81t-47.5 71
h159q6 -31 13.5 -56t30.5 -72l92 -196h5l87 180q19 39 27.5 71.5t16.5 72.5h116q-34 -49 -57 -88t-48 -90l-88 -181h34q34 0 58.5 1t69.5 3l-5 -62q-29 1 -60.5 2.5t-65.5 1.5h-53v-78h56z" />
    <glyph glyph-name="brokenbar" unicode="&#xa6;" horiz-adv-x="251" 
d="M95 359v391h60v-391h-60zM95 -130v391h60v-391h-60z" />
    <glyph glyph-name="section" unicode="&#xa7;" horiz-adv-x="519" 
d="M93 -95l-7 105h6q31 -39 58.5 -58.5t71.5 -19.5q46 0 72.5 23.5t26.5 58.5q0 42 -32.5 70t-95.5 70q-69 46 -111.5 87t-42.5 103q0 51 26.5 89t72.5 60q-11 17 -17 37.5t-6 45.5q0 65 48.5 111t126.5 46q51 0 83 -7t48 -14l7 -105h-6q-31 37 -59.5 55.5t-70.5 18.5
q-38 0 -64 -21.5t-26 -56.5q0 -42 30 -69t94 -68q70 -45 112 -84.5t42 -101.5q0 -50 -27 -89t-71 -61q13 -19 20.5 -40t7.5 -47q0 -33 -13.5 -63t-38 -52t-59 -35.5t-75.5 -13.5q-51 0 -80.5 8t-50.5 18zM257 232q25 -17 48 -33.5t42 -32.5q22 12 35.5 29.5t13.5 43.5
q0 44 -32 74t-103 76q-26 17 -49 33.5t-41 32.5q-23 -11 -36 -28.5t-13 -45.5q0 -43 33 -73t102 -76z" />
    <glyph glyph-name="dieresis" unicode="&#xa8;" horiz-adv-x="508" 
d="M157 607q-26 0 -41.5 17t-15.5 40t15.5 41t41.5 18q27 0 42.5 -18t15.5 -41t-15.5 -40t-42.5 -17zM351 607q-27 0 -42.5 17t-15.5 40t15.5 41t42.5 18q26 0 41.5 -18t15.5 -41t-15.5 -40t-41.5 -17z" />
    <glyph glyph-name="copyright" unicode="&#xa9;" horiz-adv-x="855" 
d="M49 360q0 77 29 145.5t79.5 119t120 80t149.5 29.5t149.5 -29.5t120 -80t79.5 -119t29 -145.5t-29 -145.5t-79.5 -119t-120 -80t-149.5 -29.5t-149.5 29.5t-120 80t-79.5 119t-29 145.5zM754 360q0 67 -24.5 128t-68 106t-103.5 72t-131 27t-131 -27t-103.5 -72t-68 -106
t-24.5 -128t24.5 -128t68 -106t103.5 -72t131 -27t131 27t103.5 72t68 106t24.5 128zM443 194q48 0 77 24.5t48 47.5h5l-5 -73q-18 -13 -52 -24.5t-82 -11.5q-92 0 -149 55t-57 151q0 50 18 88.5t47.5 64t67.5 39t78 13.5q36 0 68.5 -6.5t53.5 -17.5l8 -77h-6
q-25 31 -54.5 47.5t-69.5 16.5q-57 0 -87.5 -43t-30.5 -120q0 -82 32.5 -128t89.5 -46z" />
    <glyph glyph-name="ordfeminine" unicode="&#xaa;" horiz-adv-x="341" 
d="M78 621q-12 0 -22.5 8.5t-10.5 24.5t11.5 30.5t30 25t41.5 17t45 6.5q57 0 84 -26t27 -74v-117q0 -26 2.5 -57t9.5 -54h-78q-1 10 -2 22t-1 20h-3q-10 -19 -31.5 -34t-58.5 -15q-40 0 -63.5 23t-24.5 57q0 30 21.5 53t63.5 37l91 32v39q0 33 -14 44.5t-42 11.5
q-17 0 -26 -8.5t-13 -25.5q-4 -20 -14 -30t-23 -10zM108 488q0 -22 12 -33.5t34 -11.5t36 12.5t20 27.5v88l-55 -21q-26 -10 -36.5 -23t-10.5 -39z" />
    <glyph glyph-name="guillemotleft" unicode="&#xab;" horiz-adv-x="503" 
d="M53 271v28l186 154l20 -18l-106 -148v-5l106 -146l-21 -18zM255 271v28l186 154l20 -18l-106 -148v-5l106 -146l-21 -18z" />
    <glyph glyph-name="logicalnot" unicode="&#xac;" horiz-adv-x="576" 
d="M501 442v-278h-67v217h-379v61h446z" />
    <glyph glyph-name="registered" unicode="&#xae;" horiz-adv-x="522" 
d="M36 505q0 49 17 90.5t47 72t71 48t90 17.5t90.5 -17.5t71 -48t46.5 -72t17 -90.5t-17 -91t-46.5 -72.5t-71 -48t-90.5 -17.5t-90 17.5t-71 48t-47 72.5t-17 91zM450 505q0 84 -52 141t-137 57t-137 -57t-52 -141q0 -85 52 -142t137 -57t137 57t52 142zM229 451
q0 -16 3 -35t7 -34h-73q4 15 7 34t3 35v124q0 16 -3 34.5t-7 32.5h94q44 0 71 -18t27 -52q0 -26 -12.5 -44t-37.5 -25q15 -27 25 -43.5t26 -38.5q5 -8 14 -19t17 -20h-72q-15 26 -33 55.5t-33 57.5h-23v-44zM256 613h-27v-90h27q23 0 34 10.5t11 37.5q0 23 -11 32.5t-34 9.5
z" />
    <glyph glyph-name="macron" unicode="&#xaf;" horiz-adv-x="508" 
d="M254 672h33.5t28.5 0.5t30.5 0.5h40.5l-5 -58q-25 0 -37.5 0.5t-23 0.5h-25h-43.5h-33.5t-29 -0.5t-31 -0.5h-40.5l5 58q25 0 40.5 -0.5t28 -0.5h26.5h35z" />
    <glyph glyph-name="degree" unicode="&#xb0;" horiz-adv-x="433" 
d="M43 560q0 77 51 125t123 48q35 0 67 -12.5t55.5 -35.5t37 -55t13.5 -70t-13.5 -69.5t-37 -54t-55.5 -35t-67 -12.5q-72 0 -123 48t-51 123zM326 560q0 53 -31.5 85.5t-77.5 32.5t-78 -32.5t-32 -85.5q0 -51 32 -83.5t78 -32.5t77.5 32.5t31.5 83.5z" />
    <glyph glyph-name="plusminus" unicode="&#xb1;" horiz-adv-x="576" 
d="M531 345h-209v-206h-68v206h-209v61h209v205h68v-205h209v-61zM531 0h-486v61h486v-61z" />
    <glyph glyph-name="two.sup" unicode="&#xb2;" horiz-adv-x="455" 
d="M375 686q0 -40 -23 -79t-57 -73.5t-73 -65t-71 -54.5h104q44 0 85 7.5t61 15.5l-19 -97h-320l-11 28q47 43 88.5 82t72.5 76t49 72.5t18 70.5q0 34 -21 58.5t-69 24.5q-37 0 -63 -15t-47 -46l-18 10q18 48 59 82t106 34q75 0 112 -37.5t37 -93.5z" />
    <glyph glyph-name="three.sup" unicode="&#xb3;" horiz-adv-x="455" 
d="M297 489q0 40 -21 59.5t-64 19.5q-16 0 -30 -4.5t-27 -10.5l-12 23q46 22 83 45.5t37 66.5q0 31 -19 48.5t-61 17.5q-36 0 -58 -15.5t-40 -40.5l-17 8q13 46 51.5 78.5t95.5 32.5q65 0 103 -26.5t38 -80.5q0 -39 -28.5 -64t-65.5 -41v-2q64 -2 97 -33t33 -75
q0 -43 -15.5 -74t-42.5 -51t-63 -29t-76 -9q-34 0 -71 6.5t-59 18.5l-6 71q22 -19 58.5 -38t64.5 -19q60 0 87.5 29t27.5 89z" />
    <glyph glyph-name="acute" unicode="&#xb4;" horiz-adv-x="508" 
d="M333 757l39 -89q-55 -17 -110 -35.5t-109 -36.5l-15 34q45 28 94 61t101 66z" />
    <glyph glyph-name="paragraph" unicode="&#xb6;" horiz-adv-x="632" 
d="M520 -114h-59q1 50 1.5 88.5t1 71t0.5 64v67.5v504h-102v-504v-67.5t0.5 -64.5t1 -71.5t1.5 -87.5h-61q1 50 2 88.5t2 71t1 64v67.5v100h-37q-51 0 -95 16.5t-75.5 45.5t-49 69.5t-17.5 88.5q0 56 19.5 98t54 70t81.5 42.5t102 14.5h316v-42q-13 0 -37.5 0.5t-52.5 0.5
v-504v-67.5v-64.5t0.5 -71.5t1.5 -87.5z" />
    <glyph glyph-name="periodcentered" unicode="&#xb7;" horiz-adv-x="266" 
d="M133 266q-34 0 -54.5 22t-20.5 53q0 30 20.5 52t54.5 22t54.5 -22t20.5 -52q0 -31 -20.5 -53t-54.5 -22z" />
    <glyph glyph-name="cedilla" unicode="&#xb8;" horiz-adv-x="508" 
d="M258 9h47l-25 -65h5q40 0 64.5 -17t24.5 -51q0 -43 -35.5 -62t-89.5 -19q-20 0 -39 4.5t-28 9.5l-8 47h3q15 -10 30.5 -15t32.5 -5q31 0 44.5 8.5t13.5 30.5q0 17 -13.5 26.5t-36.5 9.5q-8 0 -15.5 -0.5t-11.5 -1.5z" />
    <glyph glyph-name="one.sup" unicode="&#xb9;" horiz-adv-x="458" 
d="M283 484q0 -31 2.5 -57t6.5 -48h82v-39h-276v39h84q5 22 7.5 48t2.5 57v248l-98 3v30q60 7 110.5 22.5t87.5 28.5q-5 -31 -7 -67.5t-2 -69.5v-195z" />
    <glyph glyph-name="ordmasculine" unicode="&#xba;" horiz-adv-x="388" 
d="M197 398q-32 0 -62.5 12t-53 33t-36.5 52t-14 68q0 39 14 70.5t36.5 53.5t51.5 34t58 12q33 0 63 -11.5t53 -33t36.5 -52t13.5 -67.5q0 -39 -14 -71t-36 -54t-51 -34t-59 -12zM191 695q-37 0 -58.5 -29.5t-21.5 -95.5q0 -69 24 -101.5t62 -32.5q37 0 59 30t22 96
q0 69 -24.5 101t-62.5 32z" />
    <glyph glyph-name="guillemotright" unicode="&#xbb;" horiz-adv-x="503" 
d="M450 271l-185 -153l-21 18l106 146v5l-106 148l20 18l186 -154v-28zM248 271l-185 -153l-21 18l106 146v5l-106 148l20 18l186 -154v-28z" />
    <glyph glyph-name="onequarter" unicode="&#xbc;" horiz-adv-x="961" 
d="M52 254v39h68q4 20 6 44.5t2 55.5v255l-81 4v29q55 7 99 21.5t80 27.5q-4 -31 -5 -62.5t-1 -64.5v-210q0 -31 2 -55.5t6 -44.5h65v-39h-241zM198 11l568 761l44 -30l-572 -764zM562 163l220 306h60v-279h96l-7 -57h-87q0 -47 5 -77.5t11 -55.5h-124q8 25 12.5 55.5
t5.5 77.5h-182zM629 190h126v175z" />
    <glyph glyph-name="onehalf" unicode="&#xbd;" horiz-adv-x="1017" 
d="M52 253v39h68q4 20 6 44.5t2 55.5v255l-81 4v29q55 7 99 21.5t80 27.5q-4 -31 -5 -62.5t-1 -64.5v-210q0 -31 2 -55.5t6 -44.5h65v-39h-241zM202 12l568 761l44 -30l-572 -764zM960 346q0 -40 -21.5 -79t-54 -73.5t-70.5 -65t-70 -54.5h97q43 0 84 7.5t61 15.5l-19 -97
h-312l-11 28q47 43 87 82t69.5 76t46.5 72.5t17 70.5q0 34 -21.5 58t-64.5 24q-37 0 -60.5 -15.5t-45.5 -44.5l-17 10q17 48 56 82t105 34q74 0 109 -37.5t35 -93.5z" />
    <glyph glyph-name="threequarters" unicode="&#xbe;" horiz-adv-x="963" 
d="M270 401q0 39 -21 58t-58 19q-16 0 -29.5 -3.5t-26.5 -9.5l-12 23q46 22 80 47.5t34 67.5q0 31 -20 48.5t-55 17.5q-37 0 -59.5 -15t-38.5 -40l-17 7q13 47 51.5 78t95.5 31q65 0 99.5 -28.5t34.5 -78.5q0 -39 -25.5 -64t-61.5 -41v-3q60 -3 92 -32t32 -73
q0 -43 -16 -74.5t-42.5 -51.5t-62 -29.5t-74.5 -9.5q-34 0 -66.5 6.5t-55.5 18.5l-6 69q22 -19 53 -37t62 -18q57 0 85 28t28 89zM218 11l568 761l44 -30l-572 -764zM564 164l220 306h60v-279h96l-7 -57h-87q0 -47 5 -77.5t11 -55.5h-124q8 25 12.5 55.5t5.5 77.5h-182z
M631 191h126v175z" />
    <glyph glyph-name="questiondown" unicode="&#xbf;" horiz-adv-x="474" 
d="M276 559q34 0 54 -22t20 -51t-20 -50.5t-54 -21.5q-33 0 -53.5 21.5t-20.5 50.5t20.5 51t53.5 22zM254 -187q-110 0 -163.5 48t-53.5 119q0 57 38 95.5t82.5 69.5t82.5 60.5t38 67.5q0 19 -10 34.5t-20 30.5l47 13q16 -16 30.5 -38.5t14.5 -59.5q0 -48 -28 -83t-61.5 -66
t-61.5 -64t-28 -77q0 -51 26.5 -75t76.5 -24q35 0 50.5 11t22.5 42q5 28 18 43t36 15q24 0 38 -15t14 -41q0 -47 -52.5 -76.5t-136.5 -29.5z" />
    <glyph glyph-name="Agrave" unicode="&#xc0;" horiz-adv-x="663" 
d="M448 153q-7 17 -14.5 39t-16.5 46h-229q-11 -32 -19 -55.5t-11 -32.5q-18 -55 -9.5 -97.5t15.5 -52.5h-156q22 30 39.5 63t39.5 97q21 56 47 125.5t53 143t54.5 147t51.5 136.5l71 22q24 -69 51.5 -145t55 -151.5t54.5 -150t50 -139.5q15 -42 35.5 -84t40.5 -64h-202
q7 12 10 30.5t2.5 40t-4 43t-9.5 39.5zM297 555q-8 -24 -19 -55t-22.5 -65.5t-24 -70.5t-24.5 -69h190q-25 70 -51 142t-43 118h-6zM243 910q60 -34 106.5 -60t94.5 -53l-14 -33q-55 13 -107 25t-114 28z" />
    <glyph glyph-name="Aacute" unicode="&#xc1;" horiz-adv-x="663" 
d="M448 153q-7 17 -14.5 39t-16.5 46h-229q-11 -32 -19 -55.5t-11 -32.5q-18 -55 -9.5 -97.5t15.5 -52.5h-156q22 30 39.5 63t39.5 97q21 56 47 125.5t53 143t54.5 147t51.5 136.5l71 22q24 -69 51.5 -145t55 -151.5t54.5 -150t50 -139.5q15 -42 35.5 -84t40.5 -64h-202
q7 12 10 30.5t2.5 40t-4 43t-9.5 39.5zM297 555q-8 -24 -19 -55t-22.5 -65.5t-24 -70.5t-24.5 -69h190q-25 70 -51 142t-43 118h-6zM426 910l34 -93q-62 -16 -114 -28t-107 -25l-14 33q48 27 94.5 53t106.5 60z" />
    <glyph glyph-name="Acircumflex" unicode="&#xc2;" horiz-adv-x="663" 
d="M448 153q-7 17 -14.5 39t-16.5 46h-229q-11 -32 -19 -55.5t-11 -32.5q-18 -55 -9.5 -97.5t15.5 -52.5h-156q22 30 39.5 63t39.5 97q21 56 47 125.5t53 143t54.5 147t51.5 136.5l71 22q24 -69 51.5 -145t55 -151.5t54.5 -150t50 -139.5q15 -42 35.5 -84t40.5 -64h-202
q7 12 10 30.5t2.5 40t-4 43t-9.5 39.5zM297 555q-8 -24 -19 -55t-22.5 -65.5t-24 -70.5t-24.5 -69h190q-25 70 -51 142t-43 118h-6zM329 850h-3l-131 -76l-24 27l125 127h63l124 -127l-24 -27z" />
    <glyph glyph-name="Atilde" unicode="&#xc3;" horiz-adv-x="663" 
d="M448 153q-7 17 -14.5 39t-16.5 46h-229q-11 -32 -19 -55.5t-11 -32.5q-18 -55 -9.5 -97.5t15.5 -52.5h-156q22 30 39.5 63t39.5 97q21 56 47 125.5t53 143t54.5 147t51.5 136.5l71 22q24 -69 51.5 -145t55 -151.5t54.5 -150t50 -139.5q15 -42 35.5 -84t40.5 -64h-202
q7 12 10 30.5t2.5 40t-4 43t-9.5 39.5zM297 555q-8 -24 -19 -55t-22.5 -65.5t-24 -70.5t-24.5 -69h190q-25 70 -51 142t-43 118h-6zM406 864q16 0 31 8.5t25 35.5l29 -8q-13 -53 -38.5 -83.5t-66.5 -30.5q-35 0 -72.5 12.5t-65.5 12.5q-16 0 -31.5 -9t-24.5 -36l-29 9
q12 50 38.5 81.5t66.5 31.5q35 0 72.5 -12t65.5 -12z" />
    <glyph glyph-name="Adieresis" unicode="&#xc4;" horiz-adv-x="663" 
d="M448 153q-7 17 -14.5 39t-16.5 46h-229q-11 -32 -19 -55.5t-11 -32.5q-18 -55 -9.5 -97.5t15.5 -52.5h-156q22 30 39.5 63t39.5 97q21 56 47 125.5t53 143t54.5 147t51.5 136.5l71 22q24 -69 51.5 -145t55 -151.5t54.5 -150t50 -139.5q15 -42 35.5 -84t40.5 -64h-202
q7 12 10 30.5t2.5 40t-4 43t-9.5 39.5zM297 555q-8 -24 -19 -55t-22.5 -65.5t-24 -70.5t-24.5 -69h190q-25 70 -51 142t-43 118h-6zM227 771q-27 0 -43 17.5t-16 41.5t16 42t43 18q28 0 43.5 -18t15.5 -42t-15.5 -41.5t-43.5 -17.5zM427 771q-28 0 -43.5 17.5t-15.5 41.5
t15.5 42t43.5 18q27 0 43 -18t16 -42t-16 -41.5t-43 -17.5z" />
    <glyph glyph-name="Aring" unicode="&#xc5;" horiz-adv-x="663" 
d="M448 153q-7 17 -14.5 39t-16.5 46h-229q-11 -32 -19 -55.5t-11 -32.5q-18 -55 -9.5 -97.5t15.5 -52.5h-156q22 30 39.5 63t39.5 97q21 56 47 125.5t53 143t54.5 147t51.5 136.5l71 22q24 -69 51.5 -145t55 -151.5t54.5 -150t50 -139.5q15 -42 35.5 -84t40.5 -64h-202
q7 12 10 30.5t2.5 40t-4 43t-9.5 39.5zM297 555q-8 -24 -19 -55t-22.5 -65.5t-24 -70.5t-24.5 -69h190q-25 70 -51 142t-43 118h-6zM233 864q0 44 29 67.5t65 23.5t65 -23.5t29 -67.5t-29 -68t-65 -24t-65 24t-29 68zM377 864q0 25 -12.5 40t-37.5 15t-37.5 -15t-12.5 -40
t12.5 -40t37.5 -15t37.5 15t12.5 40z" />
    <glyph glyph-name="AE" unicode="&#xc6;" horiz-adv-x="907" 
d="M849 0h-415q13 40 18.5 92.5t5.5 95.5v137h-177q-33 -66 -56.5 -115t-29.5 -60q-27 -54 -27.5 -97t4.5 -53h-165q28 28 50.5 62.5t56.5 97.5q20 35 50.5 93.5t65 125.5t70.5 136.5t65 127.5q12 27 7.5 45.5t-12.5 33.5h483l-4 -89q-42 18 -92 25.5t-94 7.5h-75v-268h75
q32 0 72 4t72 10l-10 -92q-30 8 -68 12.5t-73 4.5h-68v-281h62q27 0 58.5 2.5t62 7t58 11.5t47.5 16zM453 662q-31 -57 -69.5 -132.5t-74.5 -147.5h149v280h-5z" />
    <glyph glyph-name="Ccedilla" unicode="&#xc7;" horiz-adv-x="682" 
d="M398 46q43 0 76.5 12.5t59.5 31.5t46.5 42.5t37.5 44.5h9l-10 -124q-32 -25 -90 -45t-137 -20q-76 0 -139.5 25.5t-108.5 73.5t-70 117.5t-25 156.5q0 88 29.5 158t77.5 117.5t111 72.5t130 25q60 0 117.5 -11.5t93.5 -33.5l13 -132h-10q-44 57 -94.5 88t-119.5 31
q-100 0 -157 -80.5t-57 -225.5q0 -155 59.5 -239.5t157.5 -84.5zM344 9h47l-25 -65h5q40 0 64.5 -17t24.5 -51q0 -43 -35.5 -62t-89.5 -19q-20 0 -39 4.5t-28 9.5l-8 47h3q15 -10 30.5 -15t32.5 -5q31 0 44.5 8.5t13.5 30.5q0 17 -13.5 26.5t-36.5 9.5q-8 0 -15.5 -0.5
t-11.5 -1.5z" />
    <glyph glyph-name="Egrave" unicode="&#xc8;" horiz-adv-x="552" 
d="M494 0h-428q13 40 19 92.5t6 95.5v346q0 43 -6 95.5t-19 92.5h422l-4 -89q-42 18 -94.5 25.5t-96.5 7.5h-82v-259h82q32 0 74.5 4t74.5 10l-10 -87q-30 9 -70 13t-75 4h-76v-295h70q27 0 59 2.5t63 7t59.5 11.5t48.5 16zM204 910q60 -34 106.5 -60t94.5 -53l-14 -33
q-55 13 -107 25t-114 28z" />
    <glyph glyph-name="Eacute" unicode="&#xc9;" horiz-adv-x="552" 
d="M494 0h-428q13 40 19 92.5t6 95.5v346q0 43 -6 95.5t-19 92.5h422l-4 -89q-42 18 -94.5 25.5t-96.5 7.5h-82v-259h82q32 0 74.5 4t74.5 10l-10 -87q-30 9 -70 13t-75 4h-76v-295h70q27 0 59 2.5t63 7t59.5 11.5t48.5 16zM388 910l34 -93q-62 -16 -114 -28t-107 -25
l-14 33q48 27 94.5 53t106.5 60z" />
    <glyph glyph-name="Ecircumflex" unicode="&#xca;" horiz-adv-x="552" 
d="M494 0h-428q13 40 19 92.5t6 95.5v346q0 43 -6 95.5t-19 92.5h422l-4 -89q-42 18 -94.5 25.5t-96.5 7.5h-82v-259h82q32 0 74.5 4t74.5 10l-10 -87q-30 9 -70 13t-75 4h-76v-295h70q27 0 59 2.5t63 7t59.5 11.5t48.5 16zM291 850h-3l-131 -76l-24 27l125 127h63l124 -127
l-24 -27z" />
    <glyph glyph-name="Edieresis" unicode="&#xcb;" horiz-adv-x="552" 
d="M494 0h-428q13 40 19 92.5t6 95.5v346q0 43 -6 95.5t-19 92.5h422l-4 -89q-42 18 -94.5 25.5t-96.5 7.5h-82v-259h82q32 0 74.5 4t74.5 10l-10 -87q-30 9 -70 13t-75 4h-76v-295h70q27 0 59 2.5t63 7t59.5 11.5t48.5 16zM189 771q-27 0 -43 17.5t-16 41.5t16 42t43 18
q28 0 43.5 -18t15.5 -42t-15.5 -41.5t-43.5 -17.5zM389 771q-28 0 -43.5 17.5t-15.5 41.5t15.5 42t43.5 18q27 0 43 -18t16 -42t-16 -41.5t-43 -17.5z" />
    <glyph glyph-name="Igrave" unicode="&#xcc;" horiz-adv-x="305" 
d="M214 188q0 -43 8.5 -95.5t22.5 -92.5h-184q16 40 24.5 92.5t8.5 95.5v346q0 43 -8.5 95.5t-24.5 92.5h184q-14 -40 -22.5 -92.5t-8.5 -95.5v-346zM68 910q60 -34 106.5 -60t94.5 -53l-14 -33q-55 13 -107 25t-114 28z" />
    <glyph glyph-name="Iacute" unicode="&#xcd;" horiz-adv-x="305" 
d="M214 188q0 -43 8.5 -95.5t22.5 -92.5h-184q16 40 24.5 92.5t8.5 95.5v346q0 43 -8.5 95.5t-24.5 92.5h184q-14 -40 -22.5 -92.5t-8.5 -95.5v-346zM252 910l34 -93q-62 -16 -114 -28t-107 -25l-14 33q48 27 94.5 53t106.5 60z" />
    <glyph glyph-name="Icircumflex" unicode="&#xce;" horiz-adv-x="305" 
d="M214 188q0 -43 8.5 -95.5t22.5 -92.5h-184q16 40 24.5 92.5t8.5 95.5v346q0 43 -8.5 95.5t-24.5 92.5h184q-14 -40 -22.5 -92.5t-8.5 -95.5v-346zM155 850h-3l-131 -76l-24 27l125 127h63l124 -127l-24 -27z" />
    <glyph glyph-name="Idieresis" unicode="&#xcf;" horiz-adv-x="305" 
d="M214 188q0 -43 8.5 -95.5t22.5 -92.5h-184q16 40 24.5 92.5t8.5 95.5v346q0 43 -8.5 95.5t-24.5 92.5h184q-14 -40 -22.5 -92.5t-8.5 -95.5v-346zM53 771q-27 0 -43 17.5t-16 41.5t16 42t43 18q28 0 43.5 -18t15.5 -42t-15.5 -41.5t-43.5 -17.5zM253 771
q-28 0 -43.5 17.5t-15.5 41.5t15.5 42t43.5 18q27 0 43 -18t16 -42t-16 -41.5t-43 -17.5z" />
    <glyph glyph-name="Eth" unicode="&#xd0;" horiz-adv-x="751" 
d="M121 534q0 43 -6 95.5t-19 92.5h207q78 0 150.5 -19t128 -61t89 -111.5t33.5 -169.5t-34 -169.5t-89.5 -111.5t-128 -61t-149.5 -19h-207q13 40 19 92.5t6 95.5v162q-22 0 -42.5 -1t-54.5 -2l5 69q31 -1 52 -1.5t40 -0.5v120zM289 414q34 0 58 1.5t65 3.5l-5 -73
q-29 1 -60.5 2.5t-65.5 1.5h-40v-293h58q55 0 106 13.5t90 47.5t62 93t23 150t-23 150t-61.5 92.5t-89.5 47t-107 13.5h-58v-250h48z" />
    <glyph glyph-name="Ntilde" unicode="&#xd1;" horiz-adv-x="725" 
d="M637 498v-498h-79l-382 586h-5v-354q0 -67 7.5 -117.5t20.5 -114.5h-124q13 63 20.5 114t7.5 118v277q0 43 -3 72.5t-9.5 52.5t-17.5 43t-28 45h176l344 -522h4v298q0 22 -2 52t-5.5 61.5t-9 61t-11.5 49.5h123q-6 -20 -11 -49.5t-8.5 -61t-5.5 -61.5t-2 -52zM469 864
q16 0 31 8.5t25 35.5l29 -8q-13 -53 -38.5 -83.5t-66.5 -30.5q-35 0 -72.5 12.5t-65.5 12.5q-16 0 -31.5 -9t-24.5 -36l-29 9q12 50 38.5 81.5t66.5 31.5q35 0 72.5 -12t65.5 -12z" />
    <glyph glyph-name="Ograve" unicode="&#xd2;" horiz-adv-x="766" 
d="M382 733q66 0 127 -23t107.5 -68.5t74.5 -113.5t28 -157q0 -93 -30.5 -165t-78 -120t-107.5 -73t-119 -25q-66 0 -127.5 23t-107.5 68.5t-74 114t-28 157.5q0 93 30.5 164.5t78 119.5t107.5 73t119 25zM384 44q88 0 146 74t58 243q0 84 -15.5 144.5t-43 98.5t-65.5 55.5
t-82 17.5q-87 0 -145.5 -74.5t-58.5 -243.5q0 -84 16 -144t43.5 -98t65 -55.5t81.5 -17.5zM298 910q60 -34 106.5 -60t94.5 -53l-14 -33q-55 13 -107 25t-114 28z" />
    <glyph glyph-name="Oacute" unicode="&#xd3;" horiz-adv-x="766" 
d="M382 733q66 0 127 -23t107.5 -68.5t74.5 -113.5t28 -157q0 -93 -30.5 -165t-78 -120t-107.5 -73t-119 -25q-66 0 -127.5 23t-107.5 68.5t-74 114t-28 157.5q0 93 30.5 164.5t78 119.5t107.5 73t119 25zM384 44q88 0 146 74t58 243q0 84 -15.5 144.5t-43 98.5t-65.5 55.5
t-82 17.5q-87 0 -145.5 -74.5t-58.5 -243.5q0 -84 16 -144t43.5 -98t65 -55.5t81.5 -17.5zM482 910l34 -93q-62 -16 -114 -28t-107 -25l-14 33q48 27 94.5 53t106.5 60z" />
    <glyph glyph-name="Ocircumflex" unicode="&#xd4;" horiz-adv-x="766" 
d="M382 733q66 0 127 -23t107.5 -68.5t74.5 -113.5t28 -157q0 -93 -30.5 -165t-78 -120t-107.5 -73t-119 -25q-66 0 -127.5 23t-107.5 68.5t-74 114t-28 157.5q0 93 30.5 164.5t78 119.5t107.5 73t119 25zM384 44q88 0 146 74t58 243q0 84 -15.5 144.5t-43 98.5t-65.5 55.5
t-82 17.5q-87 0 -145.5 -74.5t-58.5 -243.5q0 -84 16 -144t43.5 -98t65 -55.5t81.5 -17.5zM385 850h-3l-131 -76l-24 27l125 127h63l124 -127l-24 -27z" />
    <glyph glyph-name="Otilde" unicode="&#xd5;" horiz-adv-x="766" 
d="M382 733q66 0 127 -23t107.5 -68.5t74.5 -113.5t28 -157q0 -93 -30.5 -165t-78 -120t-107.5 -73t-119 -25q-66 0 -127.5 23t-107.5 68.5t-74 114t-28 157.5q0 93 30.5 164.5t78 119.5t107.5 73t119 25zM384 44q88 0 146 74t58 243q0 84 -15.5 144.5t-43 98.5t-65.5 55.5
t-82 17.5q-87 0 -145.5 -74.5t-58.5 -243.5q0 -84 16 -144t43.5 -98t65 -55.5t81.5 -17.5zM462 864q16 0 31 8.5t25 35.5l29 -8q-13 -53 -38.5 -83.5t-66.5 -30.5q-35 0 -72.5 12.5t-65.5 12.5q-16 0 -31.5 -9t-24.5 -36l-29 9q12 50 38.5 81.5t66.5 31.5q35 0 72.5 -12
t65.5 -12z" />
    <glyph glyph-name="Odieresis" unicode="&#xd6;" horiz-adv-x="766" 
d="M382 733q66 0 127 -23t107.5 -68.5t74.5 -113.5t28 -157q0 -93 -30.5 -165t-78 -120t-107.5 -73t-119 -25q-66 0 -127.5 23t-107.5 68.5t-74 114t-28 157.5q0 93 30.5 164.5t78 119.5t107.5 73t119 25zM384 44q88 0 146 74t58 243q0 84 -15.5 144.5t-43 98.5t-65.5 55.5
t-82 17.5q-87 0 -145.5 -74.5t-58.5 -243.5q0 -84 16 -144t43.5 -98t65 -55.5t81.5 -17.5zM283 771q-27 0 -43 17.5t-16 41.5t16 42t43 18q28 0 43.5 -18t15.5 -42t-15.5 -41.5t-43.5 -17.5zM483 771q-28 0 -43.5 17.5t-15.5 41.5t15.5 42t43.5 18q27 0 43 -18t16 -42
t-16 -41.5t-43 -17.5z" />
    <glyph glyph-name="multiply" unicode="&#xd7;" horiz-adv-x="576" 
d="M71 538l42 43l175 -180l175 180l42 -43l-175 -180l175 -180l-42 -43l-175 180l-175 -180l-42 43l175 180z" />
    <glyph glyph-name="Oslash" unicode="&#xd8;" horiz-adv-x="766" 
d="M79 -60q28 42 48 71t36 56q-52 46 -84 117t-32 167q0 93 30.5 164.5t78 119.5t107.5 73t119 25q43 0 84.5 -10t78.5 -29q10 17 22 37t22 40h87q-19 -29 -39 -58.5t-37 -56.5q53 -45 85.5 -116.5t33.5 -168.5q0 -93 -30.5 -165t-78 -120t-107.5 -73t-119 -25
q-44 0 -87 10.5t-80 30.5q-11 -21 -23 -42.5t-26 -46.5h-89zM177 359q0 -68 9.5 -120t27.5 -89l294 482q-25 23 -57 34t-69 11q-88 0 -146.5 -74.5t-58.5 -243.5zM384 44q89 0 147 74t58 243q0 70 -10 124t-29 91l-296 -484q25 -25 58 -36.5t72 -11.5z" />
    <glyph glyph-name="Ugrave" unicode="&#xd9;" horiz-adv-x="721" 
d="M569 240v258q0 22 -2 52t-5.5 61.5t-9 61t-11.5 49.5h124q-6 -20 -11 -49.5t-8.5 -61t-5.5 -61.5t-2 -52v-258q0 -62 -20.5 -109.5t-56.5 -79t-85.5 -47.5t-106.5 -16t-109.5 14t-91.5 44.5t-62.5 78.5t-23.5 116v293q0 43 -5.5 95.5t-18.5 92.5h166q-10 -40 -16 -92.5
t-6 -95.5v-291q0 -108 51 -148t137 -40q80 0 129.5 44t49.5 141zM295 910q60 -34 106.5 -60t94.5 -53l-14 -33q-55 13 -107 25t-114 28z" />
    <glyph glyph-name="Uacute" unicode="&#xda;" horiz-adv-x="721" 
d="M569 240v258q0 22 -2 52t-5.5 61.5t-9 61t-11.5 49.5h124q-6 -20 -11 -49.5t-8.5 -61t-5.5 -61.5t-2 -52v-258q0 -62 -20.5 -109.5t-56.5 -79t-85.5 -47.5t-106.5 -16t-109.5 14t-91.5 44.5t-62.5 78.5t-23.5 116v293q0 43 -5.5 95.5t-18.5 92.5h166q-10 -40 -16 -92.5
t-6 -95.5v-291q0 -108 51 -148t137 -40q80 0 129.5 44t49.5 141zM479 910l34 -93q-62 -16 -114 -28t-107 -25l-14 33q48 27 94.5 53t106.5 60z" />
    <glyph glyph-name="Ucircumflex" unicode="&#xdb;" horiz-adv-x="721" 
d="M569 240v258q0 22 -2 52t-5.5 61.5t-9 61t-11.5 49.5h124q-6 -20 -11 -49.5t-8.5 -61t-5.5 -61.5t-2 -52v-258q0 -62 -20.5 -109.5t-56.5 -79t-85.5 -47.5t-106.5 -16t-109.5 14t-91.5 44.5t-62.5 78.5t-23.5 116v293q0 43 -5.5 95.5t-18.5 92.5h166q-10 -40 -16 -92.5
t-6 -95.5v-291q0 -108 51 -148t137 -40q80 0 129.5 44t49.5 141zM383 850h-3l-131 -76l-24 27l125 127h63l124 -127l-24 -27z" />
    <glyph glyph-name="Udieresis" unicode="&#xdc;" horiz-adv-x="721" 
d="M569 240v258q0 22 -2 52t-5.5 61.5t-9 61t-11.5 49.5h124q-6 -20 -11 -49.5t-8.5 -61t-5.5 -61.5t-2 -52v-258q0 -62 -20.5 -109.5t-56.5 -79t-85.5 -47.5t-106.5 -16t-109.5 14t-91.5 44.5t-62.5 78.5t-23.5 116v293q0 43 -5.5 95.5t-18.5 92.5h166q-10 -40 -16 -92.5
t-6 -95.5v-291q0 -108 51 -148t137 -40q80 0 129.5 44t49.5 141zM281 771q-27 0 -43 17.5t-16 41.5t16 42t43 18q28 0 43.5 -18t15.5 -42t-15.5 -41.5t-43.5 -17.5zM481 771q-28 0 -43.5 17.5t-15.5 41.5t15.5 42t43.5 18q27 0 43 -18t16 -42t-16 -41.5t-43 -17.5z" />
    <glyph glyph-name="Yacute" unicode="&#xdd;" horiz-adv-x="624" 
d="M374 188q0 -43 6 -95.5t16 -92.5h-167q13 40 19 92.5t6 95.5v120l-144 262q-28 50 -47.5 80.5t-50.5 71.5h174q4 -31 14 -56.5t34 -71.5l106 -205h5l91 177q25 49 38 82.5t22 73.5h118q-35 -49 -65 -95t-57 -95l-118 -221v-123zM435 910l34 -93q-62 -16 -114 -28
t-107 -25l-14 33q48 27 94.5 53t106.5 60z" />
    <glyph glyph-name="Thorn" unicode="&#xde;" horiz-adv-x="603" 
d="M214 188q0 -43 7 -93.5t21 -94.5h-181q16 40 24.5 92.5t8.5 95.5v346q0 43 -8.5 95.5t-24.5 92.5h179q-9 -39 -16 -79.5t-9 -78.5h108q112 0 179.5 -42.5t67.5 -139.5q0 -49 -20.5 -82.5t-54 -54.5t-77 -30.5t-88.5 -9.5h-116v-17zM314 508h-100v-249h107q51 0 91 26.5
t40 96.5q0 71 -33.5 98.5t-104.5 27.5z" />
    <glyph glyph-name="germandbls" unicode="&#xdf;" horiz-adv-x="622" 
d="M512 631q0 -31 -11.5 -56.5t-29 -47t-39.5 -39t-44 -32.5q97 -64 149.5 -139t52.5 -147q0 -40 -14.5 -74t-39 -57.5t-58 -37t-70.5 -13.5q-43 0 -69.5 6.5t-54.5 17.5l-8 124h9q27 -49 55 -72t68 -23q35 0 60 21t25 73q0 63 -50 130t-152 141v12q57 43 91 86t34 106
q1 57 -22 90t-74 33q-46 0 -82.5 -35.5t-36.5 -112.5v-404q0 -49 5 -97t16 -84h-147q12 38 15.5 88t3.5 93v286h-63v8l63 52v25q0 54 17.5 97t48 72t72.5 44t89 15t83 -12.5t60 -33t36 -47.5t12 -56z" />
    <glyph glyph-name="agrave" unicode="&#xe0;" horiz-adv-x="518" 
d="M115 376q-19 0 -35 12.5t-16 37.5q0 27 17.5 49.5t45.5 38.5t64 24.5t73 8.5q95 0 135 -40.5t40 -120.5v-205q0 -43 3 -93t15 -88h-114q-2 16 -3.5 38.5t-1.5 36.5h-4q-19 -35 -52.5 -61t-94.5 -26q-66 0 -104.5 38t-39.5 95q-1 49 33 86t104 62l151 52v72q0 54 -24.5 77
t-70.5 23q-30 0 -44.5 -11.5t-20.5 -41.5q-7 -34 -20 -49t-36 -15zM154 138q0 -38 21.5 -60t58.5 -22t62 19t35 43v164l-94 -37q-44 -18 -63.5 -41t-19.5 -66zM161 757q52 -33 101 -66t94 -61l-15 -34q-54 18 -109 36.5t-110 35.5z" />
    <glyph glyph-name="aacute" unicode="&#xe1;" horiz-adv-x="518" 
d="M115 376q-19 0 -35 12.5t-16 37.5q0 27 17.5 49.5t45.5 38.5t64 24.5t73 8.5q95 0 135 -40.5t40 -120.5v-205q0 -43 3 -93t15 -88h-114q-2 16 -3.5 38.5t-1.5 36.5h-4q-19 -35 -52.5 -61t-94.5 -26q-66 0 -104.5 38t-39.5 95q-1 49 33 86t104 62l151 52v72q0 54 -24.5 77
t-70.5 23q-30 0 -44.5 -11.5t-20.5 -41.5q-7 -34 -20 -49t-36 -15zM154 138q0 -38 21.5 -60t58.5 -22t62 19t35 43v164l-94 -37q-44 -18 -63.5 -41t-19.5 -66zM350 757l39 -89q-55 -17 -110 -35.5t-109 -36.5l-15 34q45 28 94 61t101 66z" />
    <glyph glyph-name="acircumflex" unicode="&#xe2;" horiz-adv-x="518" 
d="M115 376q-19 0 -35 12.5t-16 37.5q0 27 17.5 49.5t45.5 38.5t64 24.5t73 8.5q95 0 135 -40.5t40 -120.5v-205q0 -43 3 -93t15 -88h-114q-2 16 -3.5 38.5t-1.5 36.5h-4q-19 -35 -52.5 -61t-94.5 -26q-66 0 -104.5 38t-39.5 95q-1 49 33 86t104 62l151 52v72q0 54 -24.5 77
t-70.5 23q-30 0 -44.5 -11.5t-20.5 -41.5q-7 -34 -20 -49t-36 -15zM154 138q0 -38 21.5 -60t58.5 -22t62 19t35 43v164l-94 -37q-44 -18 -63.5 -41t-19.5 -66zM254 683h-3l-119 -87l-24 27l119 138h51l119 -138l-25 -27z" />
    <glyph glyph-name="atilde" unicode="&#xe3;" horiz-adv-x="518" 
d="M115 376q-19 0 -35 12.5t-16 37.5q0 27 17.5 49.5t45.5 38.5t64 24.5t73 8.5q95 0 135 -40.5t40 -120.5v-205q0 -43 3 -93t15 -88h-114q-2 16 -3.5 38.5t-1.5 36.5h-4q-19 -35 -52.5 -61t-94.5 -26q-66 0 -104.5 38t-39.5 95q-1 49 33 86t104 62l151 52v72q0 54 -24.5 77
t-70.5 23q-30 0 -44.5 -11.5t-20.5 -41.5q-7 -34 -20 -49t-36 -15zM154 138q0 -38 21.5 -60t58.5 -22t62 19t35 43v164l-94 -37q-44 -18 -63.5 -41t-19.5 -66zM319 700q16 0 31 8t25 35l29 -8q-13 -53 -38.5 -81t-65.5 -28q-35 0 -66.5 12t-59.5 12q-16 0 -31.5 -9
t-24.5 -35l-29 8q12 51 38.5 80t66.5 29q35 0 66 -11.5t59 -11.5z" />
    <glyph glyph-name="adieresis" unicode="&#xe4;" horiz-adv-x="518" 
d="M115 376q-19 0 -35 12.5t-16 37.5q0 27 17.5 49.5t45.5 38.5t64 24.5t73 8.5q95 0 135 -40.5t40 -120.5v-205q0 -43 3 -93t15 -88h-114q-2 16 -3.5 38.5t-1.5 36.5h-4q-19 -35 -52.5 -61t-94.5 -26q-66 0 -104.5 38t-39.5 95q-1 49 33 86t104 62l151 52v72q0 54 -24.5 77
t-70.5 23q-30 0 -44.5 -11.5t-20.5 -41.5q-7 -34 -20 -49t-36 -15zM154 138q0 -38 21.5 -60t58.5 -22t62 19t35 43v164l-94 -37q-44 -18 -63.5 -41t-19.5 -66zM151 607q-26 0 -41.5 17t-15.5 40t15.5 41t41.5 18q27 0 42.5 -18t15.5 -41t-15.5 -40t-42.5 -17zM345 607
q-27 0 -42.5 17t-15.5 40t15.5 41t42.5 18q26 0 41.5 -18t15.5 -41t-15.5 -40t-41.5 -17z" />
    <glyph glyph-name="aring" unicode="&#xe5;" horiz-adv-x="518" 
d="M115 376q-19 0 -35 12.5t-16 37.5q0 27 17.5 49.5t45.5 38.5t64 24.5t73 8.5q95 0 135 -40.5t40 -120.5v-205q0 -43 3 -93t15 -88h-114q-2 16 -3.5 38.5t-1.5 36.5h-4q-19 -35 -52.5 -61t-94.5 -26q-66 0 -104.5 38t-39.5 95q-1 49 33 86t104 62l151 52v72q0 54 -24.5 77
t-70.5 23q-30 0 -44.5 -11.5t-20.5 -41.5q-7 -34 -20 -49t-36 -15zM154 138q0 -38 21.5 -60t58.5 -22t62 19t35 43v164l-94 -37q-44 -18 -63.5 -41t-19.5 -66zM149 694q0 46 31 70.5t69 24.5t69 -24.5t31 -70.5q0 -47 -31 -72t-69 -25t-69 25t-31 72zM293 694q0 25 -11.5 41
t-32.5 16t-32.5 -16t-11.5 -41q0 -26 11.5 -42t32.5 -16t32.5 16t11.5 42z" />
    <glyph glyph-name="ae" unicode="&#xe6;" horiz-adv-x="807" 
d="M228 284l108 19v92q0 55 -23.5 76.5t-69.5 21.5q-30 0 -44.5 -11.5t-19.5 -41.5q-7 -34 -20 -48.5t-37 -14.5q-19 0 -35 12.5t-16 36.5q0 28 15 50.5t40 38t58.5 24t70.5 8.5q54 0 93.5 -20.5t58.5 -60.5h3q26 38 64 59.5t87 21.5q103 0 151.5 -56t52.5 -166l-321 -53
q1 -107 46 -152t120 -45q69 0 103 22.5t53 43.5l2 -19q-19 -52 -66 -93t-135 -41q-64 0 -116.5 31.5t-80.5 94.5h-4q-20 -59 -65.5 -92.5t-107.5 -33.5q-66 0 -108.5 38t-42.5 95q0 62 47.5 104.5t138.5 58.5zM560 495q-57 0 -83.5 -49.5t-31.5 -123.5l210 36q-5 61 -24 99
t-71 38zM153 138q0 -38 21.5 -61.5t58.5 -23.5t67.5 22t35.5 59v120l-87 -14q-47 -8 -71.5 -33.5t-24.5 -68.5z" />
    <glyph glyph-name="ccedilla" unicode="&#xe7;" horiz-adv-x="512" 
d="M476 117q-7 -24 -22.5 -47t-39 -41t-56.5 -29.5t-75 -11.5q-50 0 -94.5 18t-76.5 52t-51 83.5t-19 112.5q0 72 23 126.5t60 91.5t84.5 55.5t97.5 18.5q88 0 125.5 -33t37.5 -71q0 -28 -14 -44t-42 -16q-25 0 -37.5 16.5t-16.5 47.5q-2 31 -13 39.5t-45 8.5
q-61 0 -106 -55.5t-45 -152.5q0 -108 46.5 -160.5t121.5 -52.5q51 0 90.5 16.5t64.5 44.5zM235 9h47l-25 -65h5q40 0 64.5 -17t24.5 -51q0 -43 -35.5 -62t-89.5 -19q-20 0 -39 4.5t-28 9.5l-8 47h3q15 -10 30.5 -15t32.5 -5q31 0 44.5 8.5t13.5 30.5q0 17 -13.5 26.5
t-36.5 9.5q-8 0 -15.5 -0.5t-11.5 -1.5z" />
    <glyph glyph-name="egrave" unicode="&#xe8;" horiz-adv-x="532" 
d="M494 122q-19 -52 -71 -93t-140 -41q-47 0 -91 16.5t-77 49.5t-53 83.5t-20 116.5q0 65 18 119t50 92.5t76.5 60t96.5 21.5q107 0 157.5 -65t50.5 -190h-340v-12q0 -111 49.5 -158t125.5 -47q69 0 108 22.5t58 43.5zM281 495q-53 0 -85.5 -40.5t-41.5 -116.5l225 6
q-2 72 -21.5 111.5t-76.5 39.5zM188 757q52 -33 101 -66t94 -61l-15 -34q-54 18 -109 36.5t-110 35.5z" />
    <glyph glyph-name="eacute" unicode="&#xe9;" horiz-adv-x="532" 
d="M494 122q-19 -52 -71 -93t-140 -41q-47 0 -91 16.5t-77 49.5t-53 83.5t-20 116.5q0 65 18 119t50 92.5t76.5 60t96.5 21.5q107 0 157.5 -65t50.5 -190h-340v-12q0 -111 49.5 -158t125.5 -47q69 0 108 22.5t58 43.5zM281 495q-53 0 -85.5 -40.5t-41.5 -116.5l225 6
q-2 72 -21.5 111.5t-76.5 39.5zM377 757l39 -89q-55 -17 -110 -35.5t-109 -36.5l-15 34q45 28 94 61t101 66z" />
    <glyph glyph-name="ecircumflex" unicode="&#xea;" horiz-adv-x="532" 
d="M494 122q-19 -52 -71 -93t-140 -41q-47 0 -91 16.5t-77 49.5t-53 83.5t-20 116.5q0 65 18 119t50 92.5t76.5 60t96.5 21.5q107 0 157.5 -65t50.5 -190h-340v-12q0 -111 49.5 -158t125.5 -47q69 0 108 22.5t58 43.5zM281 495q-53 0 -85.5 -40.5t-41.5 -116.5l225 6
q-2 72 -21.5 111.5t-76.5 39.5zM278 683h-3l-119 -87l-24 27l119 138h51l119 -138l-25 -27z" />
    <glyph glyph-name="edieresis" unicode="&#xeb;" horiz-adv-x="532" 
d="M494 122q-19 -52 -71 -93t-140 -41q-47 0 -91 16.5t-77 49.5t-53 83.5t-20 116.5q0 65 18 119t50 92.5t76.5 60t96.5 21.5q107 0 157.5 -65t50.5 -190h-340v-12q0 -111 49.5 -158t125.5 -47q69 0 108 22.5t58 43.5zM281 495q-53 0 -85.5 -40.5t-41.5 -116.5l225 6
q-2 72 -21.5 111.5t-76.5 39.5zM179 607q-26 0 -41.5 17t-15.5 40t15.5 41t41.5 18q27 0 42.5 -18t15.5 -41t-15.5 -40t-42.5 -17zM373 607q-27 0 -42.5 17t-15.5 40t15.5 41t42.5 18q26 0 41.5 -18t15.5 -41t-15.5 -40t-41.5 -17z" />
    <glyph glyph-name="igrave" unicode="&#xec;" horiz-adv-x="284" 
d="M217 0h-146q12 38 15.5 88t3.5 93v188q0 43 -12 79.5t-29 52.5l146 43l8 -6q-1 -5 -2 -25t-1.5 -43t-1 -43t-0.5 -26v-220q0 -43 3.5 -93t15.5 -88zM49 757q52 -33 101 -66t94 -61l-15 -34q-54 18 -109 36.5t-110 35.5z" />
    <glyph glyph-name="iacute" unicode="&#xed;" horiz-adv-x="284" 
d="M217 0h-146q12 38 15.5 88t3.5 93v188q0 43 -12 79.5t-29 52.5l146 43l8 -6q-1 -5 -2 -25t-1.5 -43t-1 -43t-0.5 -26v-220q0 -43 3.5 -93t15.5 -88zM242 757l39 -89q-55 -17 -110 -35.5t-109 -36.5l-15 34q45 28 94 61t101 66z" />
    <glyph glyph-name="icircumflex" unicode="&#xee;" horiz-adv-x="284" 
d="M217 0h-146q12 38 15.5 88t3.5 93v188q0 43 -12 79.5t-29 52.5l146 43l8 -6q-1 -5 -2 -25t-1.5 -43t-1 -43t-0.5 -26v-220q0 -43 3.5 -93t15.5 -88zM147 683h-3l-119 -87l-24 27l119 138h51l119 -138l-25 -27z" />
    <glyph glyph-name="idieresis" unicode="&#xef;" horiz-adv-x="284" 
d="M217 0h-146q12 38 15.5 88t3.5 93v188q0 43 -12 79.5t-29 52.5l146 43l8 -6q-1 -5 -2 -25t-1.5 -43t-1 -43t-0.5 -26v-220q0 -43 3.5 -93t15.5 -88zM46 607q-26 0 -41.5 17t-15.5 40t15.5 41t41.5 18q27 0 42.5 -18t15.5 -41t-15.5 -40t-42.5 -17zM240 607
q-27 0 -42.5 17t-15.5 40t15.5 41t42.5 18q26 0 41.5 -18t15.5 -41t-15.5 -40t-41.5 -17z" />
    <glyph glyph-name="eth" unicode="&#xf0;" horiz-adv-x="612" 
d="M307 -12q-55 0 -103.5 19t-84 53.5t-56.5 84.5t-21 112q0 65 19 116.5t52.5 87t80 54.5t99.5 19q28 0 53 -8t40 -22h6q-18 37 -41 70t-50 61l-50 -23q-21 -10 -40.5 -20t-37.5 -19l-21 45q21 8 44 16.5t44 18.5l29 13q-27 22 -57 40.5t-63 31.5l13 34q42 -10 85.5 -30
t85.5 -48l29 13q22 10 42.5 20t40.5 20l18 -43q-19 -8 -39 -15.5t-39 -16.5l-14 -6q40 -32 75 -72.5t61 -87.5t41 -101.5t15 -114.5v-9q0 -68 -21 -122.5t-56.5 -92t-82 -58t-96.5 -20.5zM298 484q-69 0 -103 -53t-34 -163q0 -113 41.5 -170t104.5 -57q61 0 99 53t38 163
q0 114 -39 170.5t-107 56.5z" />
    <glyph glyph-name="ntilde" unicode="&#xf1;" horiz-adv-x="597" 
d="M45 501l141 43l4 -3l-3 -90h4q19 38 69 67t111 29q81 0 114 -37.5t33 -116.5v-212q0 -43 3.5 -93t15.5 -88h-144q11 36 14 80t3 93v206q0 43 -22.5 62.5t-69.5 19.5q-37 0 -68.5 -12.5t-55.5 -36.5v-239q0 -49 3 -93t14 -80h-144q12 38 15.5 88t3.5 93v188q0 43 -12 79.5
t-29 52.5zM374 700q16 0 31 8t25 35l29 -8q-13 -53 -38.5 -81t-65.5 -28q-35 0 -66.5 12t-59.5 12q-16 0 -31.5 -9t-24.5 -35l-29 8q12 51 38.5 80t66.5 29q35 0 66 -11.5t59 -11.5z" />
    <glyph glyph-name="ograve" unicode="&#xf2;" horiz-adv-x="605" 
d="M307 -12q-55 0 -103.5 19.5t-84 55t-56.5 86.5t-21 113q0 65 21 118t56.5 89.5t82 56.5t96.5 20q55 0 103.5 -19.5t84 -55t56.5 -86t21 -112.5q0 -65 -21 -118t-56.5 -90t-82 -57t-96.5 -20zM298 494q-61 0 -99 -55t-38 -165q0 -114 41.5 -173.5t104.5 -59.5q61 0 99 55
t38 165q0 114 -41.5 173.5t-104.5 59.5zM211 757q52 -33 101 -66t94 -61l-15 -34q-54 18 -109 36.5t-110 35.5z" />
    <glyph glyph-name="oacute" unicode="&#xf3;" horiz-adv-x="605" 
d="M307 -12q-55 0 -103.5 19.5t-84 55t-56.5 86.5t-21 113q0 65 21 118t56.5 89.5t82 56.5t96.5 20q55 0 103.5 -19.5t84 -55t56.5 -86t21 -112.5q0 -65 -21 -118t-56.5 -90t-82 -57t-96.5 -20zM298 494q-61 0 -99 -55t-38 -165q0 -114 41.5 -173.5t104.5 -59.5q61 0 99 55
t38 165q0 114 -41.5 173.5t-104.5 59.5zM400 757l39 -89q-55 -17 -110 -35.5t-109 -36.5l-15 34q45 28 94 61t101 66z" />
    <glyph glyph-name="ocircumflex" unicode="&#xf4;" horiz-adv-x="605" 
d="M307 -12q-55 0 -103.5 19.5t-84 55t-56.5 86.5t-21 113q0 65 21 118t56.5 89.5t82 56.5t96.5 20q55 0 103.5 -19.5t84 -55t56.5 -86t21 -112.5q0 -65 -21 -118t-56.5 -90t-82 -57t-96.5 -20zM298 494q-61 0 -99 -55t-38 -165q0 -114 41.5 -173.5t104.5 -59.5q61 0 99 55
t38 165q0 114 -41.5 173.5t-104.5 59.5zM300 683h-3l-119 -87l-24 27l119 138h51l119 -138l-25 -27z" />
    <glyph glyph-name="otilde" unicode="&#xf5;" horiz-adv-x="605" 
d="M307 -12q-55 0 -103.5 19.5t-84 55t-56.5 86.5t-21 113q0 65 21 118t56.5 89.5t82 56.5t96.5 20q55 0 103.5 -19.5t84 -55t56.5 -86t21 -112.5q0 -65 -21 -118t-56.5 -90t-82 -57t-96.5 -20zM298 494q-61 0 -99 -55t-38 -165q0 -114 41.5 -173.5t104.5 -59.5q61 0 99 55
t38 165q0 114 -41.5 173.5t-104.5 59.5zM371 700q16 0 31 8t25 35l29 -8q-13 -53 -38.5 -81t-65.5 -28q-35 0 -66.5 12t-59.5 12q-16 0 -31.5 -9t-24.5 -35l-29 8q12 51 38.5 80t66.5 29q35 0 66 -11.5t59 -11.5z" />
    <glyph glyph-name="odieresis" unicode="&#xf6;" horiz-adv-x="605" 
d="M307 -12q-55 0 -103.5 19.5t-84 55t-56.5 86.5t-21 113q0 65 21 118t56.5 89.5t82 56.5t96.5 20q55 0 103.5 -19.5t84 -55t56.5 -86t21 -112.5q0 -65 -21 -118t-56.5 -90t-82 -57t-96.5 -20zM298 494q-61 0 -99 -55t-38 -165q0 -114 41.5 -173.5t104.5 -59.5q61 0 99 55
t38 165q0 114 -41.5 173.5t-104.5 59.5zM202 607q-26 0 -41.5 17t-15.5 40t15.5 41t41.5 18q27 0 42.5 -18t15.5 -41t-15.5 -40t-42.5 -17zM396 607q-27 0 -42.5 17t-15.5 40t15.5 41t42.5 18q26 0 41.5 -18t15.5 -41t-15.5 -40t-41.5 -17z" />
    <glyph glyph-name="divide" unicode="&#xf7;" horiz-adv-x="576" 
d="M288 467q-28 0 -45.5 18.5t-17.5 44.5q0 25 17.5 43t45.5 18t45.5 -18t17.5 -43q0 -26 -17.5 -44.5t-45.5 -18.5zM45 327v62h486v-62h-486zM288 124q-28 0 -45.5 18.5t-17.5 44.5q0 25 17.5 43t45.5 18t45.5 -18t17.5 -43q0 -26 -17.5 -44.5t-45.5 -18.5z" />
    <glyph glyph-name="oslash" unicode="&#xf8;" horiz-adv-x="604" 
d="M83 -60q22 34 35.5 56.5t25.5 44.5q-46 36 -74 92.5t-28 128.5q0 65 21 118t56.5 89.5t82 56.5t96.5 20q31 0 59.5 -6t54.5 -18l20 38l20 38h72q-15 -25 -31 -51.5t-32 -53.5q46 -35 74 -91.5t28 -128.5q0 -65 -21 -118t-56.5 -90t-82 -57t-96.5 -20q-31 0 -59.5 6
t-54.5 18q-9 -17 -18 -35t-19 -37h-73zM298 494q-63 0 -101 -55t-38 -165q0 -49 7.5 -87.5t21.5 -66.5l192 345q-17 15 -38 22t-44 7zM446 261q0 49 -7.5 87.5t-21.5 66.5l-192 -345q17 -15 38 -22t44 -7q63 0 100.5 55t38.5 165z" />
    <glyph glyph-name="ugrave" unicode="&#xf9;" horiz-adv-x="599" 
d="M79 378q0 34 -4.5 73.5t-15.5 72.5l128 17v-372q0 -49 21 -77.5t72 -28.5q44 0 77 21t48 46v248q0 34 -4.5 73.5t-16.5 72.5l129 17v-390q0 -61 6 -92t15 -59h-123l-1 82h-3q-7 -15 -20.5 -32t-34 -30.5t-49 -22.5t-65.5 -9q-88 0 -123.5 48.5t-35.5 127.5v214zM198 757
q52 -33 101 -66t94 -61l-15 -34q-54 18 -109 36.5t-110 35.5z" />
    <glyph glyph-name="uacute" unicode="&#xfa;" horiz-adv-x="599" 
d="M79 378q0 34 -4.5 73.5t-15.5 72.5l128 17v-372q0 -49 21 -77.5t72 -28.5q44 0 77 21t48 46v248q0 34 -4.5 73.5t-16.5 72.5l129 17v-390q0 -61 6 -92t15 -59h-123l-1 82h-3q-7 -15 -20.5 -32t-34 -30.5t-49 -22.5t-65.5 -9q-88 0 -123.5 48.5t-35.5 127.5v214zM387 757
l39 -89q-55 -17 -110 -35.5t-109 -36.5l-15 34q45 28 94 61t101 66z" />
    <glyph glyph-name="ucircumflex" unicode="&#xfb;" horiz-adv-x="599" 
d="M79 378q0 34 -4.5 73.5t-15.5 72.5l128 17v-372q0 -49 21 -77.5t72 -28.5q44 0 77 21t48 46v248q0 34 -4.5 73.5t-16.5 72.5l129 17v-390q0 -61 6 -92t15 -59h-123l-1 82h-3q-7 -15 -20.5 -32t-34 -30.5t-49 -22.5t-65.5 -9q-88 0 -123.5 48.5t-35.5 127.5v214zM288 683
h-3l-119 -87l-24 27l119 138h51l119 -138l-25 -27z" />
    <glyph glyph-name="udieresis" unicode="&#xfc;" horiz-adv-x="599" 
d="M79 378q0 34 -4.5 73.5t-15.5 72.5l128 17v-372q0 -49 21 -77.5t72 -28.5q44 0 77 21t48 46v248q0 34 -4.5 73.5t-16.5 72.5l129 17v-390q0 -61 6 -92t15 -59h-123l-1 82h-3q-7 -15 -20.5 -32t-34 -30.5t-49 -22.5t-65.5 -9q-88 0 -123.5 48.5t-35.5 127.5v214zM187 607
q-26 0 -41.5 17t-15.5 40t15.5 41t41.5 18q27 0 42.5 -18t15.5 -41t-15.5 -40t-42.5 -17zM381 607q-27 0 -42.5 17t-15.5 40t15.5 41t42.5 18q26 0 41.5 -18t15.5 -41t-15.5 -40t-41.5 -17z" />
    <glyph glyph-name="yacute" unicode="&#xfd;" horiz-adv-x="526" 
d="M232 15l-149 382q-18 46 -33 77t-31 61h154q-2 -31 5 -61.5t24 -78.5l85 -243h4l87 249q14 40 18 73t-1 61h113q-15 -30 -32.5 -66.5t-37.5 -88.5l-119 -317q-53 -139 -104.5 -207.5t-121.5 -68.5q-33 0 -50 15.5t-17 39.5q0 22 13.5 35t34.5 13q23 0 34 -8.5t26 -8.5
q22 0 49 38.5t49 103.5zM374 757l39 -89q-55 -17 -110 -35.5t-109 -36.5l-15 34q45 28 94 61t101 66z" />
    <glyph glyph-name="thorn" unicode="&#xfe;" horiz-adv-x="604" 
d="M180 -27q0 -49 5.5 -97t16.5 -84h-148q12 38 15.5 88t3.5 93v633q0 43 -12 79.5t-29 52.5l145 43l4 -3l-3 -126v-193h3q14 31 58 59.5t110 28.5q44 0 82.5 -16.5t66.5 -48.5t44 -81.5t16 -114.5q0 -55 -15 -109t-47 -95.5t-82.5 -67.5t-120.5 -26q-29 0 -60 7.5t-53 18.5
v-41zM180 93q16 -16 44.5 -33.5t66.5 -17.5q80 0 115.5 60.5t35.5 168.5q0 99 -36 149t-109 50q-33 0 -67.5 -18t-49.5 -38v-321z" />
    <glyph glyph-name="ydieresis" unicode="&#xff;" horiz-adv-x="526" 
d="M232 15l-149 382q-18 46 -33 77t-31 61h154q-2 -31 5 -61.5t24 -78.5l85 -243h4l87 249q14 40 18 73t-1 61h113q-15 -30 -32.5 -66.5t-37.5 -88.5l-119 -317q-53 -139 -104.5 -207.5t-121.5 -68.5q-33 0 -50 15.5t-17 39.5q0 22 13.5 35t34.5 13q23 0 34 -8.5t26 -8.5
q22 0 49 38.5t49 103.5zM174 607q-26 0 -41.5 17t-15.5 40t15.5 41t41.5 18q27 0 42.5 -18t15.5 -41t-15.5 -40t-42.5 -17zM368 607q-27 0 -42.5 17t-15.5 40t15.5 41t42.5 18q26 0 41.5 -18t15.5 -41t-15.5 -40t-41.5 -17z" />
    <glyph glyph-name="Amacron" unicode="&#x100;" horiz-adv-x="663" 
d="M448 153q-7 17 -14.5 39t-16.5 46h-229q-11 -32 -19 -55.5t-11 -32.5q-18 -55 -9.5 -97.5t15.5 -52.5h-156q22 30 39.5 63t39.5 97q21 56 47 125.5t53 143t54.5 147t51.5 136.5l71 22q24 -69 51.5 -145t55 -151.5t54.5 -150t50 -139.5q15 -42 35.5 -84t40.5 -64h-202
q7 12 10 30.5t2.5 40t-4 43t-9.5 39.5zM297 555q-8 -24 -19 -55t-22.5 -65.5t-24 -70.5t-24.5 -69h190q-25 70 -51 142t-43 118h-6zM328 836h34t29 0.5t31 1t41 0.5l-5 -63q-25 0 -37.5 0.5t-23.5 0.5h-26h-44h-34t-29.5 -0.5t-31 -0.5h-40.5l5 63q24 -1 39.5 -1.5
t28.5 -0.5h27h36z" />
    <glyph glyph-name="amacron" unicode="&#x101;" horiz-adv-x="518" 
d="M115 376q-19 0 -35 12.5t-16 37.5q0 27 17.5 49.5t45.5 38.5t64 24.5t73 8.5q95 0 135 -40.5t40 -120.5v-205q0 -43 3 -93t15 -88h-114q-2 16 -3.5 38.5t-1.5 36.5h-4q-19 -35 -52.5 -61t-94.5 -26q-66 0 -104.5 38t-39.5 95q-1 49 33 86t104 62l151 52v72q0 54 -24.5 77
t-70.5 23q-30 0 -44.5 -11.5t-20.5 -41.5q-7 -34 -20 -49t-36 -15zM154 138q0 -38 21.5 -60t58.5 -22t62 19t35 43v164l-94 -37q-44 -18 -63.5 -41t-19.5 -66zM251 672h33.5t28.5 0.5t30.5 0.5h40.5l-5 -58q-25 0 -37.5 0.5t-23 0.5h-25h-43.5h-33.5t-29 -0.5t-31 -0.5
h-40.5l5 58q25 0 40.5 -0.5t28 -0.5h26.5h35z" />
    <glyph glyph-name="Abreve" unicode="&#x102;" horiz-adv-x="663" 
d="M448 153q-7 17 -14.5 39t-16.5 46h-229q-11 -32 -19 -55.5t-11 -32.5q-18 -55 -9.5 -97.5t15.5 -52.5h-156q22 30 39.5 63t39.5 97q21 56 47 125.5t53 143t54.5 147t51.5 136.5l71 22q24 -69 51.5 -145t55 -151.5t54.5 -150t50 -139.5q15 -42 35.5 -84t40.5 -64h-202
q7 12 10 30.5t2.5 40t-4 43t-9.5 39.5zM297 555q-8 -24 -19 -55t-22.5 -65.5t-24 -70.5t-24.5 -69h190q-25 70 -51 142t-43 118h-6zM328 845q37 0 66 15.5t39 45.5l39 -10q-12 -69 -52.5 -95.5t-91.5 -26.5t-92 26.5t-53 95.5l40 10q10 -30 39 -45.5t66 -15.5z" />
    <glyph glyph-name="abreve" unicode="&#x103;" horiz-adv-x="518" 
d="M115 376q-19 0 -35 12.5t-16 37.5q0 27 17.5 49.5t45.5 38.5t64 24.5t73 8.5q95 0 135 -40.5t40 -120.5v-205q0 -43 3 -93t15 -88h-114q-2 16 -3.5 38.5t-1.5 36.5h-4q-19 -35 -52.5 -61t-94.5 -26q-66 0 -104.5 38t-39.5 95q-1 49 33 86t104 62l151 52v72q0 54 -24.5 77
t-70.5 23q-30 0 -44.5 -11.5t-20.5 -41.5q-7 -34 -20 -49t-36 -15zM154 138q0 -38 21.5 -60t58.5 -22t62 19t35 43v164l-94 -37q-44 -18 -63.5 -41t-19.5 -66zM251 663q37 0 60 15.5t33 49.5l39 -10q-15 -69 -50.5 -95.5t-81.5 -26.5t-82 26.5t-51 95.5l40 10
q10 -34 33 -49.5t60 -15.5z" />
    <glyph glyph-name="Aogonek" unicode="&#x104;" horiz-adv-x="663" 
d="M448 153q-7 17 -14.5 39t-16.5 46h-229q-11 -32 -19 -55.5t-11 -32.5q-18 -55 -9.5 -97.5t15.5 -52.5h-156q22 30 39.5 63t39.5 97q21 56 47 125.5t53 143t54.5 147t51.5 136.5l71 22q24 -69 51.5 -145t55 -151.5t54.5 -150t50 -139.5q15 -42 35.5 -84t40.5 -64h-202
q7 12 10 30.5t2.5 40t-4 43t-9.5 39.5zM297 555q-8 -24 -19 -55t-22.5 -65.5t-24 -70.5t-24.5 -69h190q-25 70 -51 142t-43 118h-6zM596 0q-24 -26 -39 -53.5t-15 -58.5q0 -28 13.5 -40.5t32.5 -12.5q15 0 26 3.5t23 8.5l-8 -50q-10 -5 -26.5 -8t-34.5 -3q-59 0 -90 22.5
t-31 64.5q0 21 10.5 40t26.5 35t35 29t37 23h40z" />
    <glyph glyph-name="aogonek" unicode="&#x105;" horiz-adv-x="518" 
d="M122 376q-19 0 -35 12.5t-16 37.5q0 27 17.5 49.5t45.5 38.5t64 24.5t73 8.5q95 0 135 -40.5t40 -120.5v-205q0 -43 3 -93t15 -88h-114q-2 16 -3.5 38.5t-1.5 36.5h-4q-19 -35 -52.5 -61t-94.5 -26q-66 0 -104.5 38t-39.5 95q-1 49 33 86t104 62l151 52v72q0 54 -24.5 77
t-70.5 23q-30 0 -44.5 -11.5t-20.5 -41.5q-7 -34 -20 -49t-36 -15zM161 138q0 -38 21.5 -60t58.5 -22t62 19t35 43v164l-94 -37q-44 -18 -63.5 -41t-19.5 -66zM429 0q-24 -26 -39 -53.5t-15 -58.5q0 -28 13.5 -40.5t32.5 -12.5q15 0 26 3.5t23 8.5l-8 -50q-10 -5 -26.5 -8
t-34.5 -3q-59 0 -90 22.5t-31 64.5q0 21 10.5 40t26.5 35t35 29t37 23h40z" />
    <glyph glyph-name="Cacute" unicode="&#x106;" horiz-adv-x="682" 
d="M398 46q43 0 76.5 12.5t59.5 31.5t46.5 42.5t37.5 44.5h9l-10 -124q-32 -25 -90 -45t-137 -20q-76 0 -139.5 25.5t-108.5 73.5t-70 117.5t-25 156.5q0 88 29.5 158t77.5 117.5t111 72.5t130 25q60 0 117.5 -11.5t93.5 -33.5l13 -132h-10q-44 57 -94.5 88t-119.5 31
q-100 0 -157 -80.5t-57 -225.5q0 -155 59.5 -239.5t157.5 -84.5zM484 910l34 -93q-62 -16 -114 -28t-107 -25l-14 33q48 27 94.5 53t106.5 60z" />
    <glyph glyph-name="cacute" unicode="&#x107;" horiz-adv-x="512" 
d="M476 117q-7 -24 -22.5 -47t-39 -41t-56.5 -29.5t-75 -11.5q-50 0 -94.5 18t-76.5 52t-51 83.5t-19 112.5q0 72 23 126.5t60 91.5t84.5 55.5t97.5 18.5q88 0 125.5 -33t37.5 -71q0 -28 -14 -44t-42 -16q-25 0 -37.5 16.5t-16.5 47.5q-2 31 -13 39.5t-45 8.5
q-61 0 -106 -55.5t-45 -152.5q0 -108 46.5 -160.5t121.5 -52.5q51 0 90.5 16.5t64.5 44.5zM393 757l39 -89q-55 -17 -110 -35.5t-109 -36.5l-15 34q45 28 94 61t101 66z" />
    <glyph glyph-name="Ccircumflex" unicode="&#x108;" horiz-adv-x="682" 
d="M398 46q43 0 76.5 12.5t59.5 31.5t46.5 42.5t37.5 44.5h9l-10 -124q-32 -25 -90 -45t-137 -20q-76 0 -139.5 25.5t-108.5 73.5t-70 117.5t-25 156.5q0 88 29.5 158t77.5 117.5t111 72.5t130 25q60 0 117.5 -11.5t93.5 -33.5l13 -132h-10q-44 57 -94.5 88t-119.5 31
q-100 0 -157 -80.5t-57 -225.5q0 -155 59.5 -239.5t157.5 -84.5zM387 850h-3l-131 -76l-24 27l125 127h63l124 -127l-24 -27z" />
    <glyph glyph-name="ccircumflex" unicode="&#x109;" horiz-adv-x="512" 
d="M476 117q-7 -24 -22.5 -47t-39 -41t-56.5 -29.5t-75 -11.5q-50 0 -94.5 18t-76.5 52t-51 83.5t-19 112.5q0 72 23 126.5t60 91.5t84.5 55.5t97.5 18.5q88 0 125.5 -33t37.5 -71q0 -28 -14 -44t-42 -16q-25 0 -37.5 16.5t-16.5 47.5q-2 31 -13 39.5t-45 8.5
q-61 0 -106 -55.5t-45 -152.5q0 -108 46.5 -160.5t121.5 -52.5q51 0 90.5 16.5t64.5 44.5zM293 683h-3l-119 -87l-24 27l119 138h51l119 -138l-25 -27z" />
    <glyph glyph-name="Cdotaccent" unicode="&#x10a;" horiz-adv-x="682" 
d="M398 46q43 0 76.5 12.5t59.5 31.5t46.5 42.5t37.5 44.5h9l-10 -124q-32 -25 -90 -45t-137 -20q-76 0 -139.5 25.5t-108.5 73.5t-70 117.5t-25 156.5q0 88 29.5 158t77.5 117.5t111 72.5t130 25q60 0 117.5 -11.5t93.5 -33.5l13 -132h-10q-44 57 -94.5 88t-119.5 31
q-100 0 -157 -80.5t-57 -225.5q0 -155 59.5 -239.5t157.5 -84.5zM385 771q-31 0 -50 19t-19 47t19 47t50 19t49.5 -19t18.5 -47t-18.5 -47t-49.5 -19z" />
    <glyph glyph-name="cdotaccent" unicode="&#x10b;" horiz-adv-x="512" 
d="M476 117q-7 -24 -22.5 -47t-39 -41t-56.5 -29.5t-75 -11.5q-50 0 -94.5 18t-76.5 52t-51 83.5t-19 112.5q0 72 23 126.5t60 91.5t84.5 55.5t97.5 18.5q88 0 125.5 -33t37.5 -71q0 -28 -14 -44t-42 -16q-25 0 -37.5 16.5t-16.5 47.5q-2 31 -13 39.5t-45 8.5
q-61 0 -106 -55.5t-45 -152.5q0 -108 46.5 -160.5t121.5 -52.5q51 0 90.5 16.5t64.5 44.5zM292 619q-30 0 -49 18.5t-19 45.5t19 46t49 19t49 -19t19 -46t-19 -45.5t-49 -18.5z" />
    <glyph glyph-name="Ccaron" unicode="&#x10c;" horiz-adv-x="682" 
d="M398 46q43 0 76.5 12.5t59.5 31.5t46.5 42.5t37.5 44.5h9l-10 -124q-32 -25 -90 -45t-137 -20q-76 0 -139.5 25.5t-108.5 73.5t-70 117.5t-25 156.5q0 88 29.5 158t77.5 117.5t111 72.5t130 25q60 0 117.5 -11.5t93.5 -33.5l13 -132h-10q-44 57 -94.5 88t-119.5 31
q-100 0 -157 -80.5t-57 -225.5q0 -155 59.5 -239.5t157.5 -84.5zM387 853l130 76l24 -27l-124 -127h-63l-125 127l24 27l131 -76h3z" />
    <glyph glyph-name="ccaron" unicode="&#x10d;" horiz-adv-x="512" 
d="M476 117q-7 -24 -22.5 -47t-39 -41t-56.5 -29.5t-75 -11.5q-50 0 -94.5 18t-76.5 52t-51 83.5t-19 112.5q0 72 23 126.5t60 91.5t84.5 55.5t97.5 18.5q88 0 125.5 -33t37.5 -71q0 -28 -14 -44t-42 -16q-25 0 -37.5 16.5t-16.5 47.5q-2 31 -13 39.5t-45 8.5
q-61 0 -106 -55.5t-45 -152.5q0 -108 46.5 -160.5t121.5 -52.5q51 0 90.5 16.5t64.5 44.5zM293 679l118 87l25 -27l-119 -138h-51l-119 138l24 27l119 -87h3z" />
    <glyph glyph-name="Dcaron" unicode="&#x10e;" horiz-adv-x="721" 
d="M91 534q0 43 -6 95.5t-19 92.5h207q78 0 150.5 -19t128 -61t89 -111.5t33.5 -169.5t-34 -169.5t-89.5 -111.5t-128 -61t-149.5 -19h-207q13 40 19 92.5t6 95.5v346zM550 361q0 91 -23 150t-61.5 92.5t-89.5 47t-107 13.5h-58v-607h58q55 0 106 13.5t90 47.5t62 93t23 150
zM318 853l130 76l24 -27l-124 -127h-63l-125 127l24 27l131 -76h3z" />
    <glyph glyph-name="dcaron" unicode="&#x10f;" horiz-adv-x="615" 
d="M307 547q37 0 68 -7t47 -17v80q0 44 -13 79t-29 52l148 47l8 -6q-4 -33 -5.5 -64t-1.5 -78v-474q0 -60 6 -95.5t15 -63.5h-123l-2 80h-4q-16 -37 -54 -64.5t-101 -27.5q-42 0 -81.5 16.5t-70.5 49.5t-49.5 83t-18.5 115q0 75 24.5 131t62 92t84 54t90.5 18zM422 123v280
q-1 43 -34.5 67t-88.5 24q-60 0 -100 -53t-40 -154q0 -110 44 -167t105 -57q40 0 71 18.5t43 41.5zM623 575l-40 8q9 55 15 98.5t12 97.5l94 -23q-21 -43 -40.5 -86t-40.5 -95z" />
    <glyph glyph-name="Dcroat" unicode="&#x110;" horiz-adv-x="751" 
d="M121 534q0 43 -6 95.5t-19 92.5h207q78 0 150.5 -19t128 -61t89 -111.5t33.5 -169.5t-34 -169.5t-89.5 -111.5t-128 -61t-149.5 -19h-207q13 40 19 92.5t6 95.5v162q-22 0 -42.5 -1t-54.5 -2l5 69q31 -1 52 -1.5t40 -0.5v120zM289 414q34 0 58 1.5t65 3.5l-5 -73
q-29 1 -60.5 2.5t-65.5 1.5h-40v-293h58q55 0 106 13.5t90 47.5t62 93t23 150t-23 150t-61.5 92.5t-89.5 47t-107 13.5h-58v-250h48z" />
    <glyph glyph-name="dcroat" unicode="&#x111;" horiz-adv-x="634" 
d="M307 547q37 0 68 -7t47 -17v90h-80q-28 0 -52.5 -1t-62.5 -2l5 51q38 -1 64 -1.5t54 -0.5h71q-4 24 -15.5 42.5t-24.5 32.5l147 47l8 -6q-4 -28 -5.5 -54t-1.5 -61q16 0 33 1t42 2l-5 -54q-18 1 -35 1.5t-35 1.5v-453q0 -60 6 -95.5t15 -63.5h-123l-2 80h-4
q-16 -37 -54 -64.5t-101 -27.5q-42 0 -81.5 16.5t-70.5 49.5t-49.5 83t-18.5 115q0 75 24.5 131t62 92t84 54t90.5 18zM422 123v280q-1 43 -34.5 67t-88.5 24q-60 0 -100 -53t-40 -154q0 -110 44 -167t105 -57q40 0 71 18.5t43 41.5z" />
    <glyph glyph-name="Emacron" unicode="&#x112;" horiz-adv-x="552" 
d="M494 0h-428q13 40 19 92.5t6 95.5v346q0 43 -6 95.5t-19 92.5h422l-4 -89q-42 18 -94.5 25.5t-96.5 7.5h-82v-259h82q32 0 74.5 4t74.5 10l-10 -87q-30 9 -70 13t-75 4h-76v-295h70q27 0 59 2.5t63 7t59.5 11.5t48.5 16zM289 836h34t29 0.5t31 1t41 0.5l-5 -63
q-25 0 -37.5 0.5t-23.5 0.5h-26h-44h-34t-29.5 -0.5t-31 -0.5h-40.5l5 63q24 -1 39.5 -1.5t28.5 -0.5h27h36z" />
    <glyph glyph-name="emacron" unicode="&#x113;" horiz-adv-x="532" 
d="M494 122q-19 -52 -71 -93t-140 -41q-47 0 -91 16.5t-77 49.5t-53 83.5t-20 116.5q0 65 18 119t50 92.5t76.5 60t96.5 21.5q107 0 157.5 -65t50.5 -190h-340v-12q0 -111 49.5 -158t125.5 -47q69 0 108 22.5t58 43.5zM281 495q-53 0 -85.5 -40.5t-41.5 -116.5l225 6
q-2 72 -21.5 111.5t-76.5 39.5zM277 672h33.5t28.5 0.5t30.5 0.5h40.5l-5 -58q-25 0 -37.5 0.5t-23 0.5h-25h-43.5h-33.5t-29 -0.5t-31 -0.5h-40.5l5 58q25 0 40.5 -0.5t28 -0.5h26.5h35z" />
    <glyph glyph-name="Ebreve" unicode="&#x114;" horiz-adv-x="552" 
d="M494 0h-428q13 40 19 92.5t6 95.5v346q0 43 -6 95.5t-19 92.5h422l-4 -89q-42 18 -94.5 25.5t-96.5 7.5h-82v-259h82q32 0 74.5 4t74.5 10l-10 -87q-30 9 -70 13t-75 4h-76v-295h70q27 0 59 2.5t63 7t59.5 11.5t48.5 16zM289 845q37 0 66 15.5t39 45.5l39 -10
q-12 -69 -52.5 -95.5t-91.5 -26.5t-92 26.5t-53 95.5l40 10q10 -30 39 -45.5t66 -15.5z" />
    <glyph glyph-name="ebreve" unicode="&#x115;" horiz-adv-x="532" 
d="M494 122q-19 -52 -71 -93t-140 -41q-47 0 -91 16.5t-77 49.5t-53 83.5t-20 116.5q0 65 18 119t50 92.5t76.5 60t96.5 21.5q107 0 157.5 -65t50.5 -190h-340v-12q0 -111 49.5 -158t125.5 -47q69 0 108 22.5t58 43.5zM281 495q-53 0 -85.5 -40.5t-41.5 -116.5l225 6
q-2 72 -21.5 111.5t-76.5 39.5zM277 663q37 0 60 15.5t33 49.5l39 -10q-15 -69 -50.5 -95.5t-81.5 -26.5t-82 26.5t-51 95.5l40 10q10 -34 33 -49.5t60 -15.5z" />
    <glyph glyph-name="Edotaccent" unicode="&#x116;" horiz-adv-x="552" 
d="M494 0h-428q13 40 19 92.5t6 95.5v346q0 43 -6 95.5t-19 92.5h422l-4 -89q-42 18 -94.5 25.5t-96.5 7.5h-82v-259h82q32 0 74.5 4t74.5 10l-10 -87q-30 9 -70 13t-75 4h-76v-295h70q27 0 59 2.5t63 7t59.5 11.5t48.5 16zM289 771q-31 0 -50 19t-19 47t19 47t50 19
t49.5 -19t18.5 -47t-18.5 -47t-49.5 -19z" />
    <glyph glyph-name="edotaccent" unicode="&#x117;" horiz-adv-x="532" 
d="M494 122q-19 -52 -71 -93t-140 -41q-47 0 -91 16.5t-77 49.5t-53 83.5t-20 116.5q0 65 18 119t50 92.5t76.5 60t96.5 21.5q107 0 157.5 -65t50.5 -190h-340v-12q0 -111 49.5 -158t125.5 -47q69 0 108 22.5t58 43.5zM281 495q-53 0 -85.5 -40.5t-41.5 -116.5l225 6
q-2 72 -21.5 111.5t-76.5 39.5zM277 619q-30 0 -49 18.5t-19 45.5t19 46t49 19t49 -19t19 -46t-19 -45.5t-49 -18.5z" />
    <glyph glyph-name="Eogonek" unicode="&#x118;" horiz-adv-x="552" 
d="M494 0h-428q13 40 19 92.5t6 95.5v346q0 43 -6 95.5t-19 92.5h422l-4 -89q-42 18 -94.5 25.5t-96.5 7.5h-82v-259h82q32 0 74.5 4t74.5 10l-10 -87q-30 9 -70 13t-75 4h-76v-295h70q27 0 59 2.5t63 7t59.5 11.5t48.5 16zM428 0q-24 -26 -39 -53.5t-15 -58.5
q0 -28 13.5 -40.5t32.5 -12.5q15 0 26 3.5t23 8.5l-8 -50q-10 -5 -26.5 -8t-34.5 -3q-59 0 -90 22.5t-31 64.5q0 21 10.5 40t26.5 35t35 29t37 23h40z" />
    <glyph glyph-name="eogonek" unicode="&#x119;" horiz-adv-x="532" 
d="M420 -203q-10 -5 -26 -8t-34 -3q-59 0 -90 22.5t-31 64.5q0 38 31 69t65 50q-12 -1 -25.5 -2.5t-26.5 -1.5q-47 0 -91 16.5t-77 49.5t-53 83.5t-20 116.5q0 65 18 119t50 92.5t76.5 60t96.5 21.5q107 0 157.5 -65t50.5 -190h-340v-12q0 -111 49.5 -158t125.5 -47
q69 0 108 22.5t58 43.5l2 -19q-10 -26 -27 -49.5t-42 -42.5q-51 -40 -71 -75.5t-20 -66.5q0 -28 13.5 -40.5t32.5 -12.5q15 0 26 3.5t23 8.5zM281 495q-53 0 -85.5 -40.5t-41.5 -116.5l225 6q-2 72 -21.5 111.5t-76.5 39.5z" />
    <glyph glyph-name="Ecaron" unicode="&#x11a;" horiz-adv-x="552" 
d="M494 0h-428q13 40 19 92.5t6 95.5v346q0 43 -6 95.5t-19 92.5h422l-4 -89q-42 18 -94.5 25.5t-96.5 7.5h-82v-259h82q32 0 74.5 4t74.5 10l-10 -87q-30 9 -70 13t-75 4h-76v-295h70q27 0 59 2.5t63 7t59.5 11.5t48.5 16zM291 853l130 76l24 -27l-124 -127h-63l-125 127
l24 27l131 -76h3z" />
    <glyph glyph-name="ecaron" unicode="&#x11b;" horiz-adv-x="532" 
d="M494 122q-19 -52 -71 -93t-140 -41q-47 0 -91 16.5t-77 49.5t-53 83.5t-20 116.5q0 65 18 119t50 92.5t76.5 60t96.5 21.5q107 0 157.5 -65t50.5 -190h-340v-12q0 -111 49.5 -158t125.5 -47q69 0 108 22.5t58 43.5zM281 495q-53 0 -85.5 -40.5t-41.5 -116.5l225 6
q-2 72 -21.5 111.5t-76.5 39.5zM278 679l118 87l25 -27l-119 -138h-51l-119 138l24 27l119 -87h3z" />
    <glyph glyph-name="Gcircumflex" unicode="&#x11c;" horiz-adv-x="712" 
d="M641 165v-99q-36 -34 -105.5 -56t-155.5 -22q-75 0 -136.5 25.5t-105 73.5t-67.5 117.5t-24 156.5q0 88 30 158t79.5 117.5t113 72.5t130.5 25q60 0 118 -12t94 -33l7 -134h-5q-47 53 -96 86.5t-118 33.5q-100 0 -159.5 -80t-59.5 -225q0 -155 56 -239.5t150 -84.5
q45 0 79.5 5.5t61.5 21.5v92q0 41 -5.5 88.5t-18.5 85.5h158q-10 -38 -15.5 -85.5t-5.5 -88.5zM390 850h-3l-131 -76l-24 27l125 127h63l124 -127l-24 -27z" />
    <glyph glyph-name="gcircumflex" unicode="&#x11d;" horiz-adv-x="582" 
d="M260 175q-22 0 -44 3.5t-42 10.5q-16 -10 -23 -21.5t-7 -27.5q0 -19 13.5 -30t39.5 -11q24 0 52 1t57 1.5t57.5 1.5t52.5 1q66 0 103 -31t37 -91q0 -44 -22 -80.5t-62 -62t-97 -39.5t-126 -14q-122 0 -177.5 35t-55.5 77q0 43 36 71t84 41v4q-25 4 -49.5 26t-24.5 61
q0 38 22 63t54 35v4q-42 22 -68 60.5t-26 91.5q0 44 17.5 79.5t47 60.5t69 38.5t82.5 13.5q35 0 68.5 -8t60.5 -24l161 48v-103q-22 3 -55.5 9.5t-61.5 7.5q20 -20 32 -47t12 -61q0 -44 -18 -80t-47.5 -61t-69 -39t-82.5 -14zM258 497q-47 0 -76 -33t-29 -107
q0 -65 31.5 -98.5t77.5 -33.5t77 34t31 108q0 65 -33 97.5t-79 32.5zM114 -87q0 -37 33 -58.5t102 -21.5q110 0 167 33t57 74q0 37 -19.5 50t-53.5 13q-22 0 -56 -1t-68.5 -2.5t-62.5 -2.5t-38 -2q-25 -4 -43 -27t-18 -55zM266 683h-3l-119 -87l-24 27l119 138h51l119 -138
l-25 -27z" />
    <glyph glyph-name="Gbreve" unicode="&#x11e;" horiz-adv-x="712" 
d="M641 165v-99q-36 -34 -105.5 -56t-155.5 -22q-75 0 -136.5 25.5t-105 73.5t-67.5 117.5t-24 156.5q0 88 30 158t79.5 117.5t113 72.5t130.5 25q60 0 118 -12t94 -33l7 -134h-5q-47 53 -96 86.5t-118 33.5q-100 0 -159.5 -80t-59.5 -225q0 -155 56 -239.5t150 -84.5
q45 0 79.5 5.5t61.5 21.5v92q0 41 -5.5 88.5t-18.5 85.5h158q-10 -38 -15.5 -85.5t-5.5 -88.5zM389 845q37 0 66 15.5t39 45.5l39 -10q-12 -69 -52.5 -95.5t-91.5 -26.5t-92 26.5t-53 95.5l40 10q10 -30 39 -45.5t66 -15.5z" />
    <glyph glyph-name="gbreve" unicode="&#x11f;" horiz-adv-x="582" 
d="M260 175q-22 0 -44 3.5t-42 10.5q-16 -10 -23 -21.5t-7 -27.5q0 -19 13.5 -30t39.5 -11q24 0 52 1t57 1.5t57.5 1.5t52.5 1q66 0 103 -31t37 -91q0 -44 -22 -80.5t-62 -62t-97 -39.5t-126 -14q-122 0 -177.5 35t-55.5 77q0 43 36 71t84 41v4q-25 4 -49.5 26t-24.5 61
q0 38 22 63t54 35v4q-42 22 -68 60.5t-26 91.5q0 44 17.5 79.5t47 60.5t69 38.5t82.5 13.5q35 0 68.5 -8t60.5 -24l161 48v-103q-22 3 -55.5 9.5t-61.5 7.5q20 -20 32 -47t12 -61q0 -44 -18 -80t-47.5 -61t-69 -39t-82.5 -14zM258 497q-47 0 -76 -33t-29 -107
q0 -65 31.5 -98.5t77.5 -33.5t77 34t31 108q0 65 -33 97.5t-79 32.5zM114 -87q0 -37 33 -58.5t102 -21.5q110 0 167 33t57 74q0 37 -19.5 50t-53.5 13q-22 0 -56 -1t-68.5 -2.5t-62.5 -2.5t-38 -2q-25 -4 -43 -27t-18 -55zM265 663q37 0 60 15.5t33 49.5l39 -10
q-15 -69 -50.5 -95.5t-81.5 -26.5t-82 26.5t-51 95.5l40 10q10 -34 33 -49.5t60 -15.5z" />
    <glyph glyph-name="Gdotaccent" unicode="&#x120;" horiz-adv-x="712" 
d="M641 165v-99q-36 -34 -105.5 -56t-155.5 -22q-75 0 -136.5 25.5t-105 73.5t-67.5 117.5t-24 156.5q0 88 30 158t79.5 117.5t113 72.5t130.5 25q60 0 118 -12t94 -33l7 -134h-5q-47 53 -96 86.5t-118 33.5q-100 0 -159.5 -80t-59.5 -225q0 -155 56 -239.5t150 -84.5
q45 0 79.5 5.5t61.5 21.5v92q0 41 -5.5 88.5t-18.5 85.5h158q-10 -38 -15.5 -85.5t-5.5 -88.5zM389 771q-31 0 -50 19t-19 47t19 47t50 19t49.5 -19t18.5 -47t-18.5 -47t-49.5 -19z" />
    <glyph glyph-name="gdotaccent" unicode="&#x121;" horiz-adv-x="582" 
d="M260 175q-22 0 -44 3.5t-42 10.5q-16 -10 -23 -21.5t-7 -27.5q0 -19 13.5 -30t39.5 -11q24 0 52 1t57 1.5t57.5 1.5t52.5 1q66 0 103 -31t37 -91q0 -44 -22 -80.5t-62 -62t-97 -39.5t-126 -14q-122 0 -177.5 35t-55.5 77q0 43 36 71t84 41v4q-25 4 -49.5 26t-24.5 61
q0 38 22 63t54 35v4q-42 22 -68 60.5t-26 91.5q0 44 17.5 79.5t47 60.5t69 38.5t82.5 13.5q35 0 68.5 -8t60.5 -24l161 48v-103q-22 3 -55.5 9.5t-61.5 7.5q20 -20 32 -47t12 -61q0 -44 -18 -80t-47.5 -61t-69 -39t-82.5 -14zM258 497q-47 0 -76 -33t-29 -107
q0 -65 31.5 -98.5t77.5 -33.5t77 34t31 108q0 65 -33 97.5t-79 32.5zM114 -87q0 -37 33 -58.5t102 -21.5q110 0 167 33t57 74q0 37 -19.5 50t-53.5 13q-22 0 -56 -1t-68.5 -2.5t-62.5 -2.5t-38 -2q-25 -4 -43 -27t-18 -55zM265 619q-30 0 -49 18.5t-19 45.5t19 46t49 19
t49 -19t19 -46t-19 -45.5t-49 -18.5z" />
    <glyph glyph-name="uni0122" unicode="&#x122;" horiz-adv-x="712" 
d="M641 165v-99q-36 -34 -105.5 -56t-155.5 -22q-75 0 -136.5 25.5t-105 73.5t-67.5 117.5t-24 156.5q0 88 30 158t79.5 117.5t113 72.5t130.5 25q60 0 118 -12t94 -33l7 -134h-5q-47 53 -96 86.5t-118 33.5q-100 0 -159.5 -80t-59.5 -225q0 -155 56 -239.5t150 -84.5
q45 0 79.5 5.5t61.5 21.5v92q0 41 -5.5 88.5t-18.5 85.5h158q-10 -38 -15.5 -85.5t-5.5 -88.5zM288 -183q28 21 38 53.5t12 80.5l98 -10q-2 -45 -40 -83t-95 -61z" />
    <glyph glyph-name="uni0123" unicode="&#x123;" horiz-adv-x="579" 
d="M260 175q-22 0 -44 3.5t-42 10.5q-16 -10 -23 -21.5t-7 -27.5q0 -19 13.5 -30t39.5 -11q24 0 52 1t57 1.5t57.5 1.5t52.5 1q66 0 103 -31t37 -91q0 -44 -22 -80.5t-62 -62t-97 -39.5t-126 -14q-122 0 -177.5 35t-55.5 77q0 43 36 71t84 41v4q-25 4 -49.5 26t-24.5 61
q0 38 22 63t54 35v4q-42 22 -68 60.5t-26 91.5q0 44 17.5 79.5t47 60.5t69 38.5t82.5 13.5q35 0 68.5 -8t60.5 -24l161 48v-103q-22 3 -55.5 9.5t-61.5 7.5q20 -20 32 -47t12 -61q0 -44 -18 -80t-47.5 -61t-69 -39t-82.5 -14zM258 497q-47 0 -76 -33t-29 -107
q0 -65 31.5 -98.5t77.5 -33.5t77 34t31 108q0 65 -33 97.5t-79 32.5zM114 -87q0 -37 33 -58.5t102 -21.5q110 0 167 33t57 74q0 37 -19.5 50t-53.5 13q-22 0 -56 -1t-68.5 -2.5t-62.5 -2.5t-38 -2q-25 -4 -43 -27t-18 -55zM357 732q-28 -21 -38 -53.5t-12 -80.5l-98 10
q2 45 40 83t95 61z" />
    <glyph glyph-name="Hcircumflex" unicode="&#x124;" horiz-adv-x="741" 
d="M211 188q0 -43 6 -95.5t16 -92.5h-167q13 40 19 92.5t6 95.5v346q0 43 -6 95.5t-19 92.5h167q-10 -40 -16 -92.5t-6 -95.5v-141h319v141q0 43 -5.5 95.5t-18.5 92.5h166q-10 -40 -16 -92.5t-6 -95.5v-346q0 -43 6 -95.5t16 -92.5h-166q13 40 18.5 92.5t5.5 95.5v151h-319
v-151zM372 850h-3l-131 -76l-24 27l125 127h63l124 -127l-24 -27z" />
    <glyph glyph-name="hcircumflex" unicode="&#x125;" horiz-adv-x="598" 
d="M519 181q0 -43 3.5 -93t15.5 -88h-144q11 36 14 80t3 93v206q0 43 -23 62.5t-70 19.5q-37 0 -69 -10t-55 -34v-244q0 -49 3 -93t14 -80h-143q12 38 15 88t3 93v424q0 44 -11 78.5t-27 51.5l143 47l8 -6l-5 -158v-160h3q19 37 66 63t108 26q81 0 114.5 -37t33.5 -116v-213
zM316 882h-3l-131 -76l-24 27l125 127h63l124 -127l-24 -27z" />
    <glyph glyph-name="Hbar" unicode="&#x126;" horiz-adv-x="834" 
d="M257 188q0 -43 6 -95.5t16 -92.5h-167q13 40 19 92.5t6 95.5v327q-31 0 -52 -1l-63 -3l4 60q39 -1 61 -1.5t49 -0.5q-1 39 -7 80t-17 73h167q-8 -32 -13.5 -73t-7.5 -80h317q-1 39 -7 80t-16 73h166q-8 -32 -13.5 -73t-7.5 -80q31 0 53 1.5t62 2.5l-4 -63
q-26 2 -54.5 3.5t-57.5 1.5v-327q0 -43 6 -95.5t16 -92.5h-166q13 40 18.5 92.5t5.5 95.5v151h-319v-151zM257 393h319v122h-319v-122z" />
    <glyph glyph-name="hbar" unicode="&#x127;" horiz-adv-x="617" 
d="M538 181q0 -43 3 -93t15 -88h-143q11 36 14 80t3 93v206q0 43 -23 62.5t-70 19.5q-37 0 -69 -10t-56 -34v-244q0 -49 3 -93t14 -80h-143q12 38 15.5 88t3.5 93v432q-19 -1 -38.5 -1.5t-47.5 -1.5l5 51q25 -1 43.5 -1t35.5 -1q-4 23 -13.5 43t-22.5 33l143 47l8 -6
l-4 -117h56q33 0 56 1t65 3l-5 -54q-29 1 -56.5 2.5t-59.5 1.5h-58v-155h4q19 37 66 63t108 26q81 0 114.5 -37t33.5 -116v-213z" />
    <glyph glyph-name="Itilde" unicode="&#x128;" horiz-adv-x="305" 
d="M214 188q0 -43 8.5 -95.5t22.5 -92.5h-184q16 40 24.5 92.5t8.5 95.5v346q0 43 -8.5 95.5t-24.5 92.5h184q-14 -40 -22.5 -92.5t-8.5 -95.5v-346zM232 864q16 0 31 8.5t25 35.5l29 -8q-13 -53 -38.5 -83.5t-66.5 -30.5q-35 0 -72.5 12.5t-65.5 12.5q-16 0 -31.5 -9
t-24.5 -36l-29 9q12 50 38.5 81.5t66.5 31.5q35 0 72.5 -12t65.5 -12z" />
    <glyph glyph-name="itilde" unicode="&#x129;" horiz-adv-x="284" 
d="M217 0h-146q12 38 15.5 88t3.5 93v188q0 43 -12 79.5t-29 52.5l146 43l8 -6q-1 -5 -2 -25t-1.5 -43t-1 -43t-0.5 -26v-220q0 -43 3.5 -93t15.5 -88zM218 700q16 0 31 8t25 35l29 -8q-13 -53 -38.5 -81t-65.5 -28q-35 0 -66.5 12t-59.5 12q-16 0 -31.5 -9t-24.5 -35l-29 8
q12 51 38.5 80t66.5 29q35 0 66 -11.5t59 -11.5z" />
    <glyph glyph-name="Imacron" unicode="&#x12a;" horiz-adv-x="305" 
d="M214 188q0 -43 8.5 -95.5t22.5 -92.5h-184q16 40 24.5 92.5t8.5 95.5v346q0 43 -8.5 95.5t-24.5 92.5h184q-14 -40 -22.5 -92.5t-8.5 -95.5v-346zM153 836h34t29 0.5t31 1t41 0.5l-5 -63q-25 0 -37.5 0.5t-23.5 0.5h-26h-44h-34t-29.5 -0.5t-31 -0.5h-40.5l5 63
q24 -1 39.5 -1.5t28.5 -0.5h27h36z" />
    <glyph glyph-name="imacron" unicode="&#x12b;" horiz-adv-x="284" 
d="M142 672q26 0 48 0.5t70 0.5l-5 -58q-25 0 -37 0.5t-21.5 0.5h-21h-34.5q-34 0 -56 -0.5t-63 -0.5l5 58q24 0 39.5 -0.5t27 -0.5h22h26.5zM217 0h-146q12 38 15.5 88t3.5 93v188q0 43 -12 79.5t-29 52.5l146 43l8 -6q-1 -5 -2 -25t-1.5 -43t-1 -43t-0.5 -26v-220
q0 -43 3.5 -93t15.5 -88z" />
    <glyph glyph-name="Ibreve" unicode="&#x12c;" horiz-adv-x="305" 
d="M214 188q0 -43 8.5 -95.5t22.5 -92.5h-184q16 40 24.5 92.5t8.5 95.5v346q0 43 -8.5 95.5t-24.5 92.5h184q-14 -40 -22.5 -92.5t-8.5 -95.5v-346zM153 845q37 0 66 15.5t39 45.5l39 -10q-12 -69 -52.5 -95.5t-91.5 -26.5t-92 26.5t-53 95.5l40 10q10 -30 39 -45.5
t66 -15.5z" />
    <glyph glyph-name="ibreve" unicode="&#x12d;" horiz-adv-x="284" 
d="M217 0h-146q12 38 15.5 88t3.5 93v188q0 43 -12 79.5t-29 52.5l146 43l8 -6q-1 -5 -2 -25t-1.5 -43t-1 -43t-0.5 -26v-220q0 -43 3.5 -93t15.5 -88zM138 663q37 0 60 15.5t33 49.5l39 -10q-15 -69 -50.5 -95.5t-81.5 -26.5t-82 26.5t-51 95.5l40 10q10 -34 33 -49.5
t60 -15.5z" />
    <glyph glyph-name="Iogonek" unicode="&#x12e;" horiz-adv-x="305" 
d="M214 188q0 -43 8.5 -95.5t22.5 -92.5h-184q16 40 24.5 92.5t8.5 95.5v346q0 43 -8.5 95.5t-24.5 92.5h184q-14 -40 -22.5 -92.5t-8.5 -95.5v-346zM196 0q-24 -26 -39 -53.5t-15 -58.5q0 -28 13.5 -40.5t32.5 -12.5q15 0 26 3.5t23 8.5l-8 -50q-10 -5 -26.5 -8t-34.5 -3
q-59 0 -90 22.5t-31 64.5q0 21 10.5 40t26.5 35t35 29t37 23h40z" />
    <glyph glyph-name="iogonek" unicode="&#x12f;" horiz-adv-x="288" 
d="M143 616q-30 0 -49 19t-19 47t19 47t49 19q31 0 50 -19t19 -47t-19 -47t-50 -19zM217 0h-146q12 38 15.5 88t3.5 93v188q0 43 -12 79.5t-29 52.5l146 43l8 -6q-1 -5 -2 -25t-1.5 -43t-1 -43t-0.5 -26v-220q0 -43 3.5 -93t15.5 -88zM191 0q-24 -26 -39 -53.5t-15 -58.5
q0 -28 13.5 -40.5t32.5 -12.5q15 0 26 3.5t23 8.5l-8 -50q-10 -5 -26.5 -8t-34.5 -3q-59 0 -90 22.5t-31 64.5q0 21 10.5 40t26.5 35t35 29t37 23h40z" />
    <glyph glyph-name="Idotaccent" unicode="&#x130;" horiz-adv-x="305" 
d="M214 188q0 -43 8.5 -95.5t22.5 -92.5h-184q16 40 24.5 92.5t8.5 95.5v346q0 43 -8.5 95.5t-24.5 92.5h184q-14 -40 -22.5 -92.5t-8.5 -95.5v-346zM153 771q-31 0 -50 19t-19 47t19 47t50 19t49.5 -19t18.5 -47t-18.5 -47t-49.5 -19z" />
    <glyph glyph-name="dotlessi" unicode="&#x131;" horiz-adv-x="286" 
d="M217 0h-146q12 38 15.5 88t3.5 93v188q0 43 -12 79.5t-29 52.5l146 43l8 -6q-1 -5 -2 -25t-1.5 -43t-1 -43t-0.5 -26v-220q0 -43 3.5 -93t15.5 -88z" />
    <glyph glyph-name="IJ" unicode="&#x132;" horiz-adv-x="590" 
d="M214 188q0 -43 8.5 -95.5t22.5 -92.5h-184q16 40 24.5 92.5t8.5 95.5v346q0 43 -8.5 95.5t-24.5 92.5h184q-14 -40 -22.5 -92.5t-8.5 -95.5v-346zM383 8v526q0 43 -5.5 95.5t-18.5 92.5h166q-10 -40 -16 -92.5t-6 -95.5v-439q0 -54 -21.5 -104t-56.5 -87.5t-80 -59.5
t-91 -22q-6 0 -16 0.5t-14 1.5l-32 110q29 -14 55.5 -24t60.5 -10q37 0 56 29t19 79z" />
    <glyph glyph-name="ij" unicode="&#x133;" horiz-adv-x="548" 
d="M143 616q-30 0 -49 19t-19 47t19 47t49 19q31 0 50 -19t19 -47t-19 -47t-50 -19zM217 0h-146q12 38 15.5 88t3.5 93v188q0 43 -12 79.5t-29 52.5l146 43l8 -6q-1 -5 -2 -25t-1.5 -43t-1 -43t-0.5 -26v-220q0 -43 3.5 -93t15.5 -88zM410 616q-31 0 -50 19t-19 47t19 47
t50 19q30 0 49 -19t19 -47t-19 -47t-49 -19zM357 -42v411q0 43 -12 79.5t-29 52.5l145 43l8 -6q0 -5 -1 -25t-1.5 -43t-1 -43t-0.5 -26v-367q0 -53 -12.5 -98t-37.5 -77.5t-62 -51t-86 -18.5q-43 0 -72.5 17.5t-29.5 50.5q0 21 12 36.5t37 15.5q28 0 38 -16t13 -37
q1 -10 4 -13.5t12 -3.5q34 0 55 32t21 87z" />
    <glyph glyph-name="Jcircumflex" unicode="&#x134;" horiz-adv-x="306" 
d="M99 8v526q0 43 -5.5 95.5t-18.5 92.5h166q-10 -40 -16 -92.5t-6 -95.5v-439q0 -54 -21.5 -104t-56.5 -87.5t-80 -59.5t-91 -22q-6 0 -16 0.5t-14 1.5l-32 110q29 -14 55.5 -24t60.5 -10q37 0 56 29t19 79zM164 850h-3l-131 -76l-24 27l125 127h63l124 -127l-24 -27z" />
    <glyph glyph-name="jcircumflex" unicode="&#x135;" horiz-adv-x="283" 
d="M95 -39v408q0 43 -12 79.5t-29 52.5l145 43l8 -6q0 -5 -1 -25t-1.5 -43t-1 -43t-0.5 -26v-367q0 -53 -13 -98t-38.5 -77.5t-63 -51t-86.5 -18.5q-43 0 -70.5 18.5t-27.5 51.5q0 21 13 35.5t35 14.5q27 0 36.5 -16t11.5 -37q1 -10 4 -13.5t13 -3.5q34 0 56 32.5t22 89.5z
M148 683h-3l-119 -87l-24 27l119 138h51l119 -138l-25 -27z" />
    <glyph glyph-name="uni0136" unicode="&#x136;" horiz-adv-x="663" 
d="M211 188q0 -43 6 -95.5t16 -92.5h-167q13 40 19 92.5t6 95.5v346q0 43 -6 95.5t-19 92.5h167q-10 -40 -16 -92.5t-6 -95.5v-157l182 208q37 42 60.5 80t29.5 57h136q-43 -37 -84 -77t-86 -89l-133 -147l188 -241q38 -50 73 -88.5t75 -79.5h-168l-273 350v-162zM247 -183
q28 21 38 53.5t12 80.5l98 -10q-2 -45 -40 -83t-95 -61z" />
    <glyph glyph-name="uni0137" unicode="&#x137;" horiz-adv-x="545" 
d="M212 0h-144q12 38 15 88t3 93v428q0 43 -11.5 76t-29.5 50l145 47l8 -6q0 -5 -1 -25t-1.5 -43t-1 -43t-0.5 -26v-355l130 143q31 34 44.5 60t19.5 48h116q-31 -28 -59 -58t-61 -65l-95 -101l131 -174q28 -37 58.5 -70.5t64.5 -66.5h-146l-203 267v-86q0 -43 3 -93t15 -88
zM203 -183q28 21 38 53.5t12 80.5l98 -10q-2 -45 -40 -83t-95 -61z" />
    <glyph glyph-name="Lacute" unicode="&#x139;" horiz-adv-x="547" 
d="M496 0h-430q13 40 19 92.5t6 95.5v346q0 43 -6 95.5t-19 92.5h167q-10 -40 -16 -92.5t-6 -95.5v-346q0 -31 1 -63t3 -69h68q27 0 59 3t63 9t59.5 13.5t48.5 16.5zM260 910l34 -93q-62 -16 -114 -28t-107 -25l-14 33q48 27 94.5 53t106.5 60z" />
    <glyph glyph-name="lacute" unicode="&#x13a;" horiz-adv-x="278" 
d="M215 0h-145q12 38 15.5 88t3.5 93v421q0 43 -12 79.5t-29 53.5l145 47l8 -6q0 -5 -1 -24.5t-2 -42t-1.5 -42.5t-0.5 -26v-460q0 -43 3.5 -93t15.5 -88zM246 942l34 -93q-62 -16 -114 -28t-107 -25l-14 33q48 27 94.5 53t106.5 60z" />
    <glyph glyph-name="uni013B" unicode="&#x13b;" horiz-adv-x="552" 
d="M496 0h-430q13 40 19 92.5t6 95.5v346q0 43 -6 95.5t-19 92.5h167q-10 -40 -16 -92.5t-6 -95.5v-346q0 -31 1 -63t3 -69h68q27 0 59 3t63 9t59.5 13.5t48.5 16.5zM190 -183q28 21 38 53.5t12 80.5l98 -10q-2 -45 -40 -83t-95 -61z" />
    <glyph glyph-name="uni013C" unicode="&#x13c;" horiz-adv-x="282" 
d="M215 0h-145q12 38 15.5 88t3.5 93v421q0 43 -12 79.5t-29 53.5l145 47l8 -6q0 -5 -1 -24.5t-2 -42t-1.5 -42.5t-0.5 -26v-460q0 -43 3.5 -93t15.5 -88zM47 -183q28 21 38 53.5t12 80.5l98 -10q-2 -45 -40 -83t-95 -61z" />
    <glyph glyph-name="Lcaron" unicode="&#x13d;" horiz-adv-x="547" 
d="M496 0h-430q13 40 19 92.5t6 95.5v346q0 43 -6 95.5t-19 92.5h167q-10 -40 -16 -92.5t-6 -95.5v-346q0 -31 1 -63t3 -69h68q27 0 59 3t63 9t59.5 13.5t48.5 16.5zM322 531l-40 8q9 55 15 98.5t12 97.5l94 -23q-21 -43 -40.5 -86t-40.5 -95z" />
    <glyph glyph-name="lcaron" unicode="&#x13e;" horiz-adv-x="275" 
d="M215 0h-145q12 38 15.5 88t3.5 93v421q0 43 -12 79.5t-29 53.5l145 47l8 -6q0 -5 -1 -24.5t-2 -42t-1.5 -42.5t-0.5 -26v-460q0 -43 3.5 -93t15.5 -88zM291 577l-40 8q9 55 15 98.5t12 97.5l94 -23q-21 -43 -40.5 -86t-40.5 -95z" />
    <glyph glyph-name="Ldot" unicode="&#x13f;" horiz-adv-x="547" 
d="M496 0h-430q13 40 19 92.5t6 95.5v346q0 43 -6 95.5t-19 92.5h167q-10 -40 -16 -92.5t-6 -95.5v-346q0 -31 1 -63t3 -69h68q27 0 59 3t63 9t59.5 13.5t48.5 16.5zM447 323q-30 0 -48.5 19t-18.5 47t18.5 47t48.5 19t49 -19t19 -47t-19 -47t-49 -19z" />
    <glyph glyph-name="ldot" unicode="&#x140;" horiz-adv-x="390" 
d="M215 0h-145q12 38 15.5 88t3.5 93v421q0 43 -12 79.5t-29 53.5l145 47l8 -6q0 -5 -1 -24.5t-2 -42t-1.5 -42.5t-0.5 -26v-460q0 -43 3.5 -93t15.5 -88zM333 320q-29 0 -47.5 19t-18.5 46t18.5 46t47.5 19t47.5 -19t18.5 -46t-18.5 -46t-47.5 -19z" />
    <glyph glyph-name="Lslash" unicode="&#x141;" horiz-adv-x="588" 
d="M537 0h-430q13 40 19 92.5t6 95.5v54l-36 -18t-46 -25l-29 63q40 17 62 27t49 23v222q0 43 -6 95.5t-19 92.5h167q-10 -40 -16 -92.5t-6 -95.5v-162l97 48q31 15 53.5 27t56.5 34l31 -66q-28 -11 -57.5 -24.5t-59.5 -28.5l-121 -60v-114q0 -31 1 -63t3 -69h68q27 0 59 3
t63 9t59.5 13.5t48.5 16.5z" />
    <glyph glyph-name="lslash" unicode="&#x142;" horiz-adv-x="348" 
d="M240 0h-145q12 38 15.5 88t3.5 93v173q-17 -10 -34.5 -21.5t-42.5 -29.5l-33 58q36 19 56 30.5t54 31.5v179q0 43 -12 79.5t-29 53.5l145 47l8 -6q0 -5 -1 -24.5t-2 -42t-1.5 -42.5t-0.5 -26v-153q20 12 39 25t41 31l33 -61q-25 -13 -53 -29.5t-60 -36.5v-236
q0 -43 3.5 -93t15.5 -88z" />
    <glyph glyph-name="Nacute" unicode="&#x143;" horiz-adv-x="725" 
d="M637 498v-498h-79l-382 586h-5v-354q0 -67 7.5 -117.5t20.5 -114.5h-124q13 63 20.5 114t7.5 118v277q0 43 -3 72.5t-9.5 52.5t-17.5 43t-28 45h176l344 -522h4v298q0 22 -2 52t-5.5 61.5t-9 61t-11.5 49.5h123q-6 -20 -11 -49.5t-8.5 -61t-5.5 -61.5t-2 -52zM479 910
l34 -93q-62 -16 -114 -28t-107 -25l-14 33q48 27 94.5 53t106.5 60z" />
    <glyph glyph-name="nacute" unicode="&#x144;" horiz-adv-x="597" 
d="M45 501l141 43l4 -3l-3 -90h4q19 38 69 67t111 29q81 0 114 -37.5t33 -116.5v-212q0 -43 3.5 -93t15.5 -88h-144q11 36 14 80t3 93v206q0 43 -22.5 62.5t-69.5 19.5q-37 0 -68.5 -12.5t-55.5 -36.5v-239q0 -49 3 -93t14 -80h-144q12 38 15.5 88t3.5 93v188q0 43 -12 79.5
t-29 52.5zM402 757l39 -89q-55 -17 -110 -35.5t-109 -36.5l-15 34q45 28 94 61t101 66z" />
    <glyph glyph-name="uni0145" unicode="&#x145;" horiz-adv-x="729" 
d="M637 498v-498h-79l-382 586h-5v-354q0 -67 7.5 -117.5t20.5 -114.5h-124q13 63 20.5 114t7.5 118v277q0 43 -3 72.5t-9.5 52.5t-17.5 43t-28 45h176l344 -522h4v298q0 22 -2 52t-5.5 61.5t-9 61t-11.5 49.5h123q-6 -20 -11 -49.5t-8.5 -61t-5.5 -61.5t-2 -52zM283 -183
q28 21 38 53.5t12 80.5l98 -10q-2 -45 -40 -83t-95 -61z" />
    <glyph glyph-name="uni0146" unicode="&#x146;" horiz-adv-x="597" 
d="M45 501l141 43l4 -3l-3 -90h4q19 38 69 67t111 29q81 0 114 -37.5t33 -116.5v-212q0 -43 3.5 -93t15.5 -88h-144q11 36 14 80t3 93v206q0 43 -22.5 62.5t-69.5 19.5q-37 0 -68.5 -12.5t-55.5 -36.5v-239q0 -49 3 -93t14 -80h-144q12 38 15.5 88t3.5 93v188q0 43 -12 79.5
t-29 52.5zM211 -183q28 21 38 53.5t12 80.5l98 -10q-2 -45 -40 -83t-95 -61z" />
    <glyph glyph-name="Ncaron" unicode="&#x147;" horiz-adv-x="725" 
d="M637 498v-498h-79l-382 586h-5v-354q0 -67 7.5 -117.5t20.5 -114.5h-124q13 63 20.5 114t7.5 118v277q0 43 -3 72.5t-9.5 52.5t-17.5 43t-28 45h176l344 -522h4v298q0 22 -2 52t-5.5 61.5t-9 61t-11.5 49.5h123q-6 -20 -11 -49.5t-8.5 -61t-5.5 -61.5t-2 -52zM383 853
l130 76l24 -27l-124 -127h-63l-125 127l24 27l131 -76h3z" />
    <glyph glyph-name="ncaron" unicode="&#x148;" horiz-adv-x="597" 
d="M45 501l141 43l4 -3l-3 -90h4q19 38 69 67t111 29q81 0 114 -37.5t33 -116.5v-212q0 -43 3.5 -93t15.5 -88h-144q11 36 14 80t3 93v206q0 43 -22.5 62.5t-69.5 19.5q-37 0 -68.5 -12.5t-55.5 -36.5v-239q0 -49 3 -93t14 -80h-144q12 38 15.5 88t3.5 93v188q0 43 -12 79.5
t-29 52.5zM305 679l118 87l25 -27l-119 -138h-51l-119 138l24 27l119 -87h3z" />
    <glyph glyph-name="napostrophe" unicode="&#x149;" horiz-adv-x="642" 
d="M90 501l141 43l4 -3l-3 -90h4q19 38 69 67t111 29q81 0 114 -37.5t33 -116.5v-212q0 -43 3.5 -93t15.5 -88h-144q11 36 14 80t3 93v206q0 43 -22.5 62.5t-69.5 19.5q-37 0 -68.5 -12.5t-55.5 -36.5v-239q0 -49 3 -93t14 -80h-144q12 38 15.5 88t3.5 93v188q0 43 -12 79.5
t-29 52.5zM-25 520q33 30 46.5 85.5t17.5 127.5l103 -12q-1 -70 -46.5 -128t-105.5 -92z" />
    <glyph glyph-name="Eng" unicode="&#x14a;" horiz-adv-x="729" 
d="M572 -18v19l-388 585h-5v-354q0 -67 7.5 -117.5t20.5 -114.5h-124q13 63 20 114t7 118v277q0 43 -3 72.5t-9.5 52.5t-17.5 43t-28 45h177l343 -513v56h5v233q0 22 -2 52t-5.5 61.5t-9 61t-11.5 49.5h123q-6 -20 -11 -49.5t-8.5 -61t-5.5 -61.5t-2 -52v-456
q0 -54 -17.5 -99.5t-47.5 -78t-71.5 -50.5t-90.5 -18q-5 0 -19.5 1t-18.5 2l-32 107q30 -15 58.5 -23.5t62.5 -8.5q42 0 72.5 33t30.5 75z" />
    <glyph glyph-name="eng" unicode="&#x14b;" horiz-adv-x="603" 
d="M410 -39v418q0 43 -22.5 62.5t-69.5 19.5q-37 0 -68.5 -12.5t-55.5 -36.5v-239q0 -49 3 -93t14 -80h-144q12 38 15.5 88t3.5 93v188q0 43 -12 79.5t-29 52.5l141 43l4 -3l-3 -90h4q19 38 69 67t111 29q81 0 114 -37.5t33 -116.5v-359q0 -53 -13 -98t-38 -77.5t-62.5 -51
t-86.5 -18.5q-43 0 -71 18.5t-28 51.5q0 21 13 35.5t35 14.5q28 0 37 -16t12 -37q1 -10 4 -13.5t12 -3.5q34 0 56 32.5t22 89.5z" />
    <glyph glyph-name="Omacron" unicode="&#x14c;" horiz-adv-x="766" 
d="M382 733q66 0 127 -23t107.5 -68.5t74.5 -113.5t28 -157q0 -93 -30.5 -165t-78 -120t-107.5 -73t-119 -25q-66 0 -127.5 23t-107.5 68.5t-74 114t-28 157.5q0 93 30.5 164.5t78 119.5t107.5 73t119 25zM384 44q88 0 146 74t58 243q0 84 -15.5 144.5t-43 98.5t-65.5 55.5
t-82 17.5q-87 0 -145.5 -74.5t-58.5 -243.5q0 -84 16 -144t43.5 -98t65 -55.5t81.5 -17.5zM384 836h34t29 0.5t31 1t41 0.5l-5 -63q-25 0 -37.5 0.5t-23.5 0.5h-26h-44h-34t-29.5 -0.5t-31 -0.5h-40.5l5 63q24 -1 39.5 -1.5t28.5 -0.5h27h36z" />
    <glyph glyph-name="omacron" unicode="&#x14d;" horiz-adv-x="605" 
d="M307 -12q-55 0 -103.5 19.5t-84 55t-56.5 86.5t-21 113q0 65 21 118t56.5 89.5t82 56.5t96.5 20q55 0 103.5 -19.5t84 -55t56.5 -86t21 -112.5q0 -65 -21 -118t-56.5 -90t-82 -57t-96.5 -20zM298 494q-61 0 -99 -55t-38 -165q0 -114 41.5 -173.5t104.5 -59.5q61 0 99 55
t38 165q0 114 -41.5 173.5t-104.5 59.5zM299 672h33.5t28.5 0.5t30.5 0.5h40.5l-5 -58q-25 0 -37.5 0.5t-23 0.5h-25h-43.5h-33.5t-29 -0.5t-31 -0.5h-40.5l5 58q25 0 40.5 -0.5t28 -0.5h26.5h35z" />
    <glyph glyph-name="Obreve" unicode="&#x14e;" horiz-adv-x="766" 
d="M382 733q66 0 127 -23t107.5 -68.5t74.5 -113.5t28 -157q0 -93 -30.5 -165t-78 -120t-107.5 -73t-119 -25q-66 0 -127.5 23t-107.5 68.5t-74 114t-28 157.5q0 93 30.5 164.5t78 119.5t107.5 73t119 25zM384 44q88 0 146 74t58 243q0 84 -15.5 144.5t-43 98.5t-65.5 55.5
t-82 17.5q-87 0 -145.5 -74.5t-58.5 -243.5q0 -84 16 -144t43.5 -98t65 -55.5t81.5 -17.5zM383 845q37 0 66 15.5t39 45.5l39 -10q-12 -69 -52.5 -95.5t-91.5 -26.5t-92 26.5t-53 95.5l40 10q10 -30 39 -45.5t66 -15.5z" />
    <glyph glyph-name="obreve" unicode="&#x14f;" horiz-adv-x="605" 
d="M307 -12q-55 0 -103.5 19.5t-84 55t-56.5 86.5t-21 113q0 65 21 118t56.5 89.5t82 56.5t96.5 20q55 0 103.5 -19.5t84 -55t56.5 -86t21 -112.5q0 -65 -21 -118t-56.5 -90t-82 -57t-96.5 -20zM298 494q-61 0 -99 -55t-38 -165q0 -114 41.5 -173.5t104.5 -59.5q61 0 99 55
t38 165q0 114 -41.5 173.5t-104.5 59.5zM299 663q37 0 60 15.5t33 49.5l39 -10q-15 -69 -50.5 -95.5t-81.5 -26.5t-82 26.5t-51 95.5l40 10q10 -34 33 -49.5t60 -15.5z" />
    <glyph glyph-name="Ohungarumlaut" unicode="&#x150;" horiz-adv-x="766" 
d="M382 733q66 0 127 -23t107.5 -68.5t74.5 -113.5t28 -157q0 -93 -30.5 -165t-78 -120t-107.5 -73t-119 -25q-66 0 -127.5 23t-107.5 68.5t-74 114t-28 157.5q0 93 30.5 164.5t78 119.5t107.5 73t119 25zM384 44q88 0 146 74t58 243q0 84 -15.5 144.5t-43 98.5t-65.5 55.5
t-82 17.5q-87 0 -145.5 -74.5t-58.5 -243.5q0 -84 16 -144t43.5 -98t65 -55.5t81.5 -17.5zM374 958l63 -62q-44 -36 -77 -61.5t-76 -60.5l-25 24q30 40 57 78t58 82zM549 958l64 -62q-44 -36 -77 -61.5t-76 -60.5l-25 24q29 40 56 78t58 82z" />
    <glyph glyph-name="ohungarumlaut" unicode="&#x151;" horiz-adv-x="605" 
d="M307 -12q-55 0 -103.5 19.5t-84 55t-56.5 86.5t-21 113q0 65 21 118t56.5 89.5t82 56.5t96.5 20q55 0 103.5 -19.5t84 -55t56.5 -86t21 -112.5q0 -65 -21 -118t-56.5 -90t-82 -57t-96.5 -20zM298 494q-61 0 -99 -55t-38 -165q0 -114 41.5 -173.5t104.5 -59.5q61 0 99 55
t38 165q0 114 -41.5 173.5t-104.5 59.5zM280 780l63 -59q-42 -36 -71 -60.5t-70 -60.5l-25 25q28 40 50.5 74.5zM452 780l63 -59q-42 -36 -71 -60.5t-70 -60.5l-26 25q28 40 51 74.5t53 80.5z" />
    <glyph glyph-name="OE" unicode="&#x152;" horiz-adv-x="941" 
d="M882 0h-460q-70 0 -138 22t-120 65.5t-84.5 110t-32.5 153.5q0 93 34.5 163t90 116t126 69t141.5 23h438l-4 -89q-42 18 -93.5 25.5t-95.5 7.5h-74v-259h74q32 0 73.5 4t72.5 10l-9 -87q-31 9 -69.5 13t-73.5 4h-68v-295h62q27 0 58.5 2.5t62.5 7t59 11.5t48 16zM432 56
h48q2 16 4 38t3 44.5t1.5 44t0.5 35.5v312q0 38 -2 70.5t-8 65.5h-40q-54 0 -102 -16.5t-83 -52.5t-55.5 -95t-20.5 -143t21.5 -142t56.5 -93.5t81 -51.5t95 -16z" />
    <glyph glyph-name="oe" unicode="&#x153;" horiz-adv-x="922" 
d="M298 -12q-55 0 -102.5 19.5t-81 55t-53 86.5t-19.5 113q0 65 19.5 118t53 89.5t78.5 56.5t95 20q69 0 120.5 -30t81.5 -83h3q29 52 76 83t108 31q107 0 155.5 -65t48.5 -190h-335v-12q0 -111 49 -158t125 -47q69 0 106 22.5t56 43.5l2 -19q-19 -52 -69 -93t-138 -41
q-59 0 -108.5 30.5t-79.5 84.5h-2q-30 -53 -78.5 -84t-110.5 -31zM290 494q-60 0 -94.5 -55t-34.5 -165q0 -114 38 -173.5t101 -59.5q61 0 95 55t34 165q0 114 -38 173.5t-101 59.5zM675 494q-52 0 -85 -37.5t-41 -118.5l220 6q-1 72 -19 111t-75 39z" />
    <glyph glyph-name="Racute" unicode="&#x154;" horiz-adv-x="647" 
d="M211 188q0 -43 6 -95.5t16 -92.5h-167q13 40 19 92.5t6 95.5v346q0 43 -6 95.5t-19 92.5h235q122 0 190.5 -51.5t68.5 -147.5q0 -69 -37 -117.5t-104 -70.5q39 -74 69.5 -124t72.5 -112q16 -22 41 -52.5t44 -46.5h-167q-43 70 -92 155.5t-92 163.5h-84v-131zM292 667h-81
v-295h81q78 0 111.5 38.5t33.5 112.5t-33.5 109t-111.5 35zM402 910l34 -93q-62 -16 -114 -28t-107 -25l-14 33q48 27 94.5 53t106.5 60z" />
    <glyph glyph-name="racute" unicode="&#x155;" horiz-adv-x="415" 
d="M197 541l-3 -116h5q7 22 19 44t29 39t40 28t52 11q9 0 24.5 -2.5t20.5 -4.5l-10 -108h-5q-9 6 -27 11.5t-37 5.5q-51 0 -77 -35t-26 -81v-156q0 -50 3.5 -95.5t14.5 -81.5h-145q12 38 15.5 88t3.5 93v188q0 43 -12 79.5t-29 52.5l140 43zM332 757l39 -89
q-55 -17 -110 -35.5t-109 -36.5l-15 34q45 28 94 61t101 66z" />
    <glyph glyph-name="uni0156" unicode="&#x156;" horiz-adv-x="647" 
d="M211 188q0 -43 6 -95.5t16 -92.5h-167q13 40 19 92.5t6 95.5v346q0 43 -6 95.5t-19 92.5h235q122 0 190.5 -51.5t68.5 -147.5q0 -69 -37 -117.5t-104 -70.5q39 -74 69.5 -124t72.5 -112q16 -22 41 -52.5t44 -46.5h-167q-43 70 -92 155.5t-92 163.5h-84v-131zM292 667h-81
v-295h81q78 0 111.5 38.5t33.5 112.5t-33.5 109t-111.5 35zM238 -183q28 21 38 53.5t12 80.5l98 -10q-2 -45 -40 -83t-95 -61z" />
    <glyph glyph-name="uni0157" unicode="&#x157;" horiz-adv-x="413" 
d="M197 541l-3 -116h5q7 22 19 44t29 39t40 28t52 11q9 0 24.5 -2.5t20.5 -4.5l-10 -108h-5q-9 6 -27 11.5t-37 5.5q-51 0 -77 -35t-26 -81v-156q0 -50 3.5 -95.5t14.5 -81.5h-145q12 38 15.5 88t3.5 93v188q0 43 -12 79.5t-29 52.5l140 43zM44 -183q28 21 38 53.5t12 80.5
l98 -10q-2 -45 -40 -83t-95 -61z" />
    <glyph glyph-name="Rcaron" unicode="&#x158;" horiz-adv-x="647" 
d="M211 188q0 -43 6 -95.5t16 -92.5h-167q13 40 19 92.5t6 95.5v346q0 43 -6 95.5t-19 92.5h235q122 0 190.5 -51.5t68.5 -147.5q0 -69 -37 -117.5t-104 -70.5q39 -74 69.5 -124t72.5 -112q16 -22 41 -52.5t44 -46.5h-167q-43 70 -92 155.5t-92 163.5h-84v-131zM292 667h-81
v-295h81q78 0 111.5 38.5t33.5 112.5t-33.5 109t-111.5 35zM305 853l130 76l24 -27l-124 -127h-63l-125 127l24 27l131 -76h3z" />
    <glyph glyph-name="rcaron" unicode="&#x159;" horiz-adv-x="415" 
d="M197 541l-3 -116h5q7 22 19 44t29 39t40 28t52 11q9 0 24.5 -2.5t20.5 -4.5l-10 -108h-5q-9 6 -27 11.5t-37 5.5q-51 0 -77 -35t-26 -81v-156q0 -50 3.5 -95.5t14.5 -81.5h-145q12 38 15.5 88t3.5 93v188q0 43 -12 79.5t-29 52.5l140 43zM236 679l118 87l25 -27
l-119 -138h-51l-119 138l24 27l119 -87h3z" />
    <glyph glyph-name="Sacute" unicode="&#x15a;" horiz-adv-x="555" 
d="M283 734q67 0 104.5 -12t67.5 -26l7 -119h-5q-29 45 -78 72.5t-106 27.5q-56 0 -85 -26t-29 -73t32.5 -78t122.5 -73q86 -40 142.5 -86.5t56.5 -136.5q0 -42 -14.5 -81.5t-45 -69t-78.5 -47.5t-115 -18q-60 0 -113 12.5t-97 36.5l-8 137h5q37 -52 95 -91t120 -39
q69 0 104.5 29t35.5 82q0 57 -33.5 92t-105.5 71q-47 22 -86.5 42.5t-67.5 45.5t-44 58.5t-16 81.5q0 82 63 135t171 53zM371 910l34 -93q-62 -16 -114 -28t-107 -25l-14 33q48 27 94.5 53t106.5 60z" />
    <glyph glyph-name="sacute" unicode="&#x15b;" horiz-adv-x="453" 
d="M230 546q52 0 86 -7.5t54 -17.5l5 -104h-6q-31 34 -63 55.5t-76 21.5q-34 0 -61 -15.5t-27 -50.5q0 -34 24.5 -54.5t90.5 -48.5q65 -28 110.5 -63t45.5 -99q0 -32 -10.5 -63.5t-34 -56t-61.5 -40t-92 -15.5q-44 0 -86.5 9t-76.5 28l-6 122h9q28 -39 70.5 -72.5
t88.5 -33.5q56 0 80 20.5t24 59.5q0 43 -27 62t-88 46q-67 29 -110.5 63t-43.5 101q0 65 50 109t131 44zM326 757l39 -89q-55 -17 -110 -35.5t-109 -36.5l-15 34q45 28 94 61t101 66z" />
    <glyph glyph-name="Scircumflex" unicode="&#x15c;" horiz-adv-x="555" 
d="M283 734q67 0 104.5 -12t67.5 -26l7 -119h-5q-29 45 -78 72.5t-106 27.5q-56 0 -85 -26t-29 -73t32.5 -78t122.5 -73q86 -40 142.5 -86.5t56.5 -136.5q0 -42 -14.5 -81.5t-45 -69t-78.5 -47.5t-115 -18q-60 0 -113 12.5t-97 36.5l-8 137h5q37 -52 95 -91t120 -39
q69 0 104.5 29t35.5 82q0 57 -33.5 92t-105.5 71q-47 22 -86.5 42.5t-67.5 45.5t-44 58.5t-16 81.5q0 82 63 135t171 53zM274 850h-3l-131 -76l-24 27l125 127h63l124 -127l-24 -27z" />
    <glyph glyph-name="scircumflex" unicode="&#x15d;" horiz-adv-x="453" 
d="M230 546q52 0 86 -7.5t54 -17.5l5 -104h-6q-31 34 -63 55.5t-76 21.5q-34 0 -61 -15.5t-27 -50.5q0 -34 24.5 -54.5t90.5 -48.5q65 -28 110.5 -63t45.5 -99q0 -32 -10.5 -63.5t-34 -56t-61.5 -40t-92 -15.5q-44 0 -86.5 9t-76.5 28l-6 122h9q28 -39 70.5 -72.5
t88.5 -33.5q56 0 80 20.5t24 59.5q0 43 -27 62t-88 46q-67 29 -110.5 63t-43.5 101q0 65 50 109t131 44zM232 683h-3l-119 -87l-24 27l119 138h51l119 -138l-25 -27z" />
    <glyph glyph-name="uni015E" unicode="&#x15e;" horiz-adv-x="555" 
d="M283 734q67 0 104.5 -12t67.5 -26l7 -119h-5q-29 45 -78 72.5t-106 27.5q-56 0 -85 -26t-29 -73t32.5 -78t122.5 -73q86 -40 142.5 -86.5t56.5 -136.5q0 -42 -14.5 -81.5t-45 -69t-78.5 -47.5t-115 -18q-60 0 -113 12.5t-97 36.5l-8 137h5q37 -52 95 -91t120 -39
q69 0 104.5 29t35.5 82q0 57 -33.5 92t-105.5 71q-47 22 -86.5 42.5t-67.5 45.5t-44 58.5t-16 81.5q0 82 63 135t171 53zM231 9h47l-25 -65h5q40 0 64.5 -17t24.5 -51q0 -43 -35.5 -62t-89.5 -19q-20 0 -39 4.5t-28 9.5l-8 47h3q15 -10 30.5 -15t32.5 -5q31 0 44.5 8.5
t13.5 30.5q0 17 -13.5 26.5t-36.5 9.5q-8 0 -15.5 -0.5t-11.5 -1.5z" />
    <glyph glyph-name="uni015F" unicode="&#x15f;" horiz-adv-x="453" 
d="M230 546q52 0 86 -7.5t54 -17.5l5 -104h-6q-31 34 -63 55.5t-76 21.5q-34 0 -61 -15.5t-27 -50.5q0 -34 24.5 -54.5t90.5 -48.5q65 -28 110.5 -63t45.5 -99q0 -32 -10.5 -63.5t-34 -56t-61.5 -40t-92 -15.5q-44 0 -86.5 9t-76.5 28l-6 122h9q28 -39 70.5 -72.5
t88.5 -33.5q56 0 80 20.5t24 59.5q0 43 -27 62t-88 46q-67 29 -110.5 63t-43.5 101q0 65 50 109t131 44zM179 9h47l-25 -65h5q40 0 64.5 -17t24.5 -51q0 -43 -35.5 -62t-89.5 -19q-20 0 -39 4.5t-28 9.5l-8 47h3q15 -10 30.5 -15t32.5 -5q31 0 44.5 8.5t13.5 30.5
q0 17 -13.5 26.5t-36.5 9.5q-8 0 -15.5 -0.5t-11.5 -1.5z" />
    <glyph glyph-name="Scaron" unicode="&#x160;" horiz-adv-x="555" 
d="M283 734q67 0 104.5 -12t67.5 -26l7 -119h-5q-29 45 -78 72.5t-106 27.5q-56 0 -85 -26t-29 -73t32.5 -78t122.5 -73q86 -40 142.5 -86.5t56.5 -136.5q0 -42 -14.5 -81.5t-45 -69t-78.5 -47.5t-115 -18q-60 0 -113 12.5t-97 36.5l-8 137h5q37 -52 95 -91t120 -39
q69 0 104.5 29t35.5 82q0 57 -33.5 92t-105.5 71q-47 22 -86.5 42.5t-67.5 45.5t-44 58.5t-16 81.5q0 82 63 135t171 53zM274 853l130 76l24 -27l-124 -127h-63l-125 127l24 27l131 -76h3z" />
    <glyph glyph-name="scaron" unicode="&#x161;" horiz-adv-x="453" 
d="M230 546q52 0 86 -7.5t54 -17.5l5 -104h-6q-31 34 -63 55.5t-76 21.5q-34 0 -61 -15.5t-27 -50.5q0 -34 24.5 -54.5t90.5 -48.5q65 -28 110.5 -63t45.5 -99q0 -32 -10.5 -63.5t-34 -56t-61.5 -40t-92 -15.5q-44 0 -86.5 9t-76.5 28l-6 122h9q28 -39 70.5 -72.5
t88.5 -33.5q56 0 80 20.5t24 59.5q0 43 -27 62t-88 46q-67 29 -110.5 63t-43.5 101q0 65 50 109t131 44zM226 679l118 87l25 -27l-119 -138h-51l-119 138l24 27l119 -87h3z" />
    <glyph glyph-name="Tcommaaccent" unicode="&#x162;" horiz-adv-x="625" 
d="M370 188q0 -43 6 -95.5t16 -92.5h-167q13 40 19 92.5t6 95.5v478h-34q-40 0 -93.5 -10.5t-96.5 -28.5l9 98q35 -1 83 -2t86 -1h219q38 0 89.5 1t86.5 2l-13 -98q-43 18 -88 28.5t-94 10.5h-34v-478zM208 -185q28 21 38 53.5t12 80.5l98 -10q-2 -45 -40 -83t-95 -61z" />
    <glyph glyph-name="tcommaaccent" unicode="&#x163;" horiz-adv-x="383" 
d="M360 84q-1 -12 -3 -18.5t-6 -16.5q-11 -27 -40.5 -44t-76.5 -17q-73 0 -110 37.5t-37 113.5v328h-71v9l171 171l8 -6v-106h146l-12 -68h-134v-321q0 -43 23.5 -61t58.5 -18q25 0 46 4.5t37 12.5zM114 -183q28 21 38 53.5t12 80.5l98 -10q-2 -45 -40 -83t-95 -61z" />
    <glyph glyph-name="Tcaron" unicode="&#x164;" horiz-adv-x="625" 
d="M370 188q0 -43 6 -95.5t16 -92.5h-167q13 40 19 92.5t6 95.5v478h-34q-40 0 -93.5 -10.5t-96.5 -28.5l9 98q35 -1 83 -2t86 -1h219q38 0 89.5 1t86.5 2l-13 -98q-43 18 -88 28.5t-94 10.5h-34v-478zM315 853l130 76l24 -27l-124 -127h-63l-125 127l24 27l131 -76h3z" />
    <glyph glyph-name="tcaron" unicode="&#x165;" horiz-adv-x="383" 
d="M360 84q-1 -12 -3 -18.5t-6 -16.5q-11 -27 -40.5 -44t-76.5 -17q-73 0 -110 37.5t-37 113.5v328h-71v9l171 171l8 -6v-106h146l-12 -68h-134v-321q0 -43 23.5 -61t58.5 -18q25 0 46 4.5t37 12.5zM284 596l-40 8q9 55 15 98.5t12 97.5l94 -23q-21 -43 -40.5 -86t-40.5 -95
z" />
    <glyph glyph-name="Tbar" unicode="&#x166;" horiz-adv-x="625" 
d="M370 188q0 -43 6 -95.5t16 -92.5h-167q13 40 19 92.5t6 95.5v208h-47q-34 0 -56.5 -1t-66.5 -3l5 69q43 -1 67.5 -1.5t58.5 -0.5h39v207h-34q-40 0 -93.5 -10.5t-96.5 -28.5l9 98q35 -1 83 -2t86 -1h219q38 0 89.5 1t86.5 2l-13 -98q-43 18 -88 28.5t-94 10.5h-34v-207
h46q34 0 57.5 1.5t65.5 3.5l-5 -73q-29 2 -60.5 3.5t-65.5 1.5h-38v-208z" />
    <glyph glyph-name="tbar" unicode="&#x167;" horiz-adv-x="387" 
d="M21 320l12 68h58v79h-71v9l171 171l8 -6v-106h146l-12 -68h-134v-79h145l-12 -68h-133v-174q0 -43 23.5 -61t58.5 -18q25 0 46 4.5t37 12.5q-1 -12 -3 -18.5t-6 -16.5q-11 -27 -40.5 -44t-76.5 -17q-73 0 -110 37.5t-37 113.5v181h-70z" />
    <glyph glyph-name="Utilde" unicode="&#x168;" horiz-adv-x="721" 
d="M569 240v258q0 22 -2 52t-5.5 61.5t-9 61t-11.5 49.5h124q-6 -20 -11 -49.5t-8.5 -61t-5.5 -61.5t-2 -52v-258q0 -62 -20.5 -109.5t-56.5 -79t-85.5 -47.5t-106.5 -16t-109.5 14t-91.5 44.5t-62.5 78.5t-23.5 116v293q0 43 -5.5 95.5t-18.5 92.5h166q-10 -40 -16 -92.5
t-6 -95.5v-291q0 -108 51 -148t137 -40q80 0 129.5 44t49.5 141zM464 864q16 0 31 8.5t25 35.5l29 -8q-13 -53 -38.5 -83.5t-66.5 -30.5q-35 0 -72.5 12.5t-65.5 12.5q-16 0 -31.5 -9t-24.5 -36l-29 9q12 50 38.5 81.5t66.5 31.5q35 0 72.5 -12t65.5 -12z" />
    <glyph glyph-name="utilde" unicode="&#x169;" horiz-adv-x="599" 
d="M79 378q0 34 -4.5 73.5t-15.5 72.5l128 17v-372q0 -49 21 -77.5t72 -28.5q44 0 77 21t48 46v248q0 34 -4.5 73.5t-16.5 72.5l129 17v-390q0 -61 6 -92t15 -59h-123l-1 82h-3q-7 -15 -20.5 -32t-34 -30.5t-49 -22.5t-65.5 -9q-88 0 -123.5 48.5t-35.5 127.5v214zM359 700
q16 0 31 8t25 35l29 -8q-13 -53 -38.5 -81t-65.5 -28q-35 0 -66.5 12t-59.5 12q-16 0 -31.5 -9t-24.5 -35l-29 8q12 51 38.5 80t66.5 29q35 0 66 -11.5t59 -11.5z" />
    <glyph glyph-name="Umacron" unicode="&#x16a;" horiz-adv-x="721" 
d="M569 240v258q0 22 -2 52t-5.5 61.5t-9 61t-11.5 49.5h124q-6 -20 -11 -49.5t-8.5 -61t-5.5 -61.5t-2 -52v-258q0 -62 -20.5 -109.5t-56.5 -79t-85.5 -47.5t-106.5 -16t-109.5 14t-91.5 44.5t-62.5 78.5t-23.5 116v293q0 43 -5.5 95.5t-18.5 92.5h166q-10 -40 -16 -92.5
t-6 -95.5v-291q0 -108 51 -148t137 -40q80 0 129.5 44t49.5 141zM383 836h34t29 0.5t31 1t41 0.5l-5 -63q-25 0 -37.5 0.5t-23.5 0.5h-26h-44h-34t-29.5 -0.5t-31 -0.5h-40.5l5 63q24 -1 39.5 -1.5t28.5 -0.5h27h36z" />
    <glyph glyph-name="umacron" unicode="&#x16b;" horiz-adv-x="599" 
d="M79 378q0 34 -4.5 73.5t-15.5 72.5l128 17v-372q0 -49 21 -77.5t72 -28.5q44 0 77 21t48 46v248q0 34 -4.5 73.5t-16.5 72.5l129 17v-390q0 -61 6 -92t15 -59h-123l-1 82h-3q-7 -15 -20.5 -32t-34 -30.5t-49 -22.5t-65.5 -9q-88 0 -123.5 48.5t-35.5 127.5v214zM288 672
h33.5t28.5 0.5t30.5 0.5h40.5l-5 -58q-25 0 -37.5 0.5t-23 0.5h-25h-43.5h-33.5t-29 -0.5t-31 -0.5h-40.5l5 58q25 0 40.5 -0.5t28 -0.5h26.5h35z" />
    <glyph glyph-name="Ubreve" unicode="&#x16c;" horiz-adv-x="721" 
d="M569 240v258q0 22 -2 52t-5.5 61.5t-9 61t-11.5 49.5h124q-6 -20 -11 -49.5t-8.5 -61t-5.5 -61.5t-2 -52v-258q0 -62 -20.5 -109.5t-56.5 -79t-85.5 -47.5t-106.5 -16t-109.5 14t-91.5 44.5t-62.5 78.5t-23.5 116v293q0 43 -5.5 95.5t-18.5 92.5h166q-10 -40 -16 -92.5
t-6 -95.5v-291q0 -108 51 -148t137 -40q80 0 129.5 44t49.5 141zM384 845q37 0 66 15.5t39 45.5l39 -10q-12 -69 -52.5 -95.5t-91.5 -26.5t-92 26.5t-53 95.5l40 10q10 -30 39 -45.5t66 -15.5z" />
    <glyph glyph-name="ubreve" unicode="&#x16d;" horiz-adv-x="599" 
d="M79 378q0 34 -4.5 73.5t-15.5 72.5l128 17v-372q0 -49 21 -77.5t72 -28.5q44 0 77 21t48 46v248q0 34 -4.5 73.5t-16.5 72.5l129 17v-390q0 -61 6 -92t15 -59h-123l-1 82h-3q-7 -15 -20.5 -32t-34 -30.5t-49 -22.5t-65.5 -9q-88 0 -123.5 48.5t-35.5 127.5v214zM286 663
q37 0 60 15.5t33 49.5l39 -10q-15 -69 -50.5 -95.5t-81.5 -26.5t-82 26.5t-51 95.5l40 10q10 -34 33 -49.5t60 -15.5z" />
    <glyph glyph-name="Uring" unicode="&#x16e;" horiz-adv-x="721" 
d="M569 240v258q0 22 -2 52t-5.5 61.5t-9 61t-11.5 49.5h124q-6 -20 -11 -49.5t-8.5 -61t-5.5 -61.5t-2 -52v-258q0 -62 -20.5 -109.5t-56.5 -79t-85.5 -47.5t-106.5 -16t-109.5 14t-91.5 44.5t-62.5 78.5t-23.5 116v293q0 43 -5.5 95.5t-18.5 92.5h166q-10 -40 -16 -92.5
t-6 -95.5v-291q0 -108 51 -148t137 -40q80 0 129.5 44t49.5 141zM291 864q0 44 29 67.5t65 23.5t65 -23.5t29 -67.5t-29 -68t-65 -24t-65 24t-29 68zM435 864q0 25 -12.5 40t-37.5 15t-37.5 -15t-12.5 -40t12.5 -40t37.5 -15t37.5 15t12.5 40z" />
    <glyph glyph-name="uring" unicode="&#x16f;" horiz-adv-x="599" 
d="M79 378q0 34 -4.5 73.5t-15.5 72.5l128 17v-372q0 -49 21 -77.5t72 -28.5q44 0 77 21t48 46v248q0 34 -4.5 73.5t-16.5 72.5l129 17v-390q0 -61 6 -92t15 -59h-123l-1 82h-3q-7 -15 -20.5 -32t-34 -30.5t-49 -22.5t-65.5 -9q-88 0 -123.5 48.5t-35.5 127.5v214zM186 694
q0 46 31 70.5t69 24.5t69 -24.5t31 -70.5q0 -47 -31 -72t-69 -25t-69 25t-31 72zM330 694q0 25 -11.5 41t-32.5 16t-32.5 -16t-11.5 -41q0 -26 11.5 -42t32.5 -16t32.5 16t11.5 42z" />
    <glyph glyph-name="Uhungarumlaut" unicode="&#x170;" horiz-adv-x="721" 
d="M569 240v258q0 22 -2 52t-5.5 61.5t-9 61t-11.5 49.5h124q-6 -20 -11 -49.5t-8.5 -61t-5.5 -61.5t-2 -52v-258q0 -62 -20.5 -109.5t-56.5 -79t-85.5 -47.5t-106.5 -16t-109.5 14t-91.5 44.5t-62.5 78.5t-23.5 116v293q0 43 -5.5 95.5t-18.5 92.5h166q-10 -40 -16 -92.5
t-6 -95.5v-291q0 -108 51 -148t137 -40q80 0 129.5 44t49.5 141zM368 958l63 -62q-44 -36 -77 -61.5t-76 -60.5l-25 24q30 40 57 78t58 82zM543 958l64 -62q-44 -36 -77 -61.5t-76 -60.5l-25 24q29 40 56 78t58 82z" />
    <glyph glyph-name="uhungarumlaut" unicode="&#x171;" horiz-adv-x="599" 
d="M79 378q0 34 -4.5 73.5t-15.5 72.5l128 17v-372q0 -49 21 -77.5t72 -28.5q44 0 77 21t48 46v248q0 34 -4.5 73.5t-16.5 72.5l129 17v-390q0 -61 6 -92t15 -59h-123l-1 82h-3q-7 -15 -20.5 -32t-34 -30.5t-49 -22.5t-65.5 -9q-88 0 -123.5 48.5t-35.5 127.5v214zM265 780
l63 -59q-42 -36 -71 -60.5t-70 -60.5l-25 25q28 40 50.5 74.5zM437 780l63 -59q-42 -36 -71 -60.5t-70 -60.5l-26 25q28 40 51 74.5t53 80.5z" />
    <glyph glyph-name="Uogonek" unicode="&#x172;" horiz-adv-x="721" 
d="M513 20q-62 -36 -81.5 -68.5t-19.5 -63.5q0 -28 13.5 -40.5t32.5 -12.5q14 0 25.5 3.5t23.5 8.5l-9 -50q-10 -5 -26 -8t-34 -3q-59 0 -90 22.5t-31 64.5q0 35 28.5 64.5t70.5 53.5q-11 -1 -23 -2t-24 -1q-57 0 -109.5 14t-91.5 44.5t-62.5 78.5t-23.5 116v293
q0 43 -5.5 95.5t-18.5 92.5h166q-10 -40 -16 -92.5t-6 -95.5v-291q0 -108 51 -148t137 -40q80 0 129.5 44t49.5 141v258q0 22 -2 52t-5.5 61.5t-9 61t-11.5 49.5h124q-6 -20 -11 -49.5t-8.5 -61t-5.5 -61.5t-2 -52v-258q0 -76 -31 -130.5t-94 -89.5z" />
    <glyph glyph-name="uogonek" unicode="&#x173;" horiz-adv-x="599" 
d="M79 378q0 34 -4.5 73.5t-15.5 72.5l128 17v-372q0 -49 21 -77.5t72 -28.5q44 0 77 21t48 46v248q0 34 -4.5 73.5t-16.5 72.5l129 17v-390q0 -61 6 -92t15 -59h-123l-1 82h-3q-7 -15 -20.5 -32t-34 -30.5t-49 -22.5t-65.5 -9q-88 0 -123.5 48.5t-35.5 127.5v214zM488 0
q-24 -26 -39 -53.5t-15 -58.5q0 -28 13.5 -40.5t32.5 -12.5q15 0 26 3.5t23 8.5l-8 -50q-10 -5 -26.5 -8t-34.5 -3q-59 0 -90 22.5t-31 64.5q0 21 10.5 40t26.5 35t35 29t37 23h40z" />
    <glyph glyph-name="Wcircumflex" unicode="&#x174;" horiz-adv-x="936" 
d="M214 548l81 -360h3l165 534h64l157 -534h3l89 337q13 53 20.5 104.5t-2.5 92.5h117q-19 -46 -35.5 -95t-32.5 -108l-140 -521h-73l-161 520h-5l-165 -520h-74l-131 525q-16 66 -30.5 108.5t-36.5 90.5h178q-4 -43 -3.5 -81.5t12.5 -92.5zM494 850h-3l-131 -76l-24 27
l125 127h63l124 -127l-24 -27z" />
    <glyph glyph-name="wcircumflex" unicode="&#x175;" horiz-adv-x="752" 
d="M166 535q-3 -29 3 -66.5t18 -78.5l62 -218h4l122 363h48l123 -363h4l61 208q11 39 16 83.5t-1 71.5h108q-13 -31 -30.5 -76t-33.5 -94l-114 -371h-49l-129 361h-4l-127 -361h-49l-120 382q-15 48 -30 86.5t-30 72.5h148zM394 683h-3l-119 -87l-24 27l119 138h51l119 -138
l-25 -27z" />
    <glyph glyph-name="Ycircumflex" unicode="&#x176;" horiz-adv-x="624" 
d="M374 188q0 -43 6 -95.5t16 -92.5h-167q13 40 19 92.5t6 95.5v120l-144 262q-28 50 -47.5 80.5t-50.5 71.5h174q4 -31 14 -56.5t34 -71.5l106 -205h5l91 177q25 49 38 82.5t22 73.5h118q-35 -49 -65 -95t-57 -95l-118 -221v-123zM338 850h-3l-131 -76l-24 27l125 127h63
l124 -127l-24 -27z" />
    <glyph glyph-name="ycircumflex" unicode="&#x177;" horiz-adv-x="526" 
d="M232 15l-149 382q-18 46 -33 77t-31 61h154q-2 -31 5 -61.5t24 -78.5l85 -243h4l87 249q14 40 18 73t-1 61h113q-15 -30 -32.5 -66.5t-37.5 -88.5l-119 -317q-53 -139 -104.5 -207.5t-121.5 -68.5q-33 0 -50 15.5t-17 39.5q0 22 13.5 35t34.5 13q23 0 34 -8.5t26 -8.5
q22 0 49 38.5t49 103.5zM275 683h-3l-119 -87l-24 27l119 138h51l119 -138l-25 -27z" />
    <glyph glyph-name="Ydieresis" unicode="&#x178;" horiz-adv-x="624" 
d="M374 188q0 -43 6 -95.5t16 -92.5h-167q13 40 19 92.5t6 95.5v120l-144 262q-28 50 -47.5 80.5t-50.5 71.5h174q4 -31 14 -56.5t34 -71.5l106 -205h5l91 177q25 49 38 82.5t22 73.5h118q-35 -49 -65 -95t-57 -95l-118 -221v-123zM236 771q-27 0 -43 17.5t-16 41.5t16 42
t43 18q28 0 43.5 -18t15.5 -42t-15.5 -41.5t-43.5 -17.5zM436 771q-28 0 -43.5 17.5t-15.5 41.5t15.5 42t43.5 18q27 0 43 -18t16 -42t-16 -41.5t-43 -17.5z" />
    <glyph glyph-name="Zacute" unicode="&#x179;" horiz-adv-x="620" 
d="M563 0h-524l-9 26l408 640h-172q-19 0 -45.5 -3t-54 -8.5t-54.5 -13.5t-48 -17l9 101q35 -1 82.5 -2t84.5 -1h339l11 -19l-408 -647h186q22 0 48.5 2.5t54 7t53.5 11.5t47 15zM422 910l34 -93q-62 -16 -114 -28t-107 -25l-14 33q48 27 94.5 53t106.5 60z" />
    <glyph glyph-name="zacute" unicode="&#x17a;" horiz-adv-x="505" 
d="M458 0h-420l-8 32l301 447h-96q-46 0 -97 -11t-87 -24l12 91h400l10 -28l-305 -452h121q49 0 97 11t85 27zM360 757l39 -89q-55 -17 -110 -35.5t-109 -36.5l-15 34q45 28 94 61t101 66z" />
    <glyph glyph-name="Zdotaccent" unicode="&#x17b;" horiz-adv-x="620" 
d="M563 0h-524l-9 26l408 640h-172q-19 0 -45.5 -3t-54 -8.5t-54.5 -13.5t-48 -17l9 101q35 -1 82.5 -2t84.5 -1h339l11 -19l-408 -647h186q22 0 48.5 2.5t54 7t53.5 11.5t47 15zM324 771q-31 0 -50 19t-19 47t19 47t50 19t49.5 -19t18.5 -47t-18.5 -47t-49.5 -19z" />
    <glyph glyph-name="zdotaccent" unicode="&#x17c;" horiz-adv-x="505" 
d="M458 0h-420l-8 32l301 447h-96q-46 0 -97 -11t-87 -24l12 91h400l10 -28l-305 -452h121q49 0 97 11t85 27zM266 619q-30 0 -49 18.5t-19 45.5t19 46t49 19t49 -19t19 -46t-19 -45.5t-49 -18.5z" />
    <glyph glyph-name="Zcaron" unicode="&#x17d;" horiz-adv-x="620" 
d="M563 0h-524l-9 26l408 640h-172q-19 0 -45.5 -3t-54 -8.5t-54.5 -13.5t-48 -17l9 101q35 -1 82.5 -2t84.5 -1h339l11 -19l-408 -647h186q22 0 48.5 2.5t54 7t53.5 11.5t47 15zM325 853l130 76l24 -27l-124 -127h-63l-125 127l24 27l131 -76h3z" />
    <glyph glyph-name="zcaron" unicode="&#x17e;" horiz-adv-x="505" 
d="M458 0h-420l-8 32l301 447h-96q-46 0 -97 -11t-87 -24l12 91h400l10 -28l-305 -452h121q49 0 97 11t85 27zM269 679l118 87l25 -27l-119 -138h-51l-119 138l24 27l119 -87h3z" />
    <glyph glyph-name="uni0192" unicode="&#x192;" horiz-adv-x="481" 
d="M84 -36l70 424h-83l23 61h70l17 105q6 41 24 74.5t43 56.5t56 35.5t63 12.5q65 0 97 -22t32 -59q0 -25 -15 -37.5t-36 -12.5q-20 0 -33.5 11t-16.5 36q-2 19 -8 27t-25 8q-28 0 -41.5 -24t-18.5 -54l-26 -157h121l-22 -61h-109l-55 -334q-15 -93 -62.5 -145t-121.5 -52
q-49 0 -76.5 19t-27.5 48q0 22 13 33.5t32 11.5t30 -9.5t16 -30.5q4 -14 10.5 -19t16.5 -5q22 0 30.5 15.5t12.5 43.5z" />
    <glyph glyph-name="clickdental" unicode="&#x1c0;" horiz-adv-x="268" 
d="M95 -90v880h77v-880h-77z" />
    <glyph glyph-name="clicklateral" unicode="&#x1c1;" horiz-adv-x="437" 
d="M95 -90v880h77v-880h-77zM265 -90v880h77v-880h-77z" />
    <glyph glyph-name="clickalveolar" unicode="&#x1c2;" horiz-adv-x="557" 
d="M49 237v66h191v135h-191v66h191v286h77v-286h191v-66h-191v-135h191v-66h-191v-327h-77v327h-191z" />
    <glyph glyph-name="clickretroflex" unicode="&#x1c3;" horiz-adv-x="318" 
d="M77 722h164q-9 -40 -14 -92.5t-9 -95.5l-27 -334h-64l-27 334q-4 43 -9 95.5t-14 92.5zM159 -12q-34 0 -55 22t-21 51t21 50.5t55 21.5t55 -21.5t21 -50.5t-21 -51t-55 -22z" />
    <glyph glyph-name="uni0218" unicode="&#x218;" horiz-adv-x="555" 
d="M283 734q67 0 104.5 -12t67.5 -26l7 -119h-5q-29 45 -78 72.5t-106 27.5q-56 0 -85 -26t-29 -73t32.5 -78t122.5 -73q86 -40 142.5 -86.5t56.5 -136.5q0 -42 -14.5 -81.5t-45 -69t-78.5 -47.5t-115 -18q-60 0 -113 12.5t-97 36.5l-8 137h5q37 -52 95 -91t120 -39
q69 0 104.5 29t35.5 82q0 57 -33.5 92t-105.5 71q-47 22 -86.5 42.5t-67.5 45.5t-44 58.5t-16 81.5q0 82 63 135t171 53zM161 -183q28 21 38 53.5t12 80.5l98 -10q-2 -45 -40 -83t-95 -61z" />
    <glyph glyph-name="uni0219" unicode="&#x219;" horiz-adv-x="453" 
d="M230 546q52 0 86 -7.5t54 -17.5l5 -104h-6q-31 34 -63 55.5t-76 21.5q-34 0 -61 -15.5t-27 -50.5q0 -34 24.5 -54.5t90.5 -48.5q65 -28 110.5 -63t45.5 -99q0 -32 -10.5 -63.5t-34 -56t-61.5 -40t-92 -15.5q-44 0 -86.5 9t-76.5 28l-6 122h9q28 -39 70.5 -72.5
t88.5 -33.5q56 0 80 20.5t24 59.5q0 43 -27 62t-88 46q-67 29 -110.5 63t-43.5 101q0 65 50 109t131 44zM118 -183q28 21 38 53.5t12 80.5l98 -10q-2 -45 -40 -83t-95 -61z" />
    <glyph glyph-name="uni021A" unicode="&#x21a;" horiz-adv-x="625" 
d="M370 188q0 -43 6 -95.5t16 -92.5h-167q13 40 19 92.5t6 95.5v478h-34q-40 0 -93.5 -10.5t-96.5 -28.5l9 98q35 -1 83 -2t86 -1h219q38 0 89.5 1t86.5 2l-13 -98q-43 18 -88 28.5t-94 10.5h-34v-478zM208 -185q28 21 38 53.5t12 80.5l98 -10q-2 -45 -40 -83t-95 -61z" />
    <glyph glyph-name="uni021B" unicode="&#x21b;" horiz-adv-x="383" 
d="M360 84q-1 -12 -3 -18.5t-6 -16.5q-11 -27 -40.5 -44t-76.5 -17q-73 0 -110 37.5t-37 113.5v328h-71v9l171 171l8 -6v-106h146l-12 -68h-134v-321q0 -43 23.5 -61t58.5 -18q25 0 46 4.5t37 12.5zM114 -183q28 21 38 53.5t12 80.5l98 -10q-2 -45 -40 -83t-95 -61z" />
    <glyph glyph-name="uni0237" unicode="&#x237;" horiz-adv-x="286" 
d="M95 -39v408q0 43 -12 79.5t-29 52.5l145 43l8 -6q0 -5 -1 -25t-1.5 -43t-1 -43t-0.5 -26v-367q0 -53 -13 -98t-38.5 -77.5t-63 -51t-86.5 -18.5q-43 0 -70.5 18.5t-27.5 51.5q0 21 13 35.5t35 14.5q27 0 36.5 -16t11.5 -37q1 -10 4 -13.5t13 -3.5q34 0 56 32.5t22 89.5z
" />
    <glyph glyph-name="circumflex" unicode="&#x2c6;" horiz-adv-x="507" 
d="M255 683h-3l-119 -87l-24 27l119 138h51l119 -138l-25 -27z" />
    <glyph glyph-name="caron" unicode="&#x2c7;" horiz-adv-x="507" 
d="M255 679l118 87l25 -27l-119 -138h-51l-119 138l24 27l119 -87h3z" />
    <glyph glyph-name="breve" unicode="&#x2d8;" horiz-adv-x="508" 
d="M254 663q37 0 60 15.5t33 49.5l39 -10q-15 -69 -50.5 -95.5t-81.5 -26.5t-82 26.5t-51 95.5l40 10q10 -34 33 -49.5t60 -15.5z" />
    <glyph glyph-name="dotaccent" unicode="&#x2d9;" horiz-adv-x="508" 
d="M254 619q-30 0 -49 18.5t-19 45.5t19 46t49 19t49 -19t19 -46t-19 -45.5t-49 -18.5z" />
    <glyph glyph-name="ring" unicode="&#x2da;" horiz-adv-x="508" 
d="M154 694q0 46 31 70.5t69 24.5t69 -24.5t31 -70.5q0 -47 -31 -72t-69 -25t-69 25t-31 72zM298 694q0 25 -11.5 41t-32.5 16t-32.5 -16t-11.5 -41q0 -26 11.5 -42t32.5 -16t32.5 16t11.5 42z" />
    <glyph glyph-name="ogonek" unicode="&#x2db;" horiz-adv-x="508" 
d="M274 0q-24 -26 -39 -53.5t-15 -58.5q0 -28 13.5 -40.5t32.5 -12.5q15 0 26 3.5t23 8.5l-8 -50q-10 -5 -26.5 -8t-34.5 -3q-59 0 -90 22.5t-31 64.5q0 21 10.5 40t26.5 35t35 29t37 23h40z" />
    <glyph glyph-name="tilde" unicode="&#x2dc;" horiz-adv-x="508" 
d="M326 700q16 0 31 8t25 35l29 -8q-13 -53 -38.5 -81t-65.5 -28q-35 0 -66.5 12t-59.5 12q-16 0 -31.5 -9t-24.5 -35l-29 8q12 51 38.5 80t66.5 29q35 0 66 -11.5t59 -11.5z" />
    <glyph glyph-name="hungarumlaut" unicode="&#x2dd;" horiz-adv-x="507" 
d="M182 780l63 -59q-42 -36 -71 -60.5t-70 -60.5l-25 25q28 40 50.5 74.5zM354 780l63 -59q-42 -36 -71 -60.5t-70 -60.5l-26 25q28 40 51 74.5t53 80.5z" />
    <glyph glyph-name="tonos" unicode="&#x384;" horiz-adv-x="331" 
d="M104 562l36 172h112l-107 -172h-41z" />
    <glyph glyph-name="dieresistonos" unicode="&#x385;" horiz-adv-x="477" 
d="M195 609l33 179h105l-104 -179h-34zM117 607q-26 0 -42 17t-16 40t16 40.5t42 17.5t41.5 -17.5t15.5 -40.5t-15.5 -40t-41.5 -17zM359 607q-26 0 -42 17t-16 40t16 40.5t42 17.5t41.5 -17.5t15.5 -40.5t-15.5 -40t-41.5 -17z" />
    <glyph glyph-name="Alphatonos" unicode="&#x386;" horiz-adv-x="661" 
d="M448 153q-7 17 -14.5 39t-16.5 46h-229q-11 -32 -19 -55.5t-11 -32.5q-18 -55 -9.5 -97.5t15.5 -52.5h-156q22 30 39.5 63t39.5 97q21 56 47 125.5t53 143t54.5 147t51.5 136.5l71 22q24 -69 51.5 -145t55 -151.5t54.5 -150t50 -139.5q15 -42 35.5 -84t40.5 -64h-202
q7 12 10 30.5t2.5 40t-4 43t-9.5 39.5zM297 555q-8 -24 -19 -55t-22.5 -65.5t-24 -70.5t-24.5 -69h190q-25 70 -51 142t-43 118h-6zM40 550l36 172h112l-107 -172h-41z" />
    <glyph glyph-name="Epsilontonos" unicode="&#x388;" horiz-adv-x="552" 
d="M494 0h-428q13 40 19 92.5t6 95.5v346q0 43 -6 95.5t-19 92.5h422l-4 -89q-42 18 -94.5 25.5t-96.5 7.5h-82v-259h82q32 0 74.5 4t74.5 10l-10 -87q-30 9 -70 13t-75 4h-76v-295h70q27 0 59 2.5t63 7t59.5 11.5t48.5 16zM-115 550l36 172h112l-107 -172h-41z" />
    <glyph glyph-name="Etatonos" unicode="&#x389;" horiz-adv-x="741" 
d="M211 188q0 -43 6 -95.5t16 -92.5h-167q13 40 19 92.5t6 95.5v346q0 43 -6 95.5t-19 92.5h167q-10 -40 -16 -92.5t-6 -95.5v-141h319v141q0 43 -5.5 95.5t-18.5 92.5h166q-10 -40 -16 -92.5t-6 -95.5v-346q0 -43 6 -95.5t16 -92.5h-166q13 40 18.5 92.5t5.5 95.5v151h-319
v-151zM-115 550l36 172h112l-107 -172h-41z" />
    <glyph glyph-name="Iotatonos" unicode="&#x38a;" horiz-adv-x="305" 
d="M214 188q0 -43 8.5 -95.5t22.5 -92.5h-184q16 40 24.5 92.5t8.5 95.5v346q0 43 -8.5 95.5t-24.5 92.5h184q-14 -40 -22.5 -92.5t-8.5 -95.5v-346zM-115 550l36 172h112l-107 -172h-41z" />
    <glyph glyph-name="Omicrontonos" unicode="&#x38c;" horiz-adv-x="766" 
d="M382 733q66 0 127 -23t107.5 -68.5t74.5 -113.5t28 -157q0 -93 -30.5 -165t-78 -120t-107.5 -73t-119 -25q-66 0 -127.5 23t-107.5 68.5t-74 114t-28 157.5q0 93 30.5 164.5t78 119.5t107.5 73t119 25zM384 44q88 0 146 74t58 243q0 84 -15.5 144.5t-43 98.5t-65.5 55.5
t-82 17.5q-87 0 -145.5 -74.5t-58.5 -243.5q0 -84 16 -144t43.5 -98t65 -55.5t81.5 -17.5zM-48 550l36 172h112l-107 -172h-41z" />
    <glyph glyph-name="Upsilontonos" unicode="&#x38e;" horiz-adv-x="623" 
d="M374 188q0 -43 6 -95.5t16 -92.5h-167q13 40 19 92.5t6 95.5v120l-144 262q-28 50 -47.5 80.5t-50.5 71.5h174q4 -31 14 -56.5t34 -71.5l106 -205h5l91 177q25 49 38 82.5t22 73.5h118q-35 -49 -65 -95t-57 -95l-118 -221v-123zM-160 550l36 172h112l-107 -172h-41z" />
    <glyph glyph-name="Omegatonos" unicode="&#x38f;" horiz-adv-x="770" 
d="M52 364q0 90 30 159.5t77.5 116t107 70.5t117.5 24q66 0 126.5 -22t106.5 -66t73.5 -110.5t27.5 -154.5q0 -43 -11.5 -86t-33.5 -81.5t-53.5 -71.5t-71.5 -57h25q33 0 76 9.5t81 25.5l-13 -123q-30 1 -78.5 2t-90.5 1h-99l-16 35q37 34 66 66.5t48.5 71t30 87t10.5 113.5
q0 83 -16.5 141.5t-44.5 94.5t-65 52.5t-78 16.5q-43 0 -80 -17.5t-64 -55t-42.5 -97t-15.5 -142.5q0 -113 40.5 -190.5t113.5 -140.5l-12 -35h-110q-42 0 -87.5 -1t-81.5 -2l3 123q38 -16 74 -25.5t70 -9.5h25q-42 20 -73 51.5t-51.5 69t-30.5 78.5t-10 80zM-48 550l36 172
h112l-107 -172h-41z" />
    <glyph glyph-name="iotadieresistonos" unicode="&#x390;" horiz-adv-x="309" 
d="M196 401v-287q0 -28 14.5 -41t35.5 -13q14 0 26 3.5t21 7.5v-21q-10 -31 -38 -46.5t-59 -15.5q-52 0 -80 32.5t-28 94.5v254q0 43 -12 79.5t-29 52.5l145 43l8 -6q-2 -33 -3 -68t-1 -69zM119 609l33 179h105l-104 -179h-34zM41 607q-26 0 -42 17t-16 40t16 40.5t42 17.5
t41.5 -17.5t15.5 -40.5t-15.5 -40t-41.5 -17zM283 607q-26 0 -42 17t-16 40t16 40.5t42 17.5t41.5 -17.5t15.5 -40.5t-15.5 -40t-41.5 -17z" />
    <glyph glyph-name="Alpha" unicode="&#x391;" horiz-adv-x="661" 
d="M448 153q-7 17 -14.5 39t-16.5 46h-229q-11 -32 -19 -55.5t-11 -32.5q-18 -55 -9.5 -97.5t15.5 -52.5h-156q22 30 39.5 63t39.5 97q21 56 47 125.5t53 143t54.5 147t51.5 136.5l71 22q24 -69 51.5 -145t55 -151.5t54.5 -150t50 -139.5q15 -42 35.5 -84t40.5 -64h-202
q7 12 10 30.5t2.5 40t-4 43t-9.5 39.5zM297 555q-8 -24 -19 -55t-22.5 -65.5t-24 -70.5t-24.5 -69h190q-25 70 -51 142t-43 118h-6z" />
    <glyph glyph-name="Beta" unicode="&#x392;" horiz-adv-x="631" 
d="M582 202q0 -97 -70.5 -149.5t-192.5 -52.5h-253q13 40 19 92.5t6 95.5v346q0 43 -6 95.5t-19 92.5h220q123 0 190.5 -40.5t67.5 -135.5q0 -60 -34.5 -99t-95.5 -57v-3q76 -19 122 -65t46 -120zM280 669h-69v-265h69q77 0 111.5 33t34.5 106q0 75 -34.5 100.5t-111.5 25.5
zM313 356h-102v-305h102q78 0 112.5 39t34.5 113t-34.5 113.5t-112.5 39.5z" />
    <glyph glyph-name="Gamma" unicode="&#x393;" horiz-adv-x="534" 
d="M211 188q0 -43 6 -95.5t16 -92.5h-167q13 40 19 92.5t6 95.5v346q0 43 -6 95.5t-19 92.5h438l-13 -97q-42 19 -86.5 30t-100.5 11h-93v-478z" />
    <glyph glyph-name="Delta" unicode="&#x394;" horiz-adv-x="676" 
d="M613 0h-560l-17 25l260 687l69 22l270 -703zM487 96l-183 459h-6l-166 -459h355z" />
    <glyph glyph-name="Epsilon" unicode="&#x395;" horiz-adv-x="552" 
d="M494 0h-428q13 40 19 92.5t6 95.5v346q0 43 -6 95.5t-19 92.5h422l-4 -89q-42 18 -94.5 25.5t-96.5 7.5h-82v-259h82q32 0 74.5 4t74.5 10l-10 -87q-30 9 -70 13t-75 4h-76v-295h70q27 0 59 2.5t63 7t59.5 11.5t48.5 16z" />
    <glyph glyph-name="Zeta" unicode="&#x396;" horiz-adv-x="620" 
d="M563 0h-524l-9 26l408 640h-172q-19 0 -45.5 -3t-54 -8.5t-54.5 -13.5t-48 -17l9 101q35 -1 82.5 -2t84.5 -1h339l11 -19l-408 -647h186q22 0 48.5 2.5t54 7t53.5 11.5t47 15z" />
    <glyph glyph-name="Eta" unicode="&#x397;" horiz-adv-x="741" 
d="M211 188q0 -43 6 -95.5t16 -92.5h-167q13 40 19 92.5t6 95.5v346q0 43 -6 95.5t-19 92.5h167q-10 -40 -16 -92.5t-6 -95.5v-141h319v141q0 43 -5.5 95.5t-18.5 92.5h166q-10 -40 -16 -92.5t-6 -95.5v-346q0 -43 6 -95.5t16 -92.5h-166q13 40 18.5 92.5t5.5 95.5v151h-319
v-151z" />
    <glyph glyph-name="Theta" unicode="&#x398;" horiz-adv-x="766" 
d="M382 734q66 0 127.5 -23t107.5 -68.5t74 -114t28 -157.5q0 -93 -30.5 -165t-78 -120t-107.5 -73t-119 -25q-66 0 -127.5 23t-107.5 68.5t-74 114t-28 157.5q0 93 30.5 165t78 120t107.5 73t119 25zM384 44q88 0 146 74t58 243q0 84 -15.5 144.5t-43 98.5t-65.5 56t-82 18
q-87 0 -145.5 -75t-58.5 -244q0 -84 16 -144t43.5 -98t65 -55.5t81.5 -17.5zM365 349q-28 0 -58.5 -5t-58.5 -10l10 83q29 -6 57.5 -9t54.5 -3h23q23 0 61.5 4.5t61.5 8.5l-9 -84q-24 7 -59.5 11t-61.5 4h-21z" />
    <glyph glyph-name="Iota" unicode="&#x399;" horiz-adv-x="305" 
d="M214 188q0 -43 8.5 -95.5t22.5 -92.5h-184q16 40 24.5 92.5t8.5 95.5v346q0 43 -8.5 95.5t-24.5 92.5h184q-14 -40 -22.5 -92.5t-8.5 -95.5v-346z" />
    <glyph glyph-name="Kappa" unicode="&#x39a;" horiz-adv-x="663" 
d="M211 188q0 -43 6 -95.5t16 -92.5h-167q13 40 19 92.5t6 95.5v346q0 43 -6 95.5t-19 92.5h167q-10 -40 -16 -92.5t-6 -95.5v-157l182 208q37 42 60.5 80t29.5 57h136q-43 -37 -84 -77t-86 -89l-133 -147l188 -241q38 -50 73 -88.5t75 -79.5h-168l-273 350v-162z" />
    <glyph glyph-name="Lambda" unicode="&#x39b;" horiz-adv-x="640" 
d="M286 550l-128 -400q-18 -55 -9.5 -97.5t15.5 -52.5h-156q22 30 39.5 62.5t39.5 97.5l192 552l70 22l203 -586q15 -42 35.5 -84t40.5 -64h-204q7 12 10 30.5t2.5 40t-4 43t-9.5 39.5l-131 397h-6z" />
    <glyph glyph-name="Mu" unicode="&#x39c;" horiz-adv-x="900" 
d="M458 0h-43l-249 584h-5v-352q0 -67 7.5 -117.5t20.5 -114.5h-123q13 63 20 114t7 118v296q0 45 -6 99t-19 95h163l229 -545h5l210 545h159q-10 -41 -16.5 -95t-6.5 -99v-334q0 -45 6.5 -99t16.5 -95h-167q12 41 18 95t7 99v389h-4z" />
    <glyph glyph-name="Nu" unicode="&#x39d;" horiz-adv-x="725" 
d="M637 498v-498h-79l-382 586h-5v-354q0 -67 7.5 -117.5t20.5 -114.5h-124q13 63 20.5 114t7.5 118v277q0 43 -3 72.5t-9.5 52.5t-17.5 43t-28 45h176l344 -522h4v298q0 22 -2 52t-5.5 61.5t-9 61t-11.5 49.5h123q-6 -20 -11 -49.5t-8.5 -61t-5.5 -61.5t-2 -52z" />
    <glyph glyph-name="Xi" unicode="&#x39e;" horiz-adv-x="618" 
d="M547 725l-5 -128q-42 16 -91.5 25t-104.5 9h-83q-19 0 -44 -2t-50.5 -6.5t-51 -11t-46.5 -14.5l10 128q37 -1 82.5 -2t87.5 -1h117q42 0 92 1t87 2zM237 340q-35 0 -69.5 -5.5t-63.5 -11.5l5 93h274q29 0 67.5 5t63.5 9l-4 -90h-273zM59 -3l3 128q41 -16 91 -25t105 -9
h116q19 0 44 2t51 6.5t51 11t46 14.5l-12 -128q-37 1 -85.5 2t-90.5 1h-135q-42 0 -94.5 -1t-89.5 -2z" />
    <glyph glyph-name="Omicron" unicode="&#x39f;" horiz-adv-x="766" 
d="M382 733q66 0 127 -23t107.5 -68.5t74.5 -113.5t28 -157q0 -93 -30.5 -165t-78 -120t-107.5 -73t-119 -25q-66 0 -127.5 23t-107.5 68.5t-74 114t-28 157.5q0 93 30.5 164.5t78 119.5t107.5 73t119 25zM384 44q88 0 146 74t58 243q0 84 -15.5 144.5t-43 98.5t-65.5 55.5
t-82 17.5q-87 0 -145.5 -74.5t-58.5 -243.5q0 -84 16 -144t43.5 -98t65 -55.5t81.5 -17.5z" />
    <glyph glyph-name="Pi" unicode="&#x3a0;" horiz-adv-x="727" 
d="M211 188q0 -43 6 -95.5t16 -92.5h-167q13 40 19 92.5t6 95.5v346q0 43 -6 95.5t-19 92.5h595q-10 -40 -16 -92.5t-6 -95.5v-346q0 -43 6 -95.5t16 -92.5h-167q13 40 19 92.5t6 95.5v478h-308v-478z" />
    <glyph glyph-name="Rho" unicode="&#x3a1;" horiz-adv-x="581" 
d="M211 188q0 -43 6 -95.5t16 -92.5h-167q13 40 19 92.5t6 95.5v346q0 43 -6 95.5t-19 92.5h227q122 0 188 -53t66 -150t-66 -150t-188 -53h-82v-128zM286 667h-75v-298h75q77 0 108 38t31 112t-31 111t-108 37z" />
    <glyph glyph-name="Sigma" unicode="&#x3a3;" horiz-adv-x="579" 
d="M260 357l-225 341l14 24h467l-4 -89q-43 18 -95.5 25.5t-96.5 7.5h-126l178 -269l-213 -302h188q19 0 43.5 2t50.5 6.5t51 11t46 14.5l-13 -132q-37 1 -85.5 2t-90.5 1h-310l-9 26z" />
    <glyph glyph-name="Tau" unicode="&#x3a4;" horiz-adv-x="625" 
d="M370 188q0 -43 6 -95.5t16 -92.5h-167q13 40 19 92.5t6 95.5v478h-34q-40 0 -93.5 -10.5t-96.5 -28.5l9 98q35 -1 83 -2t86 -1h219q38 0 89.5 1t86.5 2l-13 -98q-43 18 -88 28.5t-94 10.5h-34v-478z" />
    <glyph glyph-name="Upsilon" unicode="&#x3a5;" horiz-adv-x="623" 
d="M374 188q0 -43 6 -95.5t16 -92.5h-167q13 40 19 92.5t6 95.5v120l-144 262q-28 50 -47.5 80.5t-50.5 71.5h174q4 -31 14 -56.5t34 -71.5l106 -205h5l91 177q25 49 38 82.5t22 73.5h118q-35 -49 -65 -95t-57 -95l-118 -221v-123z" />
    <glyph glyph-name="Phi" unicode="&#x3a6;" horiz-adv-x="845" 
d="M801 368q0 -65 -24 -117.5t-66 -90t-100 -60.5t-125 -29q2 -23 6.5 -44t8.5 -39h-160q4 15 8.5 36.5t8.5 46.5q-70 6 -128 27t-99 57t-63.5 86t-22.5 112q0 65 24 118t66 91t99.5 60.5t123.5 28.5q-3 23 -7.5 44t-9.5 39h160q-4 -15 -7.5 -36.5t-7.5 -46.5q71 -5 129 -26
t99.5 -57t64 -86.5t22.5 -113.5zM176 359q0 -114 52.5 -168t135.5 -64q1 12 1.5 24t0.5 23v373q0 12 -0.5 24t-1.5 24q-87 -8 -137.5 -64t-50.5 -172zM479 548v-373q0 -12 0.5 -24t0.5 -24q90 9 140 63.5t50 170.5q0 114 -52.5 169.5t-136.5 64.5q-1 -12 -1.5 -24t-0.5 -23z
" />
    <glyph glyph-name="Chi" unicode="&#x3a7;" horiz-adv-x="667" 
d="M216 154q-20 -31 -39 -69t-39 -85h-115q21 29 36.5 50.5t29 40.5t27.5 39.5t33 47.5l123 176l-121 190q-37 58 -63.5 96t-60.5 82h166q14 -37 30 -70t40 -70l82 -125l76 116q26 39 46.5 74.5t34.5 74.5h114q-40 -50 -69 -88.5t-66 -92.5l-98 -143l94 -147
q19 -29 40.5 -63t43.5 -67.5t44 -65t40 -55.5h-161q-19 43 -44 87.5t-59 97.5l-71 112z" />
    <glyph glyph-name="Psi" unicode="&#x3a8;" horiz-adv-x="832" 
d="M200 534v-111q0 -93 41.5 -137.5t115.5 -53.5v302q0 43 -6.5 94t-20.5 94h170q-12 -43 -18.5 -94t-6.5 -94v-302q77 9 117 54.5t40 136.5v111q0 43 -5 95.5t-13 92.5h163q-13 -40 -19 -92.5t-6 -95.5v-114q0 -57 -21 -101t-58 -74.5t-88 -48t-110 -21.5q1 -42 9 -90
t21 -85h-181q15 37 23.5 85t9.5 90q-61 4 -112.5 20.5t-87.5 46t-56.5 74t-20.5 104.5v114q0 43 -6 95.5t-19 92.5h163q-8 -40 -13 -92.5t-5 -95.5z" />
    <glyph glyph-name="Omega" unicode="&#x3a9;" horiz-adv-x="770" 
d="M52 364q0 90 30 159.5t77.5 116t107 70.5t117.5 24q66 0 126.5 -22t106.5 -66t73.5 -110.5t27.5 -154.5q0 -43 -11.5 -86t-33.5 -81.5t-53.5 -71.5t-71.5 -57h25q33 0 76 9.5t81 25.5l-13 -123q-30 1 -78.5 2t-90.5 1h-99l-16 35q37 34 66 66.5t48.5 71t30 87t10.5 113.5
q0 83 -16.5 141.5t-44.5 94.5t-65 52.5t-78 16.5q-43 0 -80 -17.5t-64 -55t-42.5 -97t-15.5 -142.5q0 -113 40.5 -190.5t113.5 -140.5l-12 -35h-110q-42 0 -87.5 -1t-81.5 -2l3 123q38 -16 74 -25.5t70 -9.5h25q-42 20 -73 51.5t-51.5 69t-30.5 78.5t-10 80z" />
    <glyph glyph-name="Iotadieresis" unicode="&#x3aa;" horiz-adv-x="305" 
d="M214 188q0 -43 8.5 -95.5t22.5 -92.5h-184q16 40 24.5 92.5t8.5 95.5v346q0 43 -8.5 95.5t-24.5 92.5h184q-14 -40 -22.5 -92.5t-8.5 -95.5v-346zM52 771q-27 0 -43 17.5t-16 41.5t16 42t43 18q28 0 43.5 -18t15.5 -42t-15.5 -41.5t-43.5 -17.5zM252 771
q-28 0 -43.5 17.5t-15.5 41.5t15.5 42t43.5 18q27 0 43 -18t16 -42t-16 -41.5t-43 -17.5z" />
    <glyph glyph-name="Upsilondieresis" unicode="&#x3ab;" horiz-adv-x="623" 
d="M374 188q0 -43 6 -95.5t16 -92.5h-167q13 40 19 92.5t6 95.5v120l-144 262q-28 50 -47.5 80.5t-50.5 71.5h174q4 -31 14 -56.5t34 -71.5l106 -205h5l91 177q25 49 38 82.5t22 73.5h118q-35 -49 -65 -95t-57 -95l-118 -221v-123zM235 771q-27 0 -43 17.5t-16 41.5t16 42
t43 18q28 0 43.5 -18t15.5 -42t-15.5 -41.5t-43.5 -17.5zM435 771q-28 0 -43.5 17.5t-15.5 41.5t15.5 42t43.5 18q27 0 43 -18t16 -42t-16 -41.5t-43 -17.5z" />
    <glyph glyph-name="alphatonos" unicode="&#x3ac;" horiz-adv-x="649" 
d="M448 77l-17 65q-31 -75 -74 -114.5t-102 -39.5q-53 0 -92 22.5t-65 59t-38.5 85t-12.5 99.5q0 72 19 127t51 91.5t75 55t90 18.5q72 0 113.5 -42.5t64.5 -111.5l13 43q7 20 11 45.5t4 54.5h108q-19 -34 -33 -63t-24 -52l-49 -120l56 -203q4 -18 15.5 -26.5t28.5 -8.5
q14 0 26 3t21 8v-21q-10 -31 -37 -46.5t-58 -15.5q-42 0 -62 22t-32 65zM164 276q0 -118 34 -166t80 -48q34 0 59.5 28.5t51.5 97.5l18 46l-38 124q-18 60 -36.5 92t-57.5 32q-55 0 -83 -54t-28 -152zM288 597l36 172h112l-107 -172h-41z" />
    <glyph glyph-name="epsilontonos" unicode="&#x3ad;" horiz-adv-x="502" 
d="M197 278q-66 6 -101.5 40.5t-35.5 77.5q0 69 60 109.5t152 40.5q39 0 74.5 -5.5t61.5 -17t42 -30.5t16 -46q0 -24 -14.5 -40.5t-39.5 -16.5q-24 0 -38.5 15t-16.5 43q-1 19 -22 32.5t-62 13.5q-51 0 -79 -22.5t-28 -66.5q0 -24 10.5 -42.5t27.5 -31t38.5 -18.5t43.5 -6
q5 0 16.5 0.5t24 1t23.5 1.5t16 2v-63q-13 2 -41.5 3.5t-44.5 1.5q-22 0 -45.5 -5t-43 -16t-32 -29.5t-12.5 -46.5q0 -24 11.5 -42.5t31 -30t45 -17.5t53.5 -6q54 0 103 20.5t79 53.5l3 -17q-16 -52 -71.5 -92t-141.5 -40q-44 0 -84 7.5t-70.5 25t-48.5 46t-18 70.5
q0 56 44.5 96t113.5 43v4zM244 596l36 172h112l-107 -172h-41z" />
    <glyph glyph-name="etatonos" unicode="&#x3ae;" horiz-adv-x="589" 
d="M518 394v-421q0 -49 5 -97t16 -84h-147q11 38 14.5 88t3.5 93v406q0 43 -22.5 62.5t-69.5 19.5q-37 0 -68.5 -12.5t-55.5 -36.5v-239q0 -49 3 -93t14 -80h-144q12 38 15.5 88t3.5 93v188q0 43 -12 79.5t-29 52.5l141 43l4 -3l-3 -90h4q19 38 69 67t111 29q81 0 114 -37
t33 -116zM276 596l36 172h112l-107 -172h-41z" />
    <glyph glyph-name="iotatonos" unicode="&#x3af;" horiz-adv-x="309" 
d="M196 401v-287q0 -28 14.5 -41t35.5 -13q14 0 26 3.5t21 7.5v-21q-10 -31 -38 -46.5t-59 -15.5q-52 0 -80 32.5t-28 94.5v254q0 43 -12 79.5t-29 52.5l145 43l8 -6q-2 -33 -3 -68t-1 -69zM114 596l36 172h112l-107 -172h-41z" />
    <glyph glyph-name="upsilondieresistonos" unicode="&#x3b0;" horiz-adv-x="550" 
d="M187 413v-204q0 -74 27 -111.5t84 -37.5q45 0 72.5 24t41.5 60.5t18.5 80t4.5 82.5q0 50 -9 77.5t-28 39.5q-26 15 -36.5 30t-10.5 38q0 25 15 39.5t42 14.5q16 0 30 -9t24 -25q22 -38 30.5 -89.5t8.5 -118.5q0 -52 -11 -108.5t-37 -102t-68 -75.5t-103 -30
q-102 0 -152.5 54t-50.5 163v166q0 43 -11.5 79.5t-28.5 52.5l144 41l8 -6q-1 -12 -2 -28.5t-1.5 -34t-0.5 -34v-28.5zM238 609l33 179h105l-104 -179h-34zM160 607q-26 0 -42 17t-16 40t16 40.5t42 17.5t41.5 -17.5t15.5 -40.5t-15.5 -40t-41.5 -17zM402 607q-26 0 -42 17
t-16 40t16 40.5t42 17.5t41.5 -17.5t15.5 -40.5t-15.5 -40t-41.5 -17z" />
    <glyph glyph-name="alpha" unicode="&#x3b1;" horiz-adv-x="649" 
d="M444 77l-17 65q-31 -75 -74 -114.5t-102 -39.5q-53 0 -92 22.5t-65 59t-38.5 85t-12.5 99.5q0 72 19 127t51 91.5t75 55t90 18.5q72 0 113.5 -42.5t64.5 -111.5l13 43q7 20 11 45.5t4 54.5h108q-19 -34 -33 -63t-24 -52l-49 -120l56 -203q4 -18 15.5 -26.5t28.5 -8.5
q14 0 26 3t21 8v-21q-10 -31 -37 -46.5t-58 -15.5q-42 0 -62 22t-32 65zM160 276q0 -118 34 -166t80 -48q34 0 59.5 28.5t51.5 97.5l18 46l-38 124q-18 60 -36.5 92t-57.5 32q-55 0 -83 -54t-28 -152z" />
    <glyph glyph-name="beta" unicode="&#x3b2;" horiz-adv-x="603" 
d="M180 -27q0 -49 5.5 -97t16.5 -84h-148q12 38 15.5 88t3.5 93v572q0 56 17.5 100t47.5 74t71.5 45.5t90.5 15.5q93 0 147.5 -45.5t54.5 -120.5q0 -58 -37 -102t-94 -69v-4q38 -3 72.5 -18t60.5 -41t41.5 -62.5t15.5 -81.5q0 -57 -20 -103.5t-54.5 -78.5t-81 -49t-98.5 -17
q-33 0 -65 7.5t-62 22.5v-45zM180 574v-481q25 -22 56.5 -36.5t65.5 -14.5q69 0 104.5 45.5t35.5 135.5q0 79 -34 121t-121 54l-11 41q52 26 84 63.5t32 99.5q0 52 -22 88t-73 36q-57 0 -87 -40.5t-30 -111.5z" />
    <glyph glyph-name="gamma" unicode="&#x3b3;" horiz-adv-x="520" 
d="M321 -37v-12q0 -38 5.5 -80.5t16.5 -78.5h-148q10 37 14.5 78t4.5 72v16q0 53 -12.5 117t-31 128.5t-40 125.5t-40.5 108q-8 22 -19 37.5t-31 15.5q-8 0 -18 -3t-16 -7v22q14 21 38.5 32.5t51.5 11.5q45 0 67 -19.5t37 -59.5q10 -29 23 -67t26 -81t26 -89t23 -91h4
q19 52 40 107.5t40 118.5q6 20 4.5 36t-5 30t-8 28.5t-4.5 30.5q0 22 15.5 39t40.5 17q26 0 42.5 -19t16.5 -50q0 -28 -15.5 -67t-27.5 -67q-30 -78 -61.5 -156t-62.5 -156q1 -18 2.5 -35t1.5 -33z" />
    <glyph glyph-name="delta" unicode="&#x3b4;" horiz-adv-x="600" 
d="M325 730q-59 0 -83.5 -21.5t-24.5 -67.5q0 -53 37 -83.5t99 -52.5q40 -13 77 -34.5t65.5 -52.5t45.5 -72t17 -94t-20 -101.5t-54 -84.5t-80 -57t-99 -21q-61 0 -110 22t-83 57.5t-52 81.5t-18 93q0 48 15 92.5t44 79t70.5 55t93.5 20.5v3q-29 7 -57.5 18.5t-50.5 28.5
t-36 40.5t-14 54.5q0 38 17.5 66t47 45.5t68.5 26t81 8.5q94 0 143 -33.5t49 -71.5q0 -28 -14 -43.5t-42 -15.5q-25 0 -38 16t-17 47q-2 30 -25 40.5t-52 10.5zM296 450q-61 0 -98.5 -52t-37.5 -145q0 -92 39.5 -152t105.5 -60q62 0 99 54.5t37 143.5q0 45 -10.5 84t-29 67
t-45.5 44t-60 16z" />
    <glyph glyph-name="epsilon" unicode="&#x3b5;" horiz-adv-x="502" 
d="M197 278q-66 6 -101.5 40.5t-35.5 77.5q0 69 60 109.5t152 40.5q39 0 74.5 -5.5t61.5 -17t42 -30.5t16 -46q0 -24 -14.5 -40.5t-39.5 -16.5q-24 0 -38.5 15t-16.5 43q-1 19 -22 32.5t-62 13.5q-51 0 -79 -22.5t-28 -66.5q0 -24 10.5 -42.5t27.5 -31t38.5 -18.5t43.5 -6
q5 0 16.5 0.5t24 1t23.5 1.5t16 2v-63q-13 2 -41.5 3.5t-44.5 1.5q-22 0 -45.5 -5t-43 -16t-32 -29.5t-12.5 -46.5q0 -24 11.5 -42.5t31 -30t45 -17.5t53.5 -6q54 0 103 20.5t79 53.5l3 -17q-16 -52 -71.5 -92t-141.5 -40q-44 0 -84 7.5t-70.5 25t-48.5 46t-18 70.5
q0 56 44.5 96t113.5 43v4z" />
    <glyph glyph-name="zeta" unicode="&#x3b6;" horiz-adv-x="473" 
d="M335 -161l-12 15q19 16 33 36t14 46q0 19 -15 32t-39.5 23t-55.5 19t-63 20q-61 22 -106 73t-45 126t29 144t70.5 126.5t89 103.5t83.5 75h-68q-64 0 -114.5 -4.5t-72.5 -13.5l27 108h354l11 -25q-62 -58 -117 -115.5t-96 -116.5t-65 -122t-24 -132q0 -46 23.5 -84
t69.5 -56q32 -12 67 -22.5t63.5 -24.5t47 -35t18.5 -54q0 -43 -32 -80t-75 -62z" />
    <glyph glyph-name="eta" unicode="&#x3b7;" horiz-adv-x="589" 
d="M518 394v-421q0 -49 5 -97t16 -84h-147q11 38 14.5 88t3.5 93v406q0 43 -22.5 62.5t-69.5 19.5q-37 0 -68.5 -12.5t-55.5 -36.5v-239q0 -49 3 -93t14 -80h-144q12 38 15.5 88t3.5 93v188q0 43 -12 79.5t-29 52.5l141 43l4 -3l-3 -90h4q19 38 69 67t111 29q81 0 114 -37
t33 -116z" />
    <glyph glyph-name="theta" unicode="&#x3b8;" horiz-adv-x="600" 
d="M299 780q124 0 188 -99t64 -291q0 -103 -19 -179.5t-52.5 -125.5t-79.5 -73t-99 -24q-124 0 -188 99.5t-64 291.5q0 103 19 179t52.5 125t79.5 73t99 24zM299 726q-69 0 -99.5 -74.5t-33.5 -224.5h267q-3 150 -34 224.5t-100 74.5zM301 41q74 0 103 82t30 247h-268
q1 -165 32.5 -247t102.5 -82z" />
    <glyph glyph-name="iota" unicode="&#x3b9;" horiz-adv-x="309" 
d="M196 401v-287q0 -28 14.5 -41t35.5 -13q14 0 26 3.5t21 7.5v-21q-10 -31 -38 -46.5t-59 -15.5q-52 0 -80 32.5t-28 94.5v254q0 43 -12 79.5t-29 52.5l145 43l8 -6q-2 -33 -3 -68t-1 -69z" />
    <glyph glyph-name="kappa" unicode="&#x3ba;" horiz-adv-x="544" 
d="M290 303l123 -194q12 -17 25.5 -32t38.5 -15q14 0 26.5 3t22.5 8v-21q-11 -31 -40 -47.5t-60 -16.5q-30 0 -51.5 13.5t-33.5 35.5l-147 221v-77q0 -43 3 -93t15 -88h-144q12 38 15 88t3 93v189q0 43 -12 79.5t-29 52.5l145 43l8 -6q0 -5 -1 -25t-1.5 -43t-1 -43.5
t-0.5 -26.5v-126l130 152q30 35 44 59t20 49h116q-31 -28 -60 -58t-60 -65z" />
    <glyph glyph-name="lambda" unicode="&#x3bb;" horiz-adv-x="549" 
d="M234 436l-91 -300q-13 -43 -15 -77t-1 -59h-110q14 29 29.5 64.5t33.5 87.5l126 381l-30 98q-10 35 -28 61.5t-57 26.5q-9 0 -23.5 -2.5t-21.5 -5.5v21q19 25 45.5 36.5t54.5 11.5q63 0 92.5 -39t47.5 -99l153 -523q8 -28 21 -42.5t35 -14.5q10 0 22.5 1.5t22.5 5.5v-21
q-11 -30 -40 -44t-60 -14q-49 0 -72.5 31t-36.5 78l-93 337h-4z" />
    <glyph glyph-name="mu" unicode="&#x3bc;" horiz-adv-x="633" 
d="M86 -27v396q0 43 -12 79.5t-29 52.5l145 43l8 -6q-2 -33 -3 -68t-1 -69v-232q0 -49 21 -77.5t72 -28.5q44 0 77 21t48 46v248q0 34 -4.5 73.5t-16.5 72.5l129 17v-427q0 -28 14.5 -41t34.5 -13q15 0 26.5 3.5t21.5 7.5v-21q-11 -31 -38.5 -46.5t-58.5 -15.5
q-46 0 -71 24.5t-30 72.5h-4q-6 -14 -17 -30.5t-28 -30.5t-40 -23t-53 -9q-20 0 -44.5 8t-34.5 24h-4v-47q0 -49 5 -99t16 -86h-148q12 38 15.5 88t3.5 93z" />
    <glyph glyph-name="nu" unicode="&#x3bd;" horiz-adv-x="521" 
d="M293 153h4l71 195q10 27 9 45t-6 32.5t-10.5 29t-5.5 34.5q0 23 15 40t43 17q26 0 43 -18.5t17 -49.5q0 -30 -16 -70t-29 -71l-141 -343h-44l-156 390q-18 46 -33.5 81t-34.5 70h152q0 -31 8.5 -68t23.5 -78z" />
    <glyph glyph-name="xi" unicode="&#x3be;" horiz-adv-x="506" 
d="M78 591q0 41 17.5 76t47 60t69 39t83.5 14q48 0 83.5 -10t58.5 -26.5t34 -36.5t11 -41q0 -28 -14.5 -43.5t-41.5 -15.5q-25 0 -38 16t-16 47q-2 31 -21 45t-55 14q-48 0 -78.5 -33.5t-30.5 -94.5q0 -69 36.5 -107.5t90.5 -38.5q9 0 22.5 0.5t27.5 1t25.5 1.5t16.5 2v-67
q-7 1 -19 2t-26 2t-27 1.5t-21 0.5q-32 0 -61.5 -10.5t-51 -30t-34.5 -49.5t-13 -68q0 -52 30.5 -80t73.5 -43q37 -13 75 -23.5t68 -24.5t49.5 -35t19.5 -54q0 -43 -32 -80t-75 -62l-12 15q19 16 33 36t14 46q0 19 -15.5 32t-40.5 23t-57.5 19t-66.5 19q-32 10 -63 25.5
t-55.5 38.5t-39.5 54.5t-15 72.5q0 38 12.5 73.5t36.5 62.5t59 44.5t79 20.5v4q-77 13 -115 61t-38 105z" />
    <glyph glyph-name="omicron" unicode="&#x3bf;" horiz-adv-x="605" 
d="M307 -12q-55 0 -103.5 19.5t-84 55t-56.5 86.5t-21 113q0 65 21 118t56.5 89.5t82 56.5t96.5 20q55 0 103.5 -19.5t84 -55t56.5 -86t21 -112.5q0 -65 -21 -118t-56.5 -90t-82 -57t-96.5 -20zM298 494q-61 0 -99 -55t-38 -165q0 -114 41.5 -173.5t104.5 -59.5q61 0 99 55
t38 165q0 114 -41.5 173.5t-104.5 59.5z" />
    <glyph glyph-name="pi" unicode="&#x3c0;" horiz-adv-x="669" 
d="M418 115v364h-176v-307q0 -48 3 -92t14 -80h-143q12 39 15 91t3 91v294q-27 -4 -57 -13t-50 -19l12 91h419l184 7l-10 -70l-106 5v-364q0 -28 10.5 -42t31.5 -14q14 0 26 3.5t22 7.5v-21q-11 -29 -36 -44t-56 -15q-51 0 -78.5 32.5t-27.5 94.5z" />
    <glyph glyph-name="rho" unicode="&#x3c1;" horiz-adv-x="595" 
d="M178 -27q0 -49 5.5 -97t16.5 -84h-148q12 38 15 88t3 93v299q0 70 18.5 122t50.5 85.5t75.5 50t93.5 16.5q59 0 105.5 -19t78 -53.5t48 -83t16.5 -106.5q0 -56 -15 -109.5t-47 -94.5t-82.5 -66.5t-121.5 -25.5q-25 0 -56 7t-56 22v-44zM178 285v-189q19 -17 49 -35.5
t63 -18.5q78 0 114 57.5t36 173.5q0 113 -37.5 167t-99.5 54q-60 0 -92.5 -48t-32.5 -161z" />
    <glyph glyph-name="uni03C2" unicode="&#x3c2;" horiz-adv-x="506" 
d="M46 261q0 72 23 126t60 89t84.5 52.5t97.5 17.5q88 0 125.5 -33t37.5 -71q0 -28 -14 -44t-42 -16q-25 0 -37.5 16.5t-16.5 47.5q-2 31 -13 39.5t-45 8.5q-61 0 -106 -54t-45 -152q0 -59 20 -104.5t70 -67.5q31 -15 65 -25t62 -23t46 -33t18 -54q0 -43 -32 -80t-75 -62
l-12 15q19 16 33 36t14 46q0 19 -15 32t-39 22.5t-54.5 19t-62.5 22.5q-72 29 -109.5 89.5t-37.5 139.5z" />
    <glyph glyph-name="sigma" unicode="&#x3c3;" horiz-adv-x="626" 
d="M426 477v-4q67 -26 100.5 -82t33.5 -120q0 -66 -20.5 -119t-55 -89t-81 -55.5t-96.5 -19.5q-55 0 -103.5 19.5t-84 55t-56.5 86.5t-21 113q0 66 22 117t57.5 85.5t81.5 52.5t95 18h295l-14 -84zM298 477q-26 0 -51 -10.5t-44 -34t-30.5 -62.5t-11.5 -96
q0 -114 41.5 -173.5t104.5 -59.5q60 0 98.5 53.5t38.5 166.5t-42 164.5t-104 51.5z" />
    <glyph glyph-name="tau" unicode="&#x3c4;" horiz-adv-x="495" 
d="M293 467v-339q0 -29 11 -45t38 -16q22 0 39 4.5t30 12.5q-1 -12 -2 -18.5t-5 -16.5q-10 -27 -38 -44t-68 -17q-54 0 -83 34.5t-29 97.5v347h-30q-23 0 -63.5 -9t-68.5 -21l15 98h426l-12 -68h-160z" />
    <glyph glyph-name="upsilon" unicode="&#x3c5;" horiz-adv-x="550" 
d="M187 413v-204q0 -74 27 -111.5t84 -37.5q45 0 72.5 24t41.5 60.5t18.5 80t4.5 82.5q0 50 -9 77.5t-28 39.5q-26 15 -36.5 30t-10.5 38q0 25 15 39.5t42 14.5q16 0 30 -9t24 -25q22 -38 30.5 -89.5t8.5 -118.5q0 -52 -11 -108.5t-37 -102t-68 -75.5t-103 -30
q-102 0 -152.5 54t-50.5 163v166q0 43 -11.5 79.5t-28.5 52.5l144 41l8 -6q-1 -12 -2 -28.5t-1.5 -34t-0.5 -34v-28.5z" />
    <glyph glyph-name="phi" unicode="&#x3c6;" horiz-adv-x="767" 
d="M161 268q0 -101 41 -161.5t125 -66.5v324q0 80 43.5 131t130.5 51q54 0 96 -21t70 -58.5t43 -88.5t15 -111q0 -52 -16.5 -101.5t-51.5 -88t-90.5 -63.5t-131.5 -28v-13q0 -49 5.5 -97t15.5 -84h-147q12 38 15 88t3 93v13q-68 3 -121.5 24.5t-89.5 57t-55 84t-19 104.5
q0 87 37 163t99 116h101q-66 -52 -92 -118.5t-26 -148.5zM435 384v-345q53 3 86.5 20.5t52 46t25.5 66.5t7 81q0 110 -28.5 175.5t-73.5 65.5q-37 0 -53 -28.5t-16 -81.5z" />
    <glyph glyph-name="chi" unicode="&#x3c7;" horiz-adv-x="559" 
d="M212 471l99 -197l80 159q15 28 24.5 52.5t15.5 49.5h106q-27 -34 -48 -64.5t-43 -70.5l-103 -190l116 -230q22 -43 49 -92.5t53 -95.5h-135q-10 33 -25 66.5t-34 71.5l-95 187l-104 -204q-11 -22 -23.5 -54t-22.5 -67h-102q28 44 45 71t39 68l135 250l-129 254
q-11 22 -27.5 38t-36.5 16q-10 0 -19.5 -2.5t-16.5 -6.5v21q14 22 38 33.5t54 11.5q46 0 69.5 -20.5t40.5 -54.5z" />
    <glyph glyph-name="psi" unicode="&#x3c8;" horiz-adv-x="758" 
d="M457 -27q0 -49 5.5 -97t15.5 -84h-147q12 38 15 88t3 93v17q-75 5 -126.5 26.5t-83.5 54.5t-46 76t-14 91v133q0 43 -11.5 79.5t-28.5 52.5l144 41l8 -6q-1 -12 -2 -28.5t-1.5 -34t-0.5 -34v-28.5v-168q0 -69 37.5 -120t124.5 -63v478q0 34 -4.5 74t-15.5 73l128 16v-640
q57 7 94 30.5t58 56t29 70.5t8 74q0 51 -13 83.5t-29 45.5q-24 18 -34.5 32t-10.5 37q0 25 15 39.5t42 14.5q16 0 30 -8.5t24 -23.5q24 -40 32.5 -92.5t8.5 -112.5q0 -58 -13 -111t-43 -94.5t-78.5 -70.5t-119.5 -41v-19z" />
    <glyph glyph-name="omega" unicode="&#x3c9;" horiz-adv-x="764" 
d="M589 535q60 -40 96 -115.5t36 -158.5q0 -51 -13 -100t-37.5 -87.5t-60.5 -62t-81 -23.5q-46 0 -84.5 22t-62.5 83h-4q-24 -61 -60.5 -83t-82.5 -22q-49 0 -85.5 22.5t-60.5 59t-35.5 84.5t-11.5 99q0 44 9 86.5t26 79.5t42.5 67t58.5 49h101q-67 -49 -92.5 -114
t-25.5 -156q0 -111 24.5 -164t64.5 -53q26 0 41.5 15t23.5 36.5t10.5 46t2.5 43.5v168l108 15v-183q0 -19 2.5 -43.5t10.5 -46t23.5 -36.5t41.5 -15q39 0 64 47t25 158q0 97 -32 165t-92 117h110z" />
    <glyph glyph-name="iotadieresis" unicode="&#x3ca;" horiz-adv-x="309" 
d="M196 401v-287q0 -28 14.5 -41t35.5 -13q14 0 26 3.5t21 7.5v-21q-10 -31 -38 -46.5t-59 -15.5q-52 0 -80 32.5t-28 94.5v254q0 43 -12 79.5t-29 52.5l145 43l8 -6q-2 -33 -3 -68t-1 -69zM50 607q-26 0 -41.5 17t-15.5 40t15.5 41t41.5 18q27 0 42.5 -18t15.5 -41
t-15.5 -40t-42.5 -17zM244 607q-27 0 -42.5 17t-15.5 40t15.5 41t42.5 18q26 0 41.5 -18t15.5 -41t-15.5 -40t-41.5 -17z" />
    <glyph glyph-name="upsilondieresis" unicode="&#x3cb;" horiz-adv-x="550" 
d="M187 413v-204q0 -74 27 -111.5t84 -37.5q45 0 72.5 24t41.5 60.5t18.5 80t4.5 82.5q0 50 -9 77.5t-28 39.5q-26 15 -36.5 30t-10.5 38q0 25 15 39.5t42 14.5q16 0 30 -9t24 -25q22 -38 30.5 -89.5t8.5 -118.5q0 -52 -11 -108.5t-37 -102t-68 -75.5t-103 -30
q-102 0 -152.5 54t-50.5 163v166q0 43 -11.5 79.5t-28.5 52.5l144 41l8 -6q-1 -12 -2 -28.5t-1.5 -34t-0.5 -34v-28.5zM173 607q-26 0 -41.5 17t-15.5 40t15.5 41t41.5 18q27 0 42.5 -18t15.5 -41t-15.5 -40t-42.5 -17zM367 607q-27 0 -42.5 17t-15.5 40t15.5 41t42.5 18
q26 0 41.5 -18t15.5 -41t-15.5 -40t-41.5 -17z" />
    <glyph glyph-name="omicrontonos" unicode="&#x3cc;" horiz-adv-x="605" 
d="M307 -12q-55 0 -103.5 19.5t-84 55t-56.5 86.5t-21 113q0 65 21 118t56.5 89.5t82 56.5t96.5 20q55 0 103.5 -19.5t84 -55t56.5 -86t21 -112.5q0 -65 -21 -118t-56.5 -90t-82 -57t-96.5 -20zM298 494q-61 0 -99 -55t-38 -165q0 -114 41.5 -173.5t104.5 -59.5q61 0 99 55
t38 165q0 114 -41.5 173.5t-104.5 59.5zM274 596l36 172h112l-107 -172h-41z" />
    <glyph glyph-name="upsilontonos" unicode="&#x3cd;" horiz-adv-x="550" 
d="M187 413v-204q0 -74 27 -111.5t84 -37.5q45 0 72.5 24t41.5 60.5t18.5 80t4.5 82.5q0 50 -9 77.5t-28 39.5q-26 15 -36.5 30t-10.5 38q0 25 15 39.5t42 14.5q16 0 30 -9t24 -25q22 -38 30.5 -89.5t8.5 -118.5q0 -52 -11 -108.5t-37 -102t-68 -75.5t-103 -30
q-102 0 -152.5 54t-50.5 163v166q0 43 -11.5 79.5t-28.5 52.5l144 41l8 -6q-1 -12 -2 -28.5t-1.5 -34t-0.5 -34v-28.5zM259 596l36 172h112l-107 -172h-41z" />
    <glyph glyph-name="omegatonos" unicode="&#x3ce;" horiz-adv-x="764" 
d="M589 535q60 -40 96 -115.5t36 -158.5q0 -51 -13 -100t-37.5 -87.5t-60.5 -62t-81 -23.5q-46 0 -84.5 22t-62.5 83h-4q-24 -61 -60.5 -83t-82.5 -22q-49 0 -85.5 22.5t-60.5 59t-35.5 84.5t-11.5 99q0 44 9 86.5t26 79.5t42.5 67t58.5 49h101q-67 -49 -92.5 -114
t-25.5 -156q0 -111 24.5 -164t64.5 -53q26 0 41.5 15t23.5 36.5t10.5 46t2.5 43.5v168l108 15v-183q0 -19 2.5 -43.5t10.5 -46t23.5 -36.5t41.5 -15q39 0 64 47t25 158q0 97 -32 165t-92 117h110zM355 596l36 172h112l-107 -172h-41z" />
    <glyph glyph-name="Upsilon1" unicode="&#x3d2;" horiz-adv-x="640" 
d="M264 188v184q0 31 -5.5 74t-21.5 81t-44.5 65t-73.5 27q-10 0 -28 -1.5t-39 -7.5l10 112q14 4 34 7.5t39 3.5q97 0 144.5 -64t60.5 -182h5q16 126 68.5 186t123.5 60q19 0 36 -3t23 -7l-9 -104h-5q-9 6 -27.5 12t-37.5 6q-33 0 -58 -23t-41.5 -58.5t-24.5 -79.5t-8 -86
v-202q0 -43 6 -95.5t16 -92.5h-167q13 40 18.5 92.5t5.5 95.5z" />
    <glyph glyph-name="phi.math" unicode="&#x3d5;" horiz-adv-x="767" 
d="M435 -27q0 -49 5.5 -97t15.5 -84h-147q12 38 15 88t3 93v13q-68 3 -121.5 25t-89.5 58t-55 85.5t-19 106.5q0 53 16.5 103t51 89t88.5 64.5t129 29.5q-1 33 -5.5 70.5t-14.5 68.5l128 17v-155q70 -2 124 -24t91 -58.5t56 -86t19 -107.5q0 -53 -16.5 -103.5t-51.5 -89.5
t-90.5 -64.5t-131.5 -28.5v-13zM606 260q0 102 -42 166t-129 69v-456q53 3 86.5 21.5t52 48.5t25.5 69t7 82zM161 274q0 -101 41 -164t125 -70v454q-51 -3 -83.5 -22t-51 -48.5t-25 -68t-6.5 -81.5z" />
    <glyph glyph-name="pi.math" unicode="&#x3d6;" horiz-adv-x="787" 
d="M732 255q0 -49 -13 -97t-37.5 -85.5t-60.5 -61t-81 -23.5q-46 0 -84 22t-62 83h-4q-25 -61 -61 -83t-82 -22q-49 0 -85 22t-59.5 58t-35 83t-11.5 96q0 69 29 131.5t79 100.5h-8q-28 0 -70 -11t-69 -24l12 91h549l183 7l-10 -70l-127 6q47 -38 77.5 -97.5t30.5 -125.5z
M447 189q0 -19 2.5 -43.5t10.5 -46t23.5 -36.5t41.5 -15q39 0 64 46t25 153q0 74 -24 133t-69 99h-264q-47 -40 -65.5 -95.5t-18.5 -124.5q0 -107 25 -159t64 -52q26 0 41.5 15t23.5 36.5t10.5 46t2.5 43.5v163l107 15v-178z" />
    <glyph glyph-name="Thetasymbol" unicode="&#x3f4;" horiz-adv-x="766" 
d="M47 351q0 93 30.5 165t78 120t107.5 73t119 25q66 0 127.5 -23t107.5 -68.5t74 -114t28 -157.5q0 -93 -30.5 -165t-78 -120t-107.5 -73t-119 -25q-66 0 -127.5 23t-107.5 68.5t-74 114t-28 157.5zM382 678q-81 0 -138.5 -65t-65.5 -211h409q-7 146 -64.5 211t-140.5 65z
M384 44q87 0 144 71t60 233h-411q1 -81 17.5 -139t44 -94.5t65 -53.5t80.5 -17z" />
    <glyph glyph-name="epsilonlunatesymbol" unicode="&#x3f5;" horiz-adv-x="510" 
d="M476 117q-7 -24 -22.5 -47t-39 -41t-56.5 -29.5t-75 -11.5q-50 0 -94.5 18t-76.5 52t-51 83.5t-19 112.5q0 72 23 126.5t60 91.5t84.5 55.5t97.5 18.5q88 0 125.5 -33t37.5 -71q0 -28 -14 -44t-42 -16q-25 0 -37.5 16.5t-16.5 47.5q-2 31 -13 39.5t-45 8.5
q-58 0 -102.5 -50t-49.5 -137h190v-56h-190q8 -90 53.5 -134t115.5 -44q51 0 90.5 16.5t64.5 44.5z" />
    <glyph glyph-name="epsilonreversedlunatesymbol" unicode="&#x3f6;" horiz-adv-x="510" 
d="M34 117l2 17q25 -28 64.5 -44.5t90.5 -16.5q70 0 115.5 44t53.5 134h-190v56h190q-5 87 -49.5 137t-102.5 50q-34 0 -45 -8.5t-13 -39.5q-4 -31 -16.5 -47.5t-37.5 -16.5q-28 0 -42 16t-14 44q0 38 37.5 71t125.5 33q50 0 97.5 -18.5t84.5 -55.5t60 -91.5t23 -126.5
q0 -63 -19 -112.5t-51 -83.5t-76.5 -52t-94.5 -18q-42 0 -75 11.5t-56.5 29.5t-39 41t-22.5 47z" />
    <glyph glyph-name="rhostrokesymbol" unicode="&#x3fc;" horiz-adv-x="595" 
d="M242 -117h-61q2 -21 7 -44.5t12 -46.5h-148q7 23 11 46.5t5 44.5q-16 -1 -34 -1.5t-43 -1.5l5 51q22 -1 40 -1t34 -1v343q0 70 18.5 122t50.5 85.5t75.5 50t93.5 16.5q59 0 105.5 -19t78 -53.5t48 -83t16.5 -106.5q0 -51 -15 -102t-47 -91.5t-82.5 -65.5t-121.5 -25
q-25 0 -56 7t-56 22v-100h64q33 0 56.5 1t64.5 3l-5 -54q-28 1 -55.5 2.5t-60.5 1.5zM178 285v-177q19 -17 49 -35.5t63 -18.5q78 0 114 56t36 163q0 113 -37.5 167t-99.5 54q-60 0 -92.5 -48t-32.5 -161z" />
    <glyph glyph-name="Wgrave" unicode="&#x1e80;" horiz-adv-x="936" 
d="M214 548l81 -360h3l165 534h64l157 -534h3l89 337q13 53 20.5 104.5t-2.5 92.5h117q-19 -46 -35.5 -95t-32.5 -108l-140 -521h-73l-161 520h-5l-165 -520h-74l-131 525q-16 66 -30.5 108.5t-36.5 90.5h178q-4 -43 -3.5 -81.5t12.5 -92.5zM407 910q60 -34 106.5 -60
t94.5 -53l-14 -33q-55 13 -107 25t-114 28z" />
    <glyph glyph-name="wgrave" unicode="&#x1e81;" horiz-adv-x="752" 
d="M166 535q-3 -29 3 -66.5t18 -78.5l62 -218h4l122 363h48l123 -363h4l61 208q11 39 16 83.5t-1 71.5h108q-13 -31 -30.5 -76t-33.5 -94l-114 -371h-49l-129 361h-4l-127 -361h-49l-120 382q-15 48 -30 86.5t-30 72.5h148zM305 757q52 -33 101 -66t94 -61l-15 -34
q-54 18 -109 36.5t-110 35.5z" />
    <glyph glyph-name="Wacute" unicode="&#x1e82;" horiz-adv-x="936" 
d="M214 548l81 -360h3l165 534h64l157 -534h3l89 337q13 53 20.5 104.5t-2.5 92.5h117q-19 -46 -35.5 -95t-32.5 -108l-140 -521h-73l-161 520h-5l-165 -520h-74l-131 525q-16 66 -30.5 108.5t-36.5 90.5h178q-4 -43 -3.5 -81.5t12.5 -92.5zM591 910l34 -93
q-62 -16 -114 -28t-107 -25l-14 33q48 27 94.5 53t106.5 60z" />
    <glyph glyph-name="wacute" unicode="&#x1e83;" horiz-adv-x="752" 
d="M166 535q-3 -29 3 -66.5t18 -78.5l62 -218h4l122 363h48l123 -363h4l61 208q11 39 16 83.5t-1 71.5h108q-13 -31 -30.5 -76t-33.5 -94l-114 -371h-49l-129 361h-4l-127 -361h-49l-120 382q-15 48 -30 86.5t-30 72.5h148zM494 757l39 -89q-55 -17 -110 -35.5t-109 -36.5
l-15 34q45 28 94 61t101 66z" />
    <glyph glyph-name="Wdieresis" unicode="&#x1e84;" horiz-adv-x="936" 
d="M214 548l81 -360h3l165 534h64l157 -534h3l89 337q13 53 20.5 104.5t-2.5 92.5h117q-19 -46 -35.5 -95t-32.5 -108l-140 -521h-73l-161 520h-5l-165 -520h-74l-131 525q-16 66 -30.5 108.5t-36.5 90.5h178q-4 -43 -3.5 -81.5t12.5 -92.5zM392 771q-27 0 -43 17.5
t-16 41.5t16 42t43 18q28 0 43.5 -18t15.5 -42t-15.5 -41.5t-43.5 -17.5zM592 771q-28 0 -43.5 17.5t-15.5 41.5t15.5 42t43.5 18q27 0 43 -18t16 -42t-16 -41.5t-43 -17.5z" />
    <glyph glyph-name="wdieresis" unicode="&#x1e85;" horiz-adv-x="752" 
d="M166 535q-3 -29 3 -66.5t18 -78.5l62 -218h4l122 363h48l123 -363h4l61 208q11 39 16 83.5t-1 71.5h108q-13 -31 -30.5 -76t-33.5 -94l-114 -371h-49l-129 361h-4l-127 -361h-49l-120 382q-15 48 -30 86.5t-30 72.5h148zM296 607q-26 0 -41.5 17t-15.5 40t15.5 41
t41.5 18q27 0 42.5 -18t15.5 -41t-15.5 -40t-42.5 -17zM490 607q-27 0 -42.5 17t-15.5 40t15.5 41t42.5 18q26 0 41.5 -18t15.5 -41t-15.5 -40t-41.5 -17z" />
    <glyph glyph-name="Ygrave" unicode="&#x1ef2;" horiz-adv-x="624" 
d="M374 188q0 -43 6 -95.5t16 -92.5h-167q13 40 19 92.5t6 95.5v120l-144 262q-28 50 -47.5 80.5t-50.5 71.5h174q4 -31 14 -56.5t34 -71.5l106 -205h5l91 177q25 49 38 82.5t22 73.5h118q-35 -49 -65 -95t-57 -95l-118 -221v-123zM252 910q60 -34 106.5 -60t94.5 -53
l-14 -33q-55 13 -107 25t-114 28z" />
    <glyph glyph-name="ygrave" unicode="&#x1ef3;" horiz-adv-x="526" 
d="M232 15l-149 382q-18 46 -33 77t-31 61h154q-2 -31 5 -61.5t24 -78.5l85 -243h4l87 249q14 40 18 73t-1 61h113q-15 -30 -32.5 -66.5t-37.5 -88.5l-119 -317q-53 -139 -104.5 -207.5t-121.5 -68.5q-33 0 -50 15.5t-17 39.5q0 22 13.5 35t34.5 13q23 0 34 -8.5t26 -8.5
q22 0 49 38.5t49 103.5zM183 757q52 -33 101 -66t94 -61l-15 -34q-54 18 -109 36.5t-110 35.5z" />
    <glyph glyph-name="uni2009" unicode="&#x2009;" horiz-adv-x="181" 
 />
    <glyph glyph-name="endash" unicode="&#x2013;" horiz-adv-x="575" 
d="M65 308v52h444v-52h-444z" />
    <glyph glyph-name="emdash" unicode="&#x2014;" horiz-adv-x="735" 
d="M65 308v52h604v-52h-604z" />
    <glyph glyph-name="verticalbardbl" unicode="&#x2016;" horiz-adv-x="473" 
d="M95 -100v880h68v-880h-68zM310 -100v880h68v-880h-68z" />
    <glyph glyph-name="quoteleft" unicode="&#x2018;" horiz-adv-x="233" 
d="M203 715q-32 -30 -44.5 -89.5t-16.5 -131.5l-107 13q2 70 48 131.5t106 95.5z" />
    <glyph glyph-name="quoteright" unicode="&#x2019;" horiz-adv-x="231" 
d="M29 520q33 30 46.5 85.5t17.5 127.5l103 -12q-1 -70 -46.5 -128t-105.5 -92z" />
    <glyph glyph-name="quotesinglbase" unicode="&#x201a;" horiz-adv-x="233" 
d="M24 -86q33 30 46.5 85.5t17.5 127.5l103 -12q-1 -70 -46.5 -128t-105.5 -92z" />
    <glyph glyph-name="quotereversed" unicode="&#x201b;" horiz-adv-x="233" 
d="M203 512l-14 -18q-60 34 -106 95.5t-48 131.5l107 12q4 -72 16.5 -131t44.5 -90z" />
    <glyph glyph-name="quotedblleft" unicode="&#x201c;" horiz-adv-x="411" 
d="M381 716q-32 -30 -44.5 -89.5t-16.5 -131.5l-107 13q2 70 48 131.5t106 95.5zM203 716q-32 -30 -44.5 -89.5t-16.5 -131.5l-107 13q2 70 48 131.5t106 95.5z" />
    <glyph glyph-name="quotedblright" unicode="&#x201d;" horiz-adv-x="403" 
d="M29 512q33 31 45.5 90t16.5 131l107 -12q-2 -70 -48 -131.5t-106 -95.5zM199 512q33 31 45.5 90t16.5 131l107 -12q-2 -70 -48 -131.5t-106 -95.5z" />
    <glyph glyph-name="quotedblbase" unicode="&#x201e;" horiz-adv-x="403" 
d="M24 -94q33 31 45.5 90t16.5 131l107 -12q-2 -70 -48 -131.5t-106 -95.5zM194 -94q33 31 45.5 90t16.5 131l107 -12q-2 -70 -48 -131.5t-106 -95.5z" />
    <glyph glyph-name="quotedblreversed" unicode="&#x201f;" horiz-adv-x="411" 
d="M203 512l-14 -18q-60 34 -106 95.5t-48 131.5l107 12q4 -72 16.5 -131t44.5 -90zM381 512l-14 -18q-60 34 -106 95.5t-48 131.5l107 12q4 -72 16.5 -131t44.5 -90z" />
    <glyph glyph-name="dagger" unicode="&#x2020;" horiz-adv-x="479" 
d="M218 -131l-37 523l32 106l-186 -21l7 84l180 -26l-26 187h97l-25 -188l192 21l-7 -84l-183 26l31 -105l-40 -523h-35z" />
    <glyph glyph-name="daggerdbl" unicode="&#x2021;" horiz-adv-x="481" 
d="M219 320l-34 127l27 71l-184 -21l7 84l180 -26l-26 167h97l-25 -168l192 21l-7 -84l-182 26l27 -70l-37 -127h-35zM219 271h35l37 -126l-27 -72l189 21l-7 -83l-185 25l25 -167h-97l26 167l-187 -19l7 83l176 -24l-26 69z" />
    <glyph glyph-name="bullet" unicode="&#x2022;" horiz-adv-x="366" 
d="M53 341q0 53 37 91.5t93 38.5t93 -38.5t37 -91.5t-37 -91.5t-93 -38.5t-93 38.5t-37 91.5z" />
    <glyph glyph-name="ellipsis" unicode="&#x2026;" horiz-adv-x="952" 
d="M169 -12q-34 0 -54.5 22t-20.5 53q0 30 20.5 52t54.5 22t54.5 -22t20.5 -52q0 -31 -20.5 -53t-54.5 -22zM476 -12q-34 0 -54.5 22t-20.5 53q0 30 20.5 52t54.5 22t54.5 -22t20.5 -52q0 -31 -20.5 -53t-54.5 -22zM783 -12q-34 0 -54.5 22t-20.5 53q0 30 20.5 52t54.5 22
t54.5 -22t20.5 -52q0 -31 -20.5 -53t-54.5 -22z" />
    <glyph glyph-name="perthousand" unicode="&#x2030;" horiz-adv-x="1031" 
d="M186 733q60 0 102 -46.5t42 -130.5q0 -43 -12.5 -77.5t-32.5 -58t-46 -36t-52 -12.5q-59 0 -101.5 47t-42.5 131q0 44 12.5 78t32.5 57.5t46 35.5t52 12zM63 0l507 722h62l-508 -722h-61zM187 405q36 0 51 39t15 111q0 73 -15.5 109t-51.5 36t-53 -38.5t-17 -110.5
q0 -73 17 -109.5t54 -36.5zM508 -11q-59 0 -101.5 47t-42.5 131q0 44 12.5 78t32.5 57.5t46 35.5t52 12q60 0 102 -46.5t42 -130.5q0 -44 -12.5 -78t-32.5 -57.5t-46 -36t-52 -12.5zM848 -11q-60 0 -102 47t-42 131q0 44 12.5 78t32.5 57.5t46 35.5t52 12q59 0 101.5 -46.5
t42.5 -130.5q0 -44 -12.5 -78t-32.5 -57.5t-46 -36t-52 -12.5zM507 317q-36 0 -53 -38.5t-17 -110.5q0 -73 17.5 -109.5t53.5 -36.5t51 39t15 111q0 73 -15.5 109t-51.5 36zM847 317q-36 0 -53.5 -38.5t-17.5 -110.5q0 -73 17.5 -109.5t54.5 -36.5q35 0 50 39t15 111
q0 73 -15 109t-51 36z" />
    <glyph glyph-name="pertenthousandsign" unicode="&#x2031;" horiz-adv-x="1373" 
d="M43 550q0 44 12.5 78t32.5 57.5t46 35.5t52 12q60 0 102 -46.5t42 -130.5q0 -43 -12.5 -77.5t-32.5 -58t-46 -36t-52 -12.5q-59 0 -101.5 47t-42.5 131zM63 0l507 722h62l-508 -722h-61zM116 551q0 -73 17 -109.5t54 -36.5q36 0 51 39t15 111q0 73 -15.5 109t-51.5 36
t-53 -38.5t-17 -110.5zM651 173q0 -44 -12.5 -78t-32.5 -57.5t-46 -36t-52 -12.5q-59 0 -101.5 47t-42.5 131q0 44 12.5 78t32.5 57.5t46 35.5t52 12q60 0 102 -46.5t42 -130.5zM991 173q0 -44 -12.5 -78t-32.5 -57.5t-46 -36t-52 -12.5q-60 0 -102 47t-42 131q0 44 12.5 78
t32.5 57.5t46 35.5t52 12q59 0 101.5 -46.5t42.5 -130.5zM1330 173q0 -44 -12.5 -78t-32.5 -57.5t-46 -36t-52 -12.5q-59 0 -101.5 47t-42.5 131q0 44 12.5 78t32.5 57.5t46 35.5t52 12q60 0 102 -46.5t42 -130.5zM574 172q0 73 -15.5 109t-51.5 36t-53 -38.5t-17 -110.5
q0 -73 17.5 -109.5t53.5 -36.5t51 39t15 111zM913 172q0 73 -15 109t-51 36t-53.5 -38.5t-17.5 -110.5q0 -73 17.5 -109.5t54.5 -36.5q35 0 50 39t15 111zM1253 172q0 73 -15 109t-52 36q-35 0 -52.5 -38.5t-17.5 -110.5q0 -73 17.5 -109.5t53.5 -36.5t51 39t15 111z" />
    <glyph glyph-name="uni2032" unicode="&#x2032;" horiz-adv-x="270" 
d="M35 436q31 69 60.5 144.5t51.5 141.5h112q-35 -71 -81.5 -144.5t-100.5 -141.5h-42z" />
    <glyph glyph-name="uni2033" unicode="&#x2033;" horiz-adv-x="404" 
d="M35 436q31 69 60.5 144.5t51.5 141.5h112q-35 -71 -81.5 -144.5t-100.5 -141.5h-42zM207 436q31 69 60.5 144.5t51.5 141.5h112q-35 -71 -81.5 -144.5t-100.5 -141.5h-42z" />
    <glyph glyph-name="millisecond" unicode="&#x2034;" horiz-adv-x="576" 
d="M35 436q31 69 60.5 144.5t51.5 141.5h112q-35 -71 -81.5 -144.5t-100.5 -141.5h-42zM207 436q31 69 60.5 144.5t51.5 141.5h112q-35 -71 -81.5 -144.5t-100.5 -141.5h-42zM379 436q31 69 60.5 144.5t51.5 141.5h112q-35 -71 -81.5 -144.5t-100.5 -141.5h-42z" />
    <glyph glyph-name="guilsinglleft" unicode="&#x2039;" horiz-adv-x="301" 
d="M53 271v28l186 154l20 -18l-106 -148v-5l106 -146l-21 -18z" />
    <glyph glyph-name="guilsinglright" unicode="&#x203a;" horiz-adv-x="301" 
d="M248 271l-185 -153l-21 18l106 146v5l-106 148l20 18l186 -154v-28z" />
    <glyph glyph-name="asterism" unicode="&#x2042;" horiz-adv-x="772" 
d="M222 -5l-72 -2q5 34 9.5 66t6.5 59q-22 -15 -47 -34.5t-52 -41.5l-37 61q31 13 62 25t56 24q-24 11 -54 23t-64 25l35 63q27 -22 53 -42t48 -36q-2 27 -7 59t-11 67l72 2q-5 -35 -10.5 -69t-7.5 -62q22 16 47 36.5t55 45.5l37 -62q-32 -12 -62.5 -25t-55.5 -25
q24 -10 54 -21.5t64 -24.5l-35 -63q-27 22 -54 42.5t-49 35.5q2 -26 7.5 -58t11.5 -68zM422 404l-72 -2q5 34 9.5 66t6.5 59q-22 -15 -47 -34.5t-52 -41.5l-37 61q31 13 62 25t56 24q-24 11 -54 23t-64 25l35 63q27 -22 53 -42t48 -36q-2 27 -7 59t-11 67l72 2
q-5 -35 -10.5 -69t-7.5 -62q22 16 47 36.5t55 45.5l37 -62q-32 -12 -62.5 -25t-55.5 -25q24 -10 54 -21.5t64 -24.5l-35 -63q-27 22 -54 42.5t-49 35.5q2 -26 7.5 -58t11.5 -68zM622 -5l-72 -2q5 34 9.5 66t6.5 59q-22 -15 -47 -34.5t-52 -41.5l-37 61q31 13 62 25t56 24
q-24 11 -54 23t-64 25l35 63q27 -22 53 -42t48 -36q-2 27 -7 59t-11 67l72 2q-5 -35 -10.5 -69t-7.5 -62q22 16 47 36.5t55 45.5l37 -62q-32 -12 -62.5 -25t-55.5 -25q24 -10 54 -21.5t64 -24.5l-35 -63q-27 22 -54 42.5t-49 35.5q2 -26 7.5 -58t11.5 -68z" />
    <glyph glyph-name="fraction" unicode="&#x2044;" horiz-adv-x="211" 
d="M-200 11l568 761l44 -30l-572 -764z" />
    <glyph glyph-name="pilcrowsignreversed" unicode="&#x204b;" horiz-adv-x="632" 
d="M112 -114q1 49 1.5 87.5t0.5 71.5v64.5v67.5v504q-28 0 -52.5 -0.5t-37.5 -0.5v42h316q55 0 102 -14.5t81.5 -42.5t54 -70t19.5 -98q0 -48 -17.5 -88.5t-49 -69.5t-75.5 -45.5t-95 -16.5h-37v-100v-67.5t1 -64t2 -71t2 -88.5h-61q1 49 1.5 87.5t1 71.5t0.5 64.5v67.5v504
h-102v-504v-67.5t0.5 -64t1 -71t1.5 -88.5h-59z" />
    <glyph glyph-name="lowasterisk" unicode="&#x204e;" horiz-adv-x="372" 
d="M222 1l-72 -2q5 34 9.5 66t6.5 59q-22 -15 -47 -34.5t-52 -42.5l-37 62q31 13 62 25t56 24q-24 11 -54 23t-64 25l35 63q27 -22 53 -42t48 -36q-2 27 -7 59t-11 67l72 2q-5 -36 -10.5 -69t-7.5 -61q22 15 47 35.5t55 45.5l37 -62q-32 -12 -62.5 -25t-55.5 -25
q24 -11 54 -22.5t64 -23.5l-35 -64q-27 23 -54 43.5t-49 35.5q2 -26 7.5 -57.5t11.5 -68.5z" />
    <glyph glyph-name="zero.sup" unicode="&#x2070;" horiz-adv-x="455" 
d="M227 817q84 0 138 -61t54 -177q0 -60 -16 -106t-42.5 -77.5t-61 -47.5t-71.5 -16q-82 0 -137 61.5t-55 176.5q0 60 16 106.5t42.5 77.5t61 47t71.5 16zM228 372q48 0 71.5 47t23.5 159q0 111 -24.5 155t-71.5 44t-71 -47t-24 -159q0 -111 25 -155t71 -44z" />
    <glyph glyph-name="four.sup" unicode="&#x2074;" horiz-adv-x="455" 
d="M34 502l226 307h62v-280h99l-7 -57h-92q0 -47 5 -77t12 -55h-125q8 25 13 55t6 77h-189zM102 529h131v180z" />
    <glyph glyph-name="five.sup" unicode="&#x2075;" horiz-adv-x="455" 
d="M191 369q47 0 73 21.5t26 70.5q0 50 -43.5 81t-154.5 55l59 212h236l-25 -80q-16 3 -44 6t-54 3h-94l-19 -71q48 -10 89.5 -23.5t71.5 -33.5t47 -47.5t17 -64.5q0 -40 -15.5 -71t-41 -52t-59 -32t-69.5 -11q-43 0 -73 6.5t-55 17.5l-7 74q24 -22 62.5 -41.5t72.5 -19.5z
" />
    <glyph glyph-name="six.sup" unicode="&#x2076;" horiz-adv-x="455" 
d="M404 490q0 -36 -14 -65t-38 -50t-56 -32t-67 -11t-68 11t-58 33t-40.5 56.5t-15.5 81.5q0 56 27 105t68 87.5t92 66.5t98 43l11 -26q-61 -29 -109 -76t-71 -108q20 13 46 20t52 7q28 0 53.5 -8.5t45.5 -26t32 -44.5t12 -64zM145 507q0 -24 4 -48t14 -43.5t26 -32
t40 -12.5q43 0 62.5 31t19.5 77q0 56 -23 81t-60 25q-19 0 -40 -6t-38 -17q-2 -13 -3.5 -27t-1.5 -28z" />
    <glyph glyph-name="seven.sup" unicode="&#x2077;" horiz-adv-x="455" 
d="M102 340q84 132 142.5 226.5t99.5 164.5h-144q-43 0 -78 -3t-49 -9l21 90h308l11 -15q-46 -96 -104.5 -211.5t-120.5 -242.5h-86z" />
    <glyph glyph-name="eight.sup" unicode="&#x2078;" horiz-adv-x="455" 
d="M408 472q0 -58 -50 -99t-131 -41q-32 0 -63.5 6.5t-56 21t-40 37.5t-15.5 56q0 37 30.5 70.5t73.5 47.5q-36 17 -63 43.5t-27 77.5q0 31 14.5 54.5t38 39t54 23.5t62.5 8q72 0 115.5 -26t43.5 -80q0 -35 -28.5 -62t-68.5 -40q49 -20 80 -51.5t31 -85.5zM145 716
q0 -37 34 -57.5t81 -36.5q28 11 49.5 30t21.5 49q0 41 -24 59.5t-73 18.5q-42 0 -65.5 -18t-23.5 -45zM116 466q0 -46 30 -70.5t81 -24.5t76.5 22.5t25.5 53.5q0 40 -37 60.5t-103 49.5q-27 -12 -50 -35t-23 -56z" />
    <glyph glyph-name="nine.sup" unicode="&#x2079;" horiz-adv-x="455" 
d="M406 635q0 -56 -27 -105t-68 -87.5t-91.5 -67t-97.5 -43.5l-12 27q61 28 110.5 75.5t71.5 110.5q-20 -13 -45 -21t-52 -8q-28 0 -54.5 8.5t-46.5 26t-32.5 44.5t-12.5 64q0 36 14.5 65t38.5 49.5t56 31.5t67 11q34 0 67 -11t58 -33t40.5 -56t15.5 -81zM142 669
q0 -56 23.5 -81t60.5 -25q21 0 41 5.5t36 16.5q2 13 3.5 27.5t1.5 28.5q0 24 -4 48.5t-14 43.5t-26 31.5t-40 12.5q-43 0 -62.5 -31t-19.5 -77z" />
    <glyph glyph-name="plus.sup" unicode="&#x207a;" horiz-adv-x="441" 
d="M246 738v-144h140v-42h-140v-144h-49v144h-141v42h141v144h49z" />
    <glyph glyph-name="minus.sup" unicode="&#x207b;" horiz-adv-x="441" 
d="M386 552h-330v42h330v-42z" />
    <glyph glyph-name="zero.sub" unicode="&#x2080;" horiz-adv-x="455" 
d="M227 367q84 0 138 -61t54 -177q0 -60 -16 -106t-42.5 -77.5t-61 -47.5t-71.5 -16q-82 0 -137 61.5t-55 176.5q0 60 16 106.5t42.5 77.5t61 47t71.5 16zM228 -78q48 0 71.5 47t23.5 159q0 111 -24.5 155t-71.5 44t-71 -47t-24 -159q0 -111 25 -155t71 -44z" />
    <glyph glyph-name="one.sub" unicode="&#x2081;" horiz-adv-x="455" 
d="M283 34q0 -31 2.5 -57t6.5 -48h82v-39h-276v39h84q5 22 7.5 48t2.5 57v248l-98 3v30q60 7 110.5 22.5t87.5 28.5q-5 -31 -7 -67.5t-2 -69.5v-195z" />
    <glyph glyph-name="two.sub" unicode="&#x2082;" horiz-adv-x="455" 
d="M375 236q0 -40 -23 -79t-57 -73.5t-73 -65t-71 -54.5h104q44 0 85 7.5t61 15.5l-19 -97h-320l-11 28q47 43 88.5 82t72.5 76t49 72.5t18 70.5q0 34 -21 58.5t-69 24.5q-37 0 -63 -15t-47 -46l-18 10q18 48 59 82t106 34q75 0 112 -37.5t37 -93.5z" />
    <glyph glyph-name="three.sub" unicode="&#x2083;" horiz-adv-x="455" 
d="M297 39q0 40 -21 59.5t-64 19.5q-16 0 -30 -4.5t-27 -10.5l-12 23q46 22 83 45.5t37 66.5q0 31 -19 48.5t-61 17.5q-36 0 -58 -15.5t-40 -40.5l-17 8q13 46 51.5 78.5t95.5 32.5q65 0 103 -26.5t38 -80.5q0 -39 -28.5 -64t-65.5 -41v-2q64 -2 97 -33t33 -75
q0 -43 -15.5 -74t-42.5 -51t-63 -29t-76 -9q-34 0 -71 6.5t-59 18.5l-6 71q22 -19 58.5 -38t64.5 -19q60 0 87.5 29t27.5 89z" />
    <glyph glyph-name="four.sub" unicode="&#x2084;" horiz-adv-x="455" 
d="M34 52l226 307h62v-280h99l-7 -57h-92q0 -47 5 -77t12 -55h-125q8 25 13 55t6 77h-189zM102 79h131v180z" />
    <glyph glyph-name="five.sub" unicode="&#x2085;" horiz-adv-x="455" 
d="M191 -81q47 0 73 21.5t26 70.5q0 50 -43.5 81t-154.5 55l59 212h236l-25 -80q-16 3 -44 6t-54 3h-94l-19 -71q48 -10 89.5 -23.5t71.5 -33.5t47 -47.5t17 -64.5q0 -40 -15.5 -71t-41 -52t-59 -32t-69.5 -11q-43 0 -73 6.5t-55 17.5l-7 74q24 -22 62.5 -41.5t72.5 -19.5z
" />
    <glyph glyph-name="six.sub" unicode="&#x2086;" horiz-adv-x="455" 
d="M404 40q0 -36 -14 -65t-38 -50t-56 -32t-67 -11t-68 11t-58 33t-40.5 56.5t-15.5 81.5q0 56 27 105t68 87.5t92 66.5t98 43l11 -26q-61 -29 -109 -76t-71 -108q20 13 46 20t52 7q28 0 53.5 -8.5t45.5 -26t32 -44.5t12 -64zM145 57q0 -24 4 -48t14 -43.5t26 -32t40 -12.5
q43 0 62.5 31t19.5 77q0 56 -23 81t-60 25q-19 0 -40 -6t-38 -17q-2 -13 -3.5 -27t-1.5 -28z" />
    <glyph glyph-name="seven.sub" unicode="&#x2087;" horiz-adv-x="455" 
d="M102 -110q84 132 142.5 226.5t99.5 164.5h-144q-43 0 -78 -3t-49 -9l21 90h308l11 -15q-46 -96 -104.5 -211.5t-120.5 -242.5h-86z" />
    <glyph glyph-name="eight.sub" unicode="&#x2088;" horiz-adv-x="455" 
d="M408 22q0 -58 -50 -99t-131 -41q-32 0 -63.5 6.5t-56 21t-40 37.5t-15.5 56q0 37 30.5 70.5t73.5 47.5q-36 17 -63 43.5t-27 77.5q0 31 14.5 54.5t38 39t54 23.5t62.5 8q72 0 115.5 -26t43.5 -80q0 -35 -28.5 -62t-68.5 -40q49 -20 80 -51.5t31 -85.5zM145 266
q0 -37 34 -57.5t81 -36.5q28 11 49.5 30t21.5 49q0 41 -24 59.5t-73 18.5q-42 0 -65.5 -18t-23.5 -45zM116 16q0 -46 30 -70.5t81 -24.5t76.5 22.5t25.5 53.5q0 40 -37 60.5t-103 49.5q-27 -12 -50 -35t-23 -56z" />
    <glyph glyph-name="nine.sub" unicode="&#x2089;" horiz-adv-x="455" 
d="M406 185q0 -56 -27 -105t-68 -87.5t-91.5 -67t-97.5 -43.5l-12 27q61 28 110.5 75.5t71.5 110.5q-20 -13 -45 -21t-52 -8q-28 0 -54.5 8.5t-46.5 26t-32.5 44.5t-12.5 64q0 36 14.5 65t38.5 49.5t56 31.5t67 11q34 0 67 -11t58 -33t40.5 -56t15.5 -81zM142 219
q0 -56 23.5 -81t60.5 -25q21 0 41 5.5t36 16.5q2 13 3.5 27.5t1.5 28.5q0 24 -4 48.5t-14 43.5t-26 31.5t-40 12.5q-43 0 -62.5 -31t-19.5 -77z" />
    <glyph glyph-name="plus.sub" unicode="&#x208a;" horiz-adv-x="441" 
d="M246 288v-144h140v-42h-140v-144h-49v144h-141v42h141v144h49z" />
    <glyph glyph-name="minus.sub" unicode="&#x208b;" horiz-adv-x="441" 
d="M386 102h-330v42h330v-42z" />
    <glyph glyph-name="Euro" unicode="&#x20ac;" horiz-adv-x="606" 
d="M263 301q34 0 58.5 1t69.5 3l-5 -62q-29 1 -60.5 2.5t-65.5 1.5h-22q15 -107 59 -154.5t106 -47.5q56 0 91.5 29.5t69.5 80.5h8l-11 -116q-25 -22 -66 -36.5t-102 -14.5q-99 0 -174.5 66.5t-99.5 192.5q-18 0 -37 -1t-50 -2l5 59q25 -1 42.5 -1.5t32.5 -0.5
q-1 13 -1.5 26.5t-0.5 26.5q0 14 0.5 28t1.5 27q-16 0 -34 -1t-46 -2l5 62q29 -1 48 -1.5t36 -0.5q13 65 41.5 115.5t65.5 84t81 50.5t88 17q60 0 95 -9.5t66 -25.5l6 -119h-9q-31 46 -61.5 71.5t-90.5 25.5q-66 0 -109.5 -50.5t-56.5 -159.5h53q34 0 58.5 1t69.5 3l-5 -65
q-29 1 -60.5 2.5t-65.5 1.5h-55q-1 -13 -1 -26v-27t0.5 -28t1.5 -27h30z" />
    <glyph glyph-name="bitcoin" unicode="&#x20bf;" horiz-adv-x="631" 
d="M582 202q0 -81 -49.5 -131.5t-138.5 -64.5q1 -27 3.5 -55t5.5 -63h-77q3 34 5.5 60.5t3.5 51.5h-80q1 -25 4 -52t5 -60h-76q3 34 5.5 60.5t3.5 51.5h-131q13 40 19 92.5t6 95.5v346q0 43 -6 95.5t-19 92.5h131q-1 25 -3.5 51t-5.5 60h76q-2 -33 -5 -59.5t-4 -51.5h31
q13 0 25 -0.5t24 -1.5q-1 25 -3.5 52t-5.5 61h77q-4 -37 -6 -65.5t-3 -54.5q72 -15 111 -55t39 -112q0 -60 -34.5 -99t-95.5 -57v-3q76 -19 122 -65t46 -120zM280 669h-69v-265h69q77 0 111.5 33t34.5 106q0 75 -34.5 100.5t-111.5 25.5zM313 356h-102v-305h102
q78 0 112.5 39t34.5 113t-34.5 113.5t-112.5 39.5z" />
    <glyph glyph-name="Cdblstruck" unicode="&#x2102;" horiz-adv-x="668" 
d="M440 44q31 0 58 12t49 30t40.5 40t33.5 43h7l-7 -122q-24 -22 -78.5 -40.5t-138.5 -18.5q-85 0 -154 25.5t-117 73.5t-73.5 117.5t-25.5 156.5q0 98 35.5 169t91 116t124.5 66.5t136 21.5q60 0 108.5 -10t84.5 -29l11 -124h-5q-40 46 -89.5 76.5t-109.5 30.5
q-85 0 -118 -75t-33 -236q0 -160 38.5 -241.5t131.5 -81.5zM260 643q-74 -32 -116 -106t-42 -176q0 -56 11.5 -106.5t35 -91t59 -69.5t82.5 -44q-47 50 -67 126.5t-21 190.5q1 93 13.5 159.5t44.5 116.5z" />
    <glyph glyph-name="Hscript" unicode="&#x210b;" horiz-adv-x="1104" 
d="M669 196l36 141h-226l-39 -147q-12 -47 -36 -84.5t-56 -63.5t-71 -40t-80 -14q-50 0 -94 24t-100 70l62 84q53 -51 102 -86.5t65 -35.5q26 0 42.5 14.5t25.5 47.5l60 235l-25 54h39l68 265h-175q-5 -6 -9 -15.5t-4 -18.5q0 -19 14.5 -44.5t22.5 -36.5l-98 -41
q-15 17 -29 45t-14 53q0 28 20 50.5t48.5 38t61 23.5t56.5 8h256q-21 -46 -36.5 -98t-27.5 -98l-34 -131h226l37 143q22 87 83 141t160 54q40 0 74.5 -14t50.5 -36l-62 -81q-23 30 -49 54.5t-39 24.5q-36 0 -54.5 -24t-31.5 -73l-102 -398q-10 -41 -18.5 -93.5t-10.5 -92.5
h-158q25 50 40.5 96.5t28.5 99.5z" />
    <glyph glyph-name="plancktwopi" unicode="&#x210f;" horiz-adv-x="594" 
d="M317 664q29 16 50.5 28t49.5 29l26 -55q-28 -12 -53.5 -24.5t-53.5 -28.5l-64 -34l-56 -200l4 1q42 78 100 122.5t119 44.5q51 0 75.5 -29.5t24.5 -77.5q0 -28 -14 -75.5t-33 -110.5q-25 -83 -31.5 -114t-6.5 -43q0 -18 11.5 -24t28.5 -6q14 0 26.5 3.5t22.5 7.5l-6 -21
q-17 -32 -43.5 -50.5t-70.5 -18.5q-37 0 -58 20.5t-21 58.5q0 28 10 67.5t35 120.5q18 57 31.5 100.5t13.5 65.5q0 26 -13 37t-37 11q-30 0 -61.5 -22.5t-58.5 -55.5t-47.5 -71.5t-28.5 -70.5l-21 -81q-10 -43 -20 -85.5t-18 -82.5h-114q14 44 24 81t22 83l92 351
q-16 -9 -33 -19.5t-43 -26.5l-27 58q36 17 57 26.5t49 24.5l16 8l1 5q12 46 7.5 81.5t-19.5 54.5l161 55l5 -6l-35 -125z" />
    <glyph glyph-name="Ifraktur" unicode="&#x2111;" horiz-adv-x="536" 
d="M31 613q4 7 12.5 23.5t22.5 35.5q16 21 42.5 41t59.5 20q21 0 43.5 -10.5t44.5 -20.5q24 -11 46.5 -19t45.5 -8q19 0 40 17.5t42 37.5l21 -22q-7 -8 -29.5 -30.5t-44.5 -41.5q-20 -18 -43.5 -34.5t-46.5 -16.5q-20 0 -41 7t-41 17q-29 13 -47 21.5t-33 8.5q-26 0 -41 -12
t-27 -30zM473 176q0 -32 -17.5 -65.5t-48.5 -60.5t-73.5 -44.5t-91.5 -17.5q-21 0 -44 11t-47 26q-27 17 -38 22.5t-22 5.5q-12 0 -25.5 -7.5t-21.5 -20.5l-23 17q27 45 54 70.5t60 25.5q28 0 47 -14t38 -29q34 -25 55.5 -38.5t43.5 -13.5q13 0 30.5 9.5t17.5 40.5
q0 43 -11 89.5t-30 116.5q-12 43 -21.5 76.5t-9.5 62.5q0 28 11 52.5t26.5 45t32.5 36.5t29 27q17 16 42.5 39t43.5 39l22 -22q-35 -34 -63 -76t-28 -99q0 -35 9 -63.5t19 -71.5q11 -45 22.5 -87t11.5 -82z" />
    <glyph glyph-name="Lscript" unicode="&#x2112;" horiz-adv-x="666" 
d="M359 95q110 0 169 16.5t87 33.5l3 -2q-29 -54 -52.5 -91.5t-48.5 -63.5q-33 0 -102 2t-140.5 5t-130.5 5t-72 2q-30 0 -55 -3.5t-51 -10.5l-1 1l76 106h68q15 24 24.5 53t16.5 60q5 25 12.5 59t16 72.5t17.5 78t18 74.5q27 112 89 176.5t146 64.5q33 0 67.5 -7.5
t71.5 -21.5l-47 -92q-19 12 -41.5 23t-42 19.5t-34 13.5t-19.5 5q-15 0 -23.5 -6.5t-15.5 -36.5q-7 -29 -17 -72t-21 -91.5t-23 -100t-24 -96.5q-13 -54 -49 -100t-76 -75h204z" />
    <glyph glyph-name="uni2113" unicode="&#x2113;" horiz-adv-x="464" 
d="M218 252q0 -55 6.5 -91t19.5 -57t32 -29t44 -8q17 0 36.5 4.5t35.5 12.5q-1 -12 -2.5 -18.5t-5.5 -16.5q-12 -27 -41 -44t-69 -17q-84 0 -123.5 58t-39.5 180v22q-17 -10 -35 -19t-37 -18l-14 42q23 13 45 25.5t41 25.5v194q0 82 13.5 135t35 83.5t49.5 42.5t57 12
q51 0 88.5 -39t37.5 -117q0 -95 -48 -168.5t-126 -131.5v-63zM218 544v-158q46 45 68.5 97t22.5 118q0 55 -9 85.5t-34 30.5t-36.5 -35t-11.5 -138z" />
    <glyph glyph-name="Ndblstruck" unicode="&#x2115;" horiz-adv-x="714" 
d="M635 463v-463h-157l-329 550h-6v-290q0 -80 10 -143.5t26 -116.5h-135q16 53 25.5 116.5t9.5 143.5v244q0 78 -13 124t-51 94h272l278 -462h6v203q0 75 -10 143t-26 116h135q-16 -48 -25.5 -116t-9.5 -143zM516 60h55v73l-317 529h-98z" />
    <glyph glyph-name="Qdblstruck" unicode="&#x211a;" horiz-adv-x="778" 
d="M388 734q70 0 134.5 -22.5t113 -67t77.5 -113.5t30 -160q0 -105 -46.5 -183t-134.5 -123q32 -6 69.5 -11t74 -9t69.5 -6t56 -2l-140 -183q-123 38 -238 78t-209 83q-90 35 -149.5 119t-60.5 217q0 95 32 167t82 120t113.5 72t126.5 24zM390 45q31 0 53 14t36 49t21 97
t7 156t-7 156t-21.5 97.5t-37 49.5t-53.5 14t-53 -14t-36.5 -49.5t-21.5 -97.5t-7 -156t7.5 -156t22 -97t37 -49t53.5 -14zM545 106q56 33 95.5 105.5t38.5 159.5q-1 102 -46 181t-111 112q28 -52 38.5 -124t10.5 -179q0 -92 -8 -152.5t-18 -102.5zM251 654
q-37 -21 -65.5 -53.5t-48 -72t-29.5 -85.5t-10 -92q0 -112 45 -186.5t116 -105.5q-25 40 -39 113t-14 189q0 100 8 169.5t37 123.5zM669 -75l57 67q-20 1 -47 4.5t-57 8.5t-61.5 11.5t-59.5 14.5q-12 -10 -36 -21t-49 -13q57 -20 127.5 -39.5t125.5 -32.5z" />
    <glyph glyph-name="Rscript" unicode="&#x211b;" horiz-adv-x="948" 
d="M920 65q-42 -34 -86.5 -55.5t-89.5 -21.5q-57 0 -90.5 34t-52.5 76q-23 45 -47.5 104.5t-43.5 116.5h-54l-35 -136q-25 -94 -87 -144.5t-141 -50.5q-54 0 -96.5 21t-93.5 68l67 79q33 -33 59.5 -56.5t47.5 -36.5q14 -9 25.5 -14t21.5 -5q19 0 34.5 15.5t25.5 52.5l96 371
q18 71 41 119t60 80q-122 -1 -176.5 -26.5t-54.5 -50.5q0 -7 6.5 -20.5t15.5 -28.5t17.5 -27.5t12.5 -18.5l-108 -44q-14 16 -30 50t-16 58q0 31 18 60t59 50.5t107.5 34.5t162.5 13q98 0 165 -16.5t108 -43.5t59 -62t18 -73q0 -76 -60 -130.5t-158 -71.5q32 -81 66.5 -155
t62.5 -120q4 -7 7.5 -10.5t9.5 -3.5t12.5 4t14.5 11q16 15 35.5 39t37.5 46zM723 535q0 53 -31.5 92.5t-126.5 50.5q-19 -26 -31.5 -66.5t-25.5 -89.5l-39 -152h90q79 0 121.5 44.5t42.5 120.5z" />
    <glyph glyph-name="Rfraktur" unicode="&#x211c;" horiz-adv-x="831" 
d="M405 190q0 -41 -12 -77.5t-33 -64t-52 -44t-68 -16.5q-22 0 -45 9.5t-48 27.5q-26 19 -36.5 25.5t-17.5 6.5q-10 0 -19.5 -9t-17.5 -21l-24 15q23 44 48.5 69t56.5 25q15 0 33.5 -14.5t36.5 -32.5t34 -32.5t25 -14.5q12 0 18 12t6 47v491q0 53 -17 75t-66 22
q-9 0 -29 -13t-20 -38q0 -9 7.5 -28.5t16 -41.5t16 -41.5t7.5 -27.5q0 -12 -6.5 -23.5t-17.5 -21.5q-19 -19 -44 -36t-45 -29l-16 24q19 15 26 25.5t7 27.5q0 7 -7 23.5t-15.5 35.5t-15.5 37t-7 27q0 31 19.5 57.5t45.5 46t53 30t41 10.5q39 0 70 -10t53.5 -25.5t36.5 -33.5
t19 -34q38 18 76.5 35.5t70.5 31t55 23.5t32 13q11 -6 25.5 -24.5t28 -44.5t22.5 -56.5t9 -58.5q0 -35 -12 -61.5t-30 -45t-38.5 -31t-36.5 -19.5l57 -235q7 -28 21 -50.5t30 -33.5l60 55l20 -25q-14 -14 -33 -32t-38.5 -35t-37.5 -30t-30 -18q-12 0 -28 10t-31.5 26.5
t-28 38t-17.5 45.5l-53 237q-22 -9 -45 -18.5t-45 -19.5v-117zM552 657q-19 -8 -63 -27.5t-84 -38.5v-244q47 20 92.5 39.5t70.5 32.5q30 15 35 34t5 50q0 14 -6 36.5t-14.5 45.5t-18.5 43t-17 29z" />
    <glyph glyph-name="Rdblstruck" unicode="&#x211d;" horiz-adv-x="732" 
d="M296 235q0 -75 8 -131t23 -104h-285q16 48 24 104t8 131v252q0 75 -8 131t-24 104h322q142 0 220.5 -51t78.5 -155q0 -66 -34 -110t-99 -65q37 -71 68.5 -126t71.5 -116q16 -24 35 -51.5t37 -47.5h-273q-39 69 -78.5 148.5t-74.5 160.5h-20v-74zM452 665q24 -26 34 -64.5
t10 -84.5q0 -48 -8.5 -84t-23.5 -61q80 28 107.5 64.5t27.5 80.5q0 59 -36.5 99t-110.5 50zM247 57q-7 37 -11 82t-4 96v430h-109q7 -37 11 -82t4 -96v-252q0 -51 -4 -96t-11 -82h124zM337 665h-41v-300h41q49 0 72 41t23 110t-23 109t-72 40zM456 363q-14 -20 -33.5 -32.5
t-41.5 -17.5q29 -66 63.5 -132.5t68.5 -123.5h114q-23 34 -43.5 65.5t-40.5 67t-41 77.5t-46 96z" />
    <glyph glyph-name="trademark" unicode="&#x2122;" horiz-adv-x="751" 
d="M199 503q0 -26 3 -52.5t7 -49.5h-86q5 23 8 49.5t3 52.5v189h-24q-18 0 -44.5 -4.5t-45.5 -13.5l5 51q18 -1 39 -2t38 -1h131q18 0 41.5 1t39.5 2l-8 -51q-19 9 -39 13.5t-45 4.5h-23v-189zM516 401h-24l-108 259h-4v-138q0 -30 3.5 -61t10.5 -60h-60q6 28 9.5 59.5
t3.5 61.5v95q0 26 -3 54t-8 51h87l95 -225h3l88 225h86q-5 -23 -8 -49t-3 -53v-117q0 -26 3 -52t8 -50h-85q5 24 7.5 50t3.5 52v157h-4z" />
    <glyph glyph-name="Zdblstruck" unicode="&#x2124;" horiz-adv-x="636" 
d="M593 0h-562l-13 30l327 631h-76q-22 0 -51 -6t-59 -16t-58 -22.5t-48 -25.5l12 134q25 -2 50.5 -3t50.5 0h423l13 -21l-335 -640h110q63 0 125 15.5t102 34.5zM196 61l315 600h-96l-311 -600h92z" />
    <glyph glyph-name="angstrom" unicode="&#x212b;" horiz-adv-x="663" 
d="M448 153q-7 17 -14.5 39t-16.5 46h-229q-11 -32 -19 -55.5t-11 -32.5q-18 -55 -9.5 -97.5t15.5 -52.5h-156q22 30 39.5 63t39.5 97q21 56 47 125.5t53 143t54.5 147t51.5 136.5l71 22q24 -69 51.5 -145t55 -151.5t54.5 -150t50 -139.5q15 -42 35.5 -84t40.5 -64h-202
q7 12 10 30.5t2.5 40t-4 43t-9.5 39.5zM297 555q-8 -24 -19 -55t-22.5 -65.5t-24 -70.5t-24.5 -69h190q-25 70 -51 142t-43 118h-6zM233 864q0 44 29 67.5t65 23.5t65 -23.5t29 -67.5t-29 -68t-65 -24t-65 24t-29 68zM377 864q0 25 -12.5 40t-37.5 15t-37.5 -15t-12.5 -40
t12.5 -40t37.5 -15t37.5 15t12.5 40z" />
    <glyph glyph-name="estimated" unicode="&#x212e;" horiz-adv-x="672" 
d="M583 35q-37 -22 -85 -34.5t-106 -12.5q-81 0 -144.5 26t-107 74t-66 117.5t-22.5 155.5q0 87 24.5 156.5t65.5 117t95 73t112 25.5q125 0 199.5 -87.5t74.5 -249.5v-30h-457v-205q31 -62 88 -91.5t138 -29.5q58 0 100.5 17.5t92.5 62.5h5zM349 681q-58 0 -106.5 -32
t-76.5 -96v-136h349v167q-25 54 -67.5 75.5t-98.5 21.5z" />
    <glyph glyph-name="Fscript" unicode="&#x2131;" horiz-adv-x="843" 
d="M578 705q53 0 91.5 2.5t68 7t52 10.5t44.5 13l3 -3q-24 -32 -55.5 -68.5t-58.5 -62.5l-197 1q-5 -15 -10.5 -35t-12.5 -48l-38 -148q36 1 79 5t73 10l-24 -87q-26 7 -65.5 11t-77.5 5l-35 -135q-24 -94 -87 -144.5t-146 -50.5q-50 0 -91.5 18t-95.5 63l62 82
q32 -28 61 -51t53 -37q15 -9 27.5 -14t22.5 -5q19 0 32.5 16t24.5 52l60 215l-19 47h32l19 70q16 54 41.5 94t55.5 67l-151 1q-54 0 -83 -7.5t-29 -22.5q0 -6 7.5 -20.5t17.5 -31.5t20.5 -32.5t15.5 -22.5l-94 -54q-6 8 -14 22t-14.5 29.5t-11 32t-4.5 28.5q0 33 18.5 65
t49.5 57t73 40.5t89 15.5h221z" />
    <glyph glyph-name="onethird" unicode="&#x2153;" horiz-adv-x="1001" 
d="M52 253v39h68q4 20 6 44.5t2 55.5v255l-81 4v29q55 7 99 21.5t80 27.5q-4 -31 -5 -62.5t-1 -64.5v-210q0 -31 2 -55.5t6 -44.5h65v-39h-241zM195 11l568 761l44 -30l-572 -764zM873 148q0 39 -21 58t-58 19q-16 0 -29.5 -3.5t-26.5 -9.5l-12 23q46 22 80 47.5t34 67.5
q0 31 -20 48.5t-55 17.5q-37 0 -59.5 -15t-38.5 -40l-17 7q13 47 51.5 78t95.5 31q65 0 99.5 -28.5t34.5 -78.5q0 -39 -25.5 -64t-61.5 -41v-3q60 -3 92 -32t32 -73q0 -43 -16 -74.5t-42.5 -51.5t-62 -29.5t-74.5 -9.5q-34 0 -66.5 6.5t-55.5 18.5l-6 69q22 -19 53 -37
t62 -18q57 0 85 28t28 89z" />
    </font>
</defs>
</svg>
